{"glyphs":{"0":{"ha":801,"x_min":47,"x_max":753,"o":"m 400 -19 q 203 47 282 -19 q 85 226 124 113 q 47 481 47 339 q 85 726 47 618 q 203 899 124 835 q 400 963 282 963 q 597 899 518 963 q 715 726 676 835 q 753 481 753 618 q 715 226 753 339 q 597 47 676 113 q 400 -19 518 -19 m 401 99 q 549 206 501 99 q 596 481 596 314 q 549 742 596 639 q 401 844 501 844 q 254 742 301 844 q 207 481 207 639 q 254 206 207 314 q 401 99 301 99 z "},"1":{"ha":801,"x_min":146,"x_max":729,"o":"m 729 115 l 729 0 l 150 0 l 150 115 l 360 115 l 360 797 l 186 722 l 146 829 l 385 944 l 518 944 l 518 115 l 729 115 z "},"2":{"ha":801,"x_min":49,"x_max":732,"o":"m 69 88 l 306 317 q 526 678 526 528 q 478 798 526 754 q 347 842 431 842 q 221 814 279 842 q 96 724 163 786 l 49 824 q 365 961 182 961 q 528 928 457 961 q 641 833 600 894 q 682 689 682 771 q 622 481 682 586 q 421 244 561 375 l 289 119 l 289 117 l 732 117 l 732 0 l 69 0 l 69 88 z "},"3":{"ha":803,"x_min":44,"x_max":724,"o":"m 510 511 q 664 428 604 490 q 724 276 724 367 q 680 126 724 194 q 553 17 636 57 q 357 -24 469 -24 q 181 -1 260 -24 q 44 76 103 22 l 89 181 q 215 114 153 133 q 357 94 278 94 q 508 142 451 94 q 565 269 565 190 q 516 385 565 342 q 381 429 467 429 q 235 407 311 429 l 219 521 q 385 569 326 547 q 479 630 444 592 q 514 729 514 668 q 478 809 514 778 q 381 840 442 840 q 253 815 317 840 q 119 731 189 789 l 74 829 q 217 926 136 893 q 388 958 297 958 q 594 897 517 958 q 672 735 672 836 q 629 604 672 661 q 510 511 586 547 z "},"4":{"ha":801,"x_min":31,"x_max":785,"o":"m 785 240 l 629 240 l 629 0 l 471 0 l 471 240 l 31 240 l 31 332 l 482 944 l 629 944 l 629 357 l 785 357 l 785 240 m 471 357 l 471 524 l 475 757 l 318 532 l 189 357 l 471 357 z "},"5":{"ha":803,"x_min":61,"x_max":740,"o":"m 396 581 q 581 544 503 581 q 699 442 658 507 q 740 293 740 376 q 695 133 740 206 q 565 19 650 61 q 364 -24 479 -24 q 61 76 168 -24 l 106 181 q 227 114 167 133 q 364 94 288 94 q 524 146 467 94 q 582 286 582 197 q 531 415 582 368 q 383 463 481 463 q 151 414 279 463 l 119 436 l 161 944 l 713 944 l 713 826 l 301 826 l 278 567 q 396 581 340 581 z "},"6":{"ha":801,"x_min":58,"x_max":742,"o":"m 431 581 q 597 540 526 581 q 705 432 668 499 q 742 292 742 365 q 701 136 742 207 q 583 22 660 65 q 400 -21 506 -21 q 151 78 244 -21 q 58 361 58 176 q 210 756 58 600 q 629 963 363 913 l 657 850 q 381 729 485 806 q 239 522 278 653 q 431 581 329 581 m 400 96 q 536 150 489 96 q 583 285 583 204 q 539 413 583 361 q 417 464 494 464 q 217 363 296 464 l 217 347 q 267 160 217 225 q 400 96 317 96 z "},"7":{"ha":801,"x_min":47,"x_max":754,"o":"m 586 825 l 586 828 l 47 828 l 47 944 l 754 944 l 754 850 l 285 0 l 104 0 l 586 825 z "},"8":{"ha":801,"x_min":61,"x_max":739,"o":"m 540 496 q 688 394 636 453 q 739 247 739 335 q 702 112 739 172 q 590 16 665 51 q 401 -19 514 -19 q 212 16 289 -19 q 98 108 135 51 q 61 233 61 165 q 244 483 61 394 q 128 576 167 524 q 89 703 89 628 q 124 834 89 775 q 228 928 158 893 q 401 963 299 963 q 572 929 501 963 q 676 842 642 896 q 711 724 711 788 q 669 592 711 646 q 540 496 628 539 m 401 844 q 286 806 325 844 q 247 710 247 767 q 292 611 247 650 q 419 542 336 572 q 553 717 553 603 q 515 808 553 771 q 401 844 476 844 m 401 99 q 537 139 493 99 q 581 240 581 179 q 530 351 581 310 q 376 429 479 392 q 261 351 303 400 q 219 240 219 303 q 265 140 219 182 q 401 99 310 99 z "},"9":{"ha":801,"x_min":58,"x_max":742,"o":"m 400 963 q 649 864 556 963 q 742 579 742 765 q 590 185 742 342 q 172 -21 438 29 l 143 92 q 419 212 317 136 q 560 417 522 288 q 369 360 475 360 q 203 401 274 360 q 95 510 132 443 q 58 650 58 576 q 99 805 58 733 q 218 919 140 876 q 400 963 296 963 m 383 476 q 583 576 504 476 l 583 594 q 534 781 583 717 q 400 844 485 844 q 264 791 311 844 q 217 657 217 738 q 261 528 217 579 q 383 476 306 476 z "},"\r":{"ha":392,"x_min":0,"x_max":0,"o":""}," ":{"ha":347,"x_min":0,"x_max":0,"o":""},"A":{"ha":925,"x_min":22,"x_max":904,"o":"m 643 275 l 279 275 l 181 0 l 22 0 l 388 957 l 536 957 l 904 0 l 742 0 l 643 275 m 603 389 l 461 785 l 319 389 l 603 389 z "},"Á":{"ha":925,"x_min":22,"x_max":904,"o":"m 22 0 m 643 275 l 279 275 l 181 0 l 22 0 l 388 957 l 536 957 l 904 0 l 742 0 l 643 275 m 603 389 l 461 785 l 319 389 l 603 389 m 568 1244 l 729 1244 l 521 1028 l 390 1028 l 568 1244 z "},"Ă":{"ha":925,"x_min":22,"x_max":904,"o":"m 22 0 m 643 275 l 279 275 l 181 0 l 22 0 l 388 957 l 536 957 l 904 0 l 742 0 l 643 275 m 603 389 l 461 785 l 319 389 l 603 389 m 461 1042 q 297 1101 357 1042 q 235 1264 238 1161 l 344 1265 q 379 1174 349 1204 q 461 1143 410 1143 q 543 1174 513 1143 q 578 1265 574 1204 l 688 1263 q 625 1101 685 1160 q 461 1042 565 1042 z "},"Â":{"ha":925,"x_min":22,"x_max":904,"o":"m 22 0 m 643 275 l 279 275 l 181 0 l 22 0 l 388 957 l 536 957 l 904 0 l 742 0 l 643 275 m 603 389 l 461 785 l 319 389 l 603 389 m 578 1028 l 461 1171 l 344 1028 l 201 1028 l 385 1244 l 538 1244 l 721 1028 l 578 1028 z "},"Ä":{"ha":925,"x_min":22,"x_max":904,"o":"m 22 0 m 643 275 l 279 275 l 181 0 l 22 0 l 388 957 l 536 957 l 904 0 l 742 0 l 643 275 m 603 389 l 461 785 l 319 389 l 603 389 m 311 1057 q 253 1082 278 1057 q 228 1139 228 1107 q 252 1199 228 1174 q 311 1224 276 1224 q 370 1199 346 1224 q 394 1139 394 1174 q 370 1082 394 1107 q 311 1057 346 1057 m 613 1057 q 554 1082 579 1057 q 529 1139 529 1107 q 553 1199 529 1174 q 613 1224 578 1224 q 672 1199 647 1224 q 696 1139 696 1174 q 672 1082 696 1107 q 613 1057 647 1057 z "},"À":{"ha":925,"x_min":22,"x_max":904,"o":"m 22 0 m 643 275 l 279 275 l 181 0 l 22 0 l 388 957 l 536 957 l 904 0 l 742 0 l 643 275 m 603 389 l 461 785 l 319 389 l 603 389 m 196 1244 l 357 1244 l 535 1028 l 404 1028 l 196 1244 z "},"Ā":{"ha":925,"x_min":22,"x_max":904,"o":"m 22 0 m 643 275 l 279 275 l 181 0 l 22 0 l 388 957 l 536 957 l 904 0 l 742 0 l 643 275 m 603 389 l 461 785 l 319 389 l 603 389 m 228 1200 l 694 1200 l 694 1089 l 228 1089 l 228 1200 z "},"Ą":{"ha":925,"x_min":22,"x_max":926,"o":"m 926 -279 q 856 -332 901 -310 q 763 -354 811 -354 q 648 -316 690 -354 q 606 -211 606 -278 q 640 -98 606 -156 q 738 11 674 -40 l 643 275 l 279 275 l 181 0 l 22 0 l 388 957 l 536 957 l 904 0 l 856 0 q 729 -185 729 -107 q 745 -227 729 -212 q 788 -242 761 -242 q 879 -197 833 -242 l 926 -279 m 603 389 l 461 785 l 319 389 l 603 389 z "},"Å":{"ha":925,"x_min":22,"x_max":904,"o":"m 22 0 m 643 275 l 279 275 l 181 0 l 22 0 l 388 957 l 536 957 l 904 0 l 742 0 l 643 275 m 603 389 l 461 785 l 319 389 l 603 389 m 461 1021 q 342 1058 385 1021 q 299 1150 299 1096 q 342 1241 299 1204 q 461 1278 385 1278 q 582 1241 539 1278 q 625 1150 625 1204 q 581 1058 625 1096 q 461 1021 538 1021 m 461 1099 q 505 1113 489 1099 q 521 1150 521 1126 q 505 1188 521 1174 q 461 1201 489 1201 q 417 1188 433 1201 q 400 1150 400 1174 q 417 1113 400 1126 q 461 1099 433 1099 z "},"Ã":{"ha":925,"x_min":22,"x_max":904,"o":"m 22 0 m 643 275 l 279 275 l 181 0 l 22 0 l 388 957 l 536 957 l 904 0 l 742 0 l 643 275 m 603 389 l 461 785 l 319 389 l 603 389 m 217 1036 q 263 1190 224 1135 q 364 1244 301 1244 q 420 1231 396 1244 q 474 1190 444 1217 q 515 1158 499 1168 q 551 1147 531 1147 q 592 1172 578 1147 q 615 1251 607 1196 l 706 1246 q 659 1094 699 1151 q 558 1036 619 1036 q 498 1051 524 1036 q 442 1093 472 1067 q 403 1124 418 1114 q 371 1133 388 1133 q 331 1110 344 1133 q 307 1031 317 1086 l 217 1036 z "},"Æ":{"ha":1382,"x_min":8,"x_max":1306,"o":"m 1306 115 l 1306 0 l 711 0 l 711 368 l 408 368 l 175 0 l 8 0 l 628 944 l 1276 944 l 1276 829 l 869 829 l 869 525 l 1222 525 l 1222 410 l 869 410 l 869 115 l 1306 115 m 711 483 l 711 846 l 482 483 l 711 483 z "},"B":{"ha":900,"x_min":147,"x_max":836,"o":"m 628 499 q 783 415 731 478 q 836 260 836 351 q 744 69 836 139 q 479 0 653 0 l 147 0 l 147 944 l 479 944 q 714 883 633 944 q 794 707 794 822 q 752 576 794 632 q 628 499 710 521 m 306 829 l 306 556 l 479 556 q 595 591 554 556 q 636 692 636 626 q 479 829 636 829 l 306 829 m 479 115 q 626 158 574 115 q 678 278 678 200 q 627 400 678 360 q 479 440 576 440 l 306 440 l 306 115 l 479 115 z "},"C":{"ha":958,"x_min":74,"x_max":894,"o":"m 563 -19 q 293 48 403 -19 q 128 228 183 115 q 74 474 74 340 q 131 717 74 606 q 302 896 188 829 q 579 963 417 963 q 748 935 668 963 q 883 861 828 908 l 832 753 q 721 818 788 793 q 579 843 654 843 q 391 794 469 843 q 272 662 313 746 q 232 472 232 578 q 270 281 232 365 q 383 147 308 196 q 563 99 457 99 q 847 211 724 99 l 894 106 q 747 15 832 50 q 563 -19 663 -19 z "},"Ć":{"ha":958,"x_min":74,"x_max":894,"o":"m 74 0 m 563 -19 q 293 48 403 -19 q 128 228 183 115 q 74 474 74 340 q 131 717 74 606 q 302 896 188 829 q 579 963 417 963 q 748 935 668 963 q 883 861 828 908 l 832 753 q 721 818 788 793 q 579 843 654 843 q 391 794 469 843 q 272 662 313 746 q 232 472 232 578 q 270 281 232 365 q 383 147 308 196 q 563 99 457 99 q 847 211 724 99 l 894 106 q 747 15 832 50 q 563 -19 663 -19 m 667 1244 l 828 1244 l 619 1028 l 489 1028 l 667 1244 z "},"Č":{"ha":958,"x_min":74,"x_max":894,"o":"m 74 0 m 563 -19 q 293 48 403 -19 q 128 228 183 115 q 74 474 74 340 q 131 717 74 606 q 302 896 188 829 q 579 963 417 963 q 748 935 668 963 q 883 861 828 908 l 832 753 q 721 818 788 793 q 579 843 654 843 q 391 794 469 843 q 272 662 313 746 q 232 472 232 578 q 270 281 232 365 q 383 147 308 196 q 563 99 457 99 q 847 211 724 99 l 894 106 q 747 15 832 50 q 563 -19 663 -19 m 819 1244 l 636 1028 l 483 1028 l 300 1244 l 443 1244 l 560 1103 l 676 1244 l 819 1244 z "},"Ç":{"ha":958,"x_min":74,"x_max":894,"o":"m 586 -81 q 670 -108 636 -81 q 704 -178 704 -136 q 654 -275 704 -232 q 496 -333 604 -318 l 467 -262 q 561 -228 536 -246 q 586 -186 586 -210 q 575 -162 586 -171 q 543 -153 564 -153 q 496 -164 525 -153 l 453 -117 l 507 -17 q 267 65 365 -4 q 122 242 169 135 q 74 474 74 349 q 131 717 74 606 q 302 896 188 829 q 579 963 417 963 q 748 935 668 963 q 883 861 828 908 l 832 753 q 721 818 788 793 q 579 843 654 843 q 391 794 469 843 q 272 662 313 746 q 232 472 232 578 q 270 281 232 365 q 383 147 308 196 q 563 99 457 99 q 847 211 724 99 l 894 106 q 768 24 840 57 q 610 -17 696 -8 l 576 -81 l 586 -81 z "},"D":{"ha":1036,"x_min":147,"x_max":963,"o":"m 493 944 q 749 883 643 944 q 908 715 854 822 q 963 474 963 608 q 908 228 963 336 q 749 60 854 121 q 493 0 643 0 l 147 0 l 147 944 l 493 944 m 493 117 q 722 213 640 117 q 803 472 803 308 q 722 731 803 633 q 493 828 640 828 l 306 828 l 306 117 l 493 117 z "},"Ð":{"ha":1036,"x_min":4,"x_max":963,"o":"m 493 944 q 749 883 643 944 q 908 715 854 822 q 963 474 963 608 q 908 228 963 336 q 749 60 854 121 q 493 0 643 0 l 147 0 l 147 431 l 4 431 l 4 540 l 147 540 l 147 944 l 493 944 m 493 117 q 722 213 640 117 q 803 472 803 308 q 722 731 803 633 q 493 828 640 828 l 306 828 l 306 540 l 546 540 l 546 431 l 306 431 l 306 117 l 493 117 z "},"Ď":{"ha":1036,"x_min":147,"x_max":963,"o":"m 147 0 m 493 944 q 749 883 643 944 q 908 715 854 822 q 963 474 963 608 q 908 228 963 336 q 749 60 854 121 q 493 0 643 0 l 147 0 l 147 944 l 493 944 m 493 117 q 722 213 640 117 q 803 472 803 308 q 722 731 803 633 q 493 828 640 828 l 306 828 l 306 117 l 493 117 m 757 1244 l 574 1028 l 421 1028 l 238 1244 l 381 1244 l 497 1103 l 614 1244 l 757 1244 z "},"Đ":{"ha":1036,"x_min":4,"x_max":963,"o":"m 493 944 q 749 883 643 944 q 908 715 854 822 q 963 474 963 608 q 908 228 963 336 q 749 60 854 121 q 493 0 643 0 l 147 0 l 147 431 l 4 431 l 4 540 l 147 540 l 147 944 l 493 944 m 493 117 q 722 213 640 117 q 803 472 803 308 q 722 731 803 633 q 493 828 640 828 l 306 828 l 306 540 l 546 540 l 546 431 l 306 431 l 306 117 l 493 117 z "},"E":{"ha":818,"x_min":147,"x_max":742,"o":"m 742 115 l 742 0 l 147 0 l 147 944 l 714 944 l 714 829 l 306 829 l 306 557 l 658 557 l 658 442 l 306 442 l 306 115 l 742 115 z "},"É":{"ha":818,"x_min":147,"x_max":742,"o":"m 147 0 m 742 115 l 742 0 l 147 0 l 147 944 l 714 944 l 714 829 l 306 829 l 306 557 l 658 557 l 658 442 l 306 442 l 306 115 l 742 115 m 543 1244 l 704 1244 l 496 1028 l 365 1028 l 543 1244 z "},"Ě":{"ha":818,"x_min":147,"x_max":742,"o":"m 147 0 m 742 115 l 742 0 l 147 0 l 147 944 l 714 944 l 714 829 l 306 829 l 306 557 l 658 557 l 658 442 l 306 442 l 306 115 l 742 115 m 696 1244 l 513 1028 l 360 1028 l 176 1244 l 319 1244 l 436 1103 l 553 1244 l 696 1244 z "},"Ê":{"ha":818,"x_min":147,"x_max":742,"o":"m 147 0 m 742 115 l 742 0 l 147 0 l 147 944 l 714 944 l 714 829 l 306 829 l 306 557 l 658 557 l 658 442 l 306 442 l 306 115 l 742 115 m 553 1028 l 436 1171 l 319 1028 l 176 1028 l 360 1244 l 513 1244 l 696 1028 l 553 1028 z "},"Ë":{"ha":818,"x_min":147,"x_max":742,"o":"m 147 0 m 742 115 l 742 0 l 147 0 l 147 944 l 714 944 l 714 829 l 306 829 l 306 557 l 658 557 l 658 442 l 306 442 l 306 115 l 742 115 m 286 1057 q 228 1082 253 1057 q 203 1139 203 1107 q 227 1199 203 1174 q 286 1224 251 1224 q 345 1199 321 1224 q 369 1139 369 1174 q 345 1082 369 1107 q 286 1057 321 1057 m 588 1057 q 529 1082 554 1057 q 504 1139 504 1107 q 528 1199 504 1174 q 588 1224 553 1224 q 647 1199 622 1224 q 671 1139 671 1174 q 647 1082 671 1107 q 588 1057 622 1057 z "},"Ė":{"ha":818,"x_min":147,"x_max":742,"o":"m 147 0 m 742 115 l 742 0 l 147 0 l 147 944 l 714 944 l 714 829 l 306 829 l 306 557 l 658 557 l 658 442 l 306 442 l 306 115 l 742 115 m 436 1057 q 377 1081 401 1057 q 353 1139 353 1106 q 377 1198 353 1174 q 436 1222 401 1222 q 495 1198 471 1222 q 519 1139 519 1174 q 495 1081 519 1106 q 436 1057 471 1057 z "},"È":{"ha":818,"x_min":147,"x_max":742,"o":"m 147 0 m 742 115 l 742 0 l 147 0 l 147 944 l 714 944 l 714 829 l 306 829 l 306 557 l 658 557 l 658 442 l 306 442 l 306 115 l 742 115 m 171 1244 l 332 1244 l 510 1028 l 379 1028 l 171 1244 z "},"Ē":{"ha":818,"x_min":147,"x_max":742,"o":"m 147 0 m 742 115 l 742 0 l 147 0 l 147 944 l 714 944 l 714 829 l 306 829 l 306 557 l 658 557 l 658 442 l 306 442 l 306 115 l 742 115 m 203 1200 l 669 1200 l 669 1089 l 203 1089 l 203 1200 z "},"Ę":{"ha":818,"x_min":147,"x_max":749,"o":"m 147 0 m 742 115 l 742 0 l 147 0 l 147 944 l 714 944 l 714 829 l 306 829 l 306 557 l 658 557 l 658 442 l 306 442 l 306 115 l 742 115 m 585 -354 q 470 -316 513 -354 q 428 -211 428 -278 q 466 -92 428 -153 q 574 21 504 -31 l 703 21 q 551 -185 551 -101 q 567 -227 551 -212 q 610 -242 583 -242 q 701 -197 656 -242 l 749 -279 q 678 -332 724 -310 q 585 -354 633 -354 z "},"F":{"ha":749,"x_min":147,"x_max":714,"o":"m 306 828 l 306 525 l 658 525 l 658 408 l 306 408 l 306 0 l 147 0 l 147 944 l 714 944 l 714 828 l 306 828 z "},"G":{"ha":990,"x_min":74,"x_max":897,"o":"m 897 449 l 897 53 q 753 0 840 19 q 563 -19 665 -19 q 293 48 403 -19 q 128 228 183 115 q 74 474 74 340 q 131 717 74 606 q 302 896 188 829 q 579 963 417 963 q 748 935 668 963 q 883 861 828 908 l 832 753 q 721 818 788 793 q 579 843 654 843 q 391 794 469 843 q 272 662 313 746 q 232 472 232 578 q 270 281 232 365 q 383 147 308 196 q 563 99 457 99 q 744 119 658 99 l 744 449 l 897 449 z "},"Ğ":{"ha":990,"x_min":74,"x_max":897,"o":"m 74 0 m 897 449 l 897 53 q 753 0 840 19 q 563 -19 665 -19 q 293 48 403 -19 q 128 228 183 115 q 74 474 74 340 q 131 717 74 606 q 302 896 188 829 q 579 963 417 963 q 748 935 668 963 q 883 861 828 908 l 832 753 q 721 818 788 793 q 579 843 654 843 q 391 794 469 843 q 272 662 313 746 q 232 472 232 578 q 270 281 232 365 q 383 147 308 196 q 563 99 457 99 q 744 119 658 99 l 744 449 l 897 449 m 560 1042 q 396 1101 456 1042 q 333 1264 336 1161 l 443 1265 q 478 1174 447 1204 q 560 1143 508 1143 q 642 1174 611 1143 q 676 1265 672 1204 l 786 1263 q 724 1101 783 1160 q 560 1042 664 1042 z "},"Ģ":{"ha":990,"x_min":74,"x_max":897,"o":"m 74 0 m 897 449 l 897 53 q 753 0 840 19 q 563 -19 665 -19 q 293 48 403 -19 q 128 228 183 115 q 74 474 74 340 q 131 717 74 606 q 302 896 188 829 q 579 963 417 963 q 748 935 668 963 q 883 861 828 908 l 832 753 q 721 818 788 793 q 579 843 654 843 q 391 794 469 843 q 272 662 313 746 q 232 472 232 578 q 270 281 232 365 q 383 147 308 196 q 563 99 457 99 q 744 119 658 99 l 744 449 l 897 449 m 461 -275 q 540 -244 518 -262 q 561 -199 561 -226 q 492 -147 561 -157 l 525 -68 q 642 -110 606 -76 q 679 -193 679 -144 q 631 -291 679 -250 q 492 -347 583 -332 l 461 -275 z "},"H":{"ha":1090,"x_min":147,"x_max":943,"o":"m 943 944 l 943 0 l 785 0 l 785 442 l 306 442 l 306 0 l 147 0 l 147 944 l 306 944 l 306 558 l 785 558 l 785 944 l 943 944 z "},"Ħ":{"ha":1090,"x_min":4,"x_max":1088,"o":"m 1088 699 l 943 699 l 943 0 l 785 0 l 785 442 l 306 442 l 306 0 l 147 0 l 147 699 l 4 699 l 4 810 l 147 810 l 147 944 l 306 944 l 306 810 l 785 810 l 785 944 l 943 944 l 943 810 l 1088 810 l 1088 699 m 785 699 l 306 699 l 306 558 l 785 558 l 785 699 z "},"I":{"ha":453,"x_min":147,"x_max":306,"o":"m 147 944 l 306 944 l 306 0 l 147 0 l 147 944 z "},"Ĳ":{"ha":906,"x_min":147,"x_max":760,"o":"m 147 0 m 147 944 l 306 944 l 306 0 l 147 0 l 147 944 m 483 -336 q 378 -325 438 -336 l 393 -210 q 463 -217 432 -217 q 567 -169 535 -217 q 600 -22 600 -122 l 600 944 l 760 944 l 760 -25 q 692 -256 760 -175 q 483 -336 624 -336 z "},"Í":{"ha":453,"x_min":147,"x_max":494,"o":"m 147 0 m 147 944 l 306 944 l 306 0 l 147 0 l 147 944 m 333 1244 l 494 1244 l 286 1028 l 156 1028 l 333 1244 z "},"Î":{"ha":453,"x_min":-33,"x_max":486,"o":"m 0 0 m 147 944 l 306 944 l 306 0 l 147 0 l 147 944 m 343 1028 l 226 1171 l 110 1028 l -33 1028 l 150 1244 l 303 1244 l 486 1028 l 343 1028 z "},"Ï":{"ha":453,"x_min":-7,"x_max":461,"o":"m 0 0 m 147 944 l 306 944 l 306 0 l 147 0 l 147 944 m 76 1057 q 18 1082 43 1057 q -7 1139 -7 1107 q 17 1199 -7 1174 q 76 1224 42 1224 q 135 1199 111 1224 q 160 1139 160 1174 q 135 1082 160 1107 q 76 1057 111 1057 m 378 1057 q 319 1082 344 1057 q 294 1139 294 1107 q 319 1199 294 1174 q 378 1224 343 1224 q 437 1199 413 1224 q 461 1139 461 1174 q 437 1082 461 1107 q 378 1057 413 1057 z "},"İ":{"ha":453,"x_min":143,"x_max":310,"o":"m 143 0 m 147 944 l 306 944 l 306 0 l 147 0 l 147 944 m 226 1057 q 167 1081 192 1057 q 143 1139 143 1106 q 167 1198 143 1174 q 226 1222 192 1222 q 285 1198 261 1222 q 310 1139 310 1174 q 285 1081 310 1106 q 226 1057 261 1057 z "},"Ì":{"ha":453,"x_min":-39,"x_max":306,"o":"m 0 0 m 147 944 l 306 944 l 306 0 l 147 0 l 147 944 m -39 1244 l 122 1244 l 300 1028 l 169 1028 l -39 1244 z "},"Ī":{"ha":453,"x_min":-7,"x_max":460,"o":"m 0 0 m 147 944 l 306 944 l 306 0 l 147 0 l 147 944 m -7 1200 l 460 1200 l 460 1089 l -7 1089 l -7 1200 z "},"Į":{"ha":453,"x_min":14,"x_max":335,"o":"m 335 -279 q 265 -332 310 -310 q 171 -354 219 -354 q 56 -316 99 -354 q 14 -211 14 -278 q 49 -98 14 -156 q 147 11 83 -40 l 147 944 l 306 944 l 306 0 l 264 0 q 138 -185 138 -107 q 153 -227 138 -212 q 196 -242 169 -242 q 288 -197 242 -242 l 335 -279 z "},"Ĩ":{"ha":453,"x_min":-18,"x_max":471,"o":"m 0 0 m 147 944 l 306 944 l 306 0 l 147 0 l 147 944 m -18 1036 q 28 1190 -11 1135 q 129 1244 67 1244 q 185 1231 161 1244 q 239 1190 210 1217 q 280 1158 264 1168 q 317 1147 296 1147 q 358 1172 343 1147 q 381 1251 372 1196 l 471 1246 q 424 1094 464 1151 q 324 1036 385 1036 q 263 1051 289 1036 q 207 1093 238 1067 q 168 1124 183 1114 q 136 1133 153 1133 q 96 1110 110 1133 q 72 1031 82 1086 l -18 1036 z "},"J":{"ha":453,"x_min":-75,"x_max":307,"o":"m 31 -336 q -75 -325 -15 -336 l -60 -210 q 10 -217 -21 -217 q 115 -169 82 -217 q 147 -22 147 -122 l 147 944 l 307 944 l 307 -25 q 239 -256 307 -175 q 31 -336 171 -336 z "},"Ĵ":{"ha":453,"x_min":-75,"x_max":486,"o":"m 0 0 m 31 -336 q -75 -325 -15 -336 l -60 -210 q 10 -217 -21 -217 q 115 -169 82 -217 q 147 -22 147 -122 l 147 944 l 307 944 l 307 -25 q 239 -256 307 -175 q 31 -336 171 -336 m 343 1028 l 226 1171 l 110 1028 l -33 1028 l 150 1244 l 303 1244 l 486 1028 l 343 1028 z "},"K":{"ha":968,"x_min":147,"x_max":939,"o":"m 147 944 l 306 944 l 306 0 l 147 0 l 147 944 m 939 0 l 746 0 l 319 493 l 319 521 l 704 944 l 888 944 l 478 511 l 939 0 z "},"Ķ":{"ha":968,"x_min":147,"x_max":939,"o":"m 147 0 m 147 944 l 306 944 l 306 0 l 147 0 l 147 944 m 939 0 l 746 0 l 319 493 l 319 521 l 704 944 l 888 944 l 478 511 l 939 0 m 393 -275 q 472 -244 450 -262 q 493 -199 493 -226 q 424 -147 493 -157 l 457 -68 q 574 -110 538 -76 q 611 -193 611 -144 q 563 -291 611 -250 q 424 -347 515 -332 l 393 -275 z "},"L":{"ha":778,"x_min":147,"x_max":742,"o":"m 742 115 l 742 0 l 147 0 l 147 944 l 306 944 l 306 115 l 742 115 z "},"Ĺ":{"ha":778,"x_min":147,"x_max":742,"o":"m 147 0 m 742 115 l 742 0 l 147 0 l 147 944 l 306 944 l 306 115 l 742 115 m 339 1244 l 500 1244 l 292 1028 l 161 1028 l 339 1244 z "},"Ľ":{"ha":778,"x_min":147,"x_max":742,"o":"m 147 0 m 742 115 l 742 0 l 147 0 l 147 944 l 306 944 l 306 115 l 742 115 m 400 658 q 459 733 440 692 q 478 828 478 774 q 453 944 478 883 l 588 944 q 603 839 603 893 q 558 697 603 763 q 447 597 514 632 l 400 658 z "},"Ļ":{"ha":778,"x_min":147,"x_max":742,"o":"m 147 0 m 742 115 l 742 0 l 147 0 l 147 944 l 306 944 l 306 115 l 742 115 m 357 -275 q 435 -244 414 -262 q 457 -199 457 -226 q 388 -147 457 -157 l 421 -68 q 538 -110 501 -76 q 575 -193 575 -144 q 527 -291 575 -250 q 388 -347 479 -332 l 357 -275 z "},"Ŀ":{"ha":778,"x_min":147,"x_max":742,"o":"m 147 0 m 742 115 l 742 0 l 147 0 l 147 944 l 306 944 l 306 115 l 742 115 m 597 406 q 526 435 556 406 q 497 506 497 465 q 526 576 497 547 q 597 606 556 606 q 668 576 639 606 q 697 506 697 547 q 668 435 697 465 q 597 406 639 406 z "},"Ł":{"ha":778,"x_min":-3,"x_max":742,"o":"m 742 115 l 742 0 l 147 0 l 147 288 l 58 231 l -3 326 l 147 421 l 147 944 l 306 944 l 306 522 l 532 665 l 593 571 l 306 388 l 306 115 l 742 115 z "},"M":{"ha":1233,"x_min":147,"x_max":1086,"o":"m 1086 944 l 1086 0 l 931 0 l 931 310 l 940 697 l 674 286 l 561 286 l 290 701 l 303 310 l 303 0 l 147 0 l 147 944 l 292 944 l 617 447 l 942 944 l 1086 944 z "},"N":{"ha":1090,"x_min":147,"x_max":943,"o":"m 943 944 l 943 0 l 804 -1 l 294 704 l 306 379 l 306 0 l 147 0 l 147 944 l 288 944 l 796 239 l 785 592 l 785 944 l 943 944 z "},"Ń":{"ha":1090,"x_min":147,"x_max":943,"o":"m 147 0 m 943 944 l 943 0 l 804 -1 l 294 704 l 306 379 l 306 0 l 147 0 l 147 944 l 288 944 l 796 239 l 785 592 l 785 944 l 943 944 m 651 1244 l 813 1244 l 604 1028 l 474 1028 l 651 1244 z "},"Ň":{"ha":1090,"x_min":147,"x_max":943,"o":"m 147 0 m 943 944 l 943 0 l 804 -1 l 294 704 l 306 379 l 306 0 l 147 0 l 147 944 l 288 944 l 796 239 l 785 592 l 785 944 l 943 944 m 804 1244 l 621 1028 l 468 1028 l 285 1244 l 428 1244 l 544 1103 l 661 1244 l 804 1244 z "},"Ņ":{"ha":1090,"x_min":147,"x_max":943,"o":"m 147 0 m 943 944 l 943 0 l 804 -1 l 294 704 l 306 379 l 306 0 l 147 0 l 147 944 l 288 944 l 796 239 l 785 592 l 785 944 l 943 944 m 440 -275 q 519 -244 497 -262 q 540 -199 540 -226 q 471 -147 540 -157 l 504 -68 q 622 -110 585 -76 q 658 -193 658 -144 q 610 -291 658 -250 q 471 -347 563 -332 l 440 -275 z "},"Ñ":{"ha":1090,"x_min":147,"x_max":943,"o":"m 147 0 m 943 944 l 943 0 l 804 -1 l 294 704 l 306 379 l 306 0 l 147 0 l 147 944 l 288 944 l 796 239 l 785 592 l 785 944 l 943 944 m 300 1036 q 346 1190 307 1135 q 447 1244 385 1244 q 503 1231 479 1244 q 557 1190 528 1217 q 598 1158 582 1168 q 635 1147 614 1147 q 676 1172 661 1147 q 699 1251 690 1196 l 789 1246 q 742 1094 782 1151 q 642 1036 703 1036 q 581 1051 607 1036 q 525 1093 556 1067 q 486 1124 501 1114 q 454 1133 471 1133 q 414 1110 428 1133 q 390 1031 400 1086 l 300 1036 z "},"O":{"ha":1097,"x_min":74,"x_max":1024,"o":"m 549 -21 q 290 45 397 -21 q 128 223 182 111 q 74 471 74 335 q 128 719 74 607 q 290 897 182 831 q 549 963 397 963 q 808 897 700 963 q 969 719 915 831 q 1024 472 1024 607 q 969 223 1024 335 q 808 45 915 111 q 549 -21 700 -21 m 549 99 q 719 147 649 99 q 827 280 790 196 q 864 471 864 364 q 827 661 864 576 q 719 794 790 746 q 549 843 647 843 q 377 794 449 843 q 269 661 306 746 q 232 471 232 576 q 269 280 232 364 q 377 147 306 196 q 549 99 449 99 z "},"Ó":{"ha":1097,"x_min":74,"x_max":1024,"o":"m 74 0 m 549 -21 q 290 45 397 -21 q 128 223 182 111 q 74 471 74 335 q 128 719 74 607 q 290 897 182 831 q 549 963 397 963 q 808 897 700 963 q 969 719 915 831 q 1024 472 1024 607 q 969 223 1024 335 q 808 45 915 111 q 549 -21 700 -21 m 549 99 q 719 147 649 99 q 827 280 790 196 q 864 471 864 364 q 827 661 864 576 q 719 794 790 746 q 549 843 647 843 q 377 794 449 843 q 269 661 306 746 q 232 471 232 576 q 269 280 232 364 q 377 147 306 196 q 549 99 449 99 m 656 1244 l 817 1244 l 608 1028 l 478 1028 l 656 1244 z "},"Ô":{"ha":1097,"x_min":74,"x_max":1024,"o":"m 74 0 m 549 -21 q 290 45 397 -21 q 128 223 182 111 q 74 471 74 335 q 128 719 74 607 q 290 897 182 831 q 549 963 397 963 q 808 897 700 963 q 969 719 915 831 q 1024 472 1024 607 q 969 223 1024 335 q 808 45 915 111 q 549 -21 700 -21 m 549 99 q 719 147 649 99 q 827 280 790 196 q 864 471 864 364 q 827 661 864 576 q 719 794 790 746 q 549 843 647 843 q 377 794 449 843 q 269 661 306 746 q 232 471 232 576 q 269 280 232 364 q 377 147 306 196 q 549 99 449 99 m 665 1028 l 549 1171 l 432 1028 l 289 1028 l 472 1244 l 625 1244 l 808 1028 l 665 1028 z "},"Ö":{"ha":1097,"x_min":74,"x_max":1024,"o":"m 74 0 m 549 -21 q 290 45 397 -21 q 128 223 182 111 q 74 471 74 335 q 128 719 74 607 q 290 897 182 831 q 549 963 397 963 q 808 897 700 963 q 969 719 915 831 q 1024 472 1024 607 q 969 223 1024 335 q 808 45 915 111 q 549 -21 700 -21 m 549 99 q 719 147 649 99 q 827 280 790 196 q 864 471 864 364 q 827 661 864 576 q 719 794 790 746 q 549 843 647 843 q 377 794 449 843 q 269 661 306 746 q 232 471 232 576 q 269 280 232 364 q 377 147 306 196 q 549 99 449 99 m 399 1057 q 340 1082 365 1057 q 315 1139 315 1107 q 340 1199 315 1174 q 399 1224 364 1224 q 458 1199 433 1224 q 482 1139 482 1174 q 458 1082 482 1107 q 399 1057 433 1057 m 700 1057 q 642 1082 667 1057 q 617 1139 617 1107 q 641 1199 617 1174 q 700 1224 665 1224 q 759 1199 735 1224 q 783 1139 783 1174 q 759 1082 783 1107 q 700 1057 735 1057 z "},"Ò":{"ha":1097,"x_min":74,"x_max":1024,"o":"m 74 0 m 549 -21 q 290 45 397 -21 q 128 223 182 111 q 74 471 74 335 q 128 719 74 607 q 290 897 182 831 q 549 963 397 963 q 808 897 700 963 q 969 719 915 831 q 1024 472 1024 607 q 969 223 1024 335 q 808 45 915 111 q 549 -21 700 -21 m 549 99 q 719 147 649 99 q 827 280 790 196 q 864 471 864 364 q 827 661 864 576 q 719 794 790 746 q 549 843 647 843 q 377 794 449 843 q 269 661 306 746 q 232 471 232 576 q 269 280 232 364 q 377 147 306 196 q 549 99 449 99 m 283 1244 l 444 1244 l 622 1028 l 492 1028 l 283 1244 z "},"Ő":{"ha":1097,"x_min":74,"x_max":1024,"o":"m 74 0 m 549 -21 q 290 45 397 -21 q 128 223 182 111 q 74 471 74 335 q 128 719 74 607 q 290 897 182 831 q 549 963 397 963 q 808 897 700 963 q 969 719 915 831 q 1024 472 1024 607 q 969 223 1024 335 q 808 45 915 111 q 549 -21 700 -21 m 549 99 q 719 147 649 99 q 827 280 790 196 q 864 471 864 364 q 827 661 864 576 q 719 794 790 746 q 549 843 647 843 q 377 794 449 843 q 269 661 306 746 q 232 471 232 576 q 269 280 232 364 q 377 147 306 196 q 549 99 449 99 m 531 1244 l 679 1244 l 471 1028 l 353 1028 l 531 1244 m 794 1244 l 943 1244 l 735 1028 l 617 1028 l 794 1244 z "},"Ō":{"ha":1097,"x_min":74,"x_max":1024,"o":"m 74 0 m 549 -21 q 290 45 397 -21 q 128 223 182 111 q 74 471 74 335 q 128 719 74 607 q 290 897 182 831 q 549 963 397 963 q 808 897 700 963 q 969 719 915 831 q 1024 472 1024 607 q 969 223 1024 335 q 808 45 915 111 q 549 -21 700 -21 m 549 99 q 719 147 649 99 q 827 280 790 196 q 864 471 864 364 q 827 661 864 576 q 719 794 790 746 q 549 843 647 843 q 377 794 449 843 q 269 661 306 746 q 232 471 232 576 q 269 280 232 364 q 377 147 306 196 q 549 99 449 99 m 315 1200 l 782 1200 l 782 1089 l 315 1089 l 315 1200 z "},"Ø":{"ha":1133,"x_min":74,"x_max":1024,"o":"m 915 803 q 996 653 968 738 q 1024 472 1024 568 q 969 223 1024 335 q 808 45 915 111 q 549 -21 700 -21 q 271 58 385 -21 l 167 -62 l 81 13 l 186 135 q 102 287 131 200 q 74 471 74 374 q 128 719 74 607 q 290 897 182 831 q 549 963 397 963 q 832 881 714 963 l 932 997 l 1018 922 l 915 803 m 232 471 q 285 249 232 342 l 742 778 q 549 843 664 843 q 377 794 449 843 q 269 661 306 746 q 232 471 232 576 m 549 99 q 719 147 649 99 q 827 280 790 196 q 864 471 864 364 q 815 688 864 594 l 360 160 q 549 99 436 99 z "},"Õ":{"ha":1097,"x_min":74,"x_max":1024,"o":"m 74 0 m 549 -21 q 290 45 397 -21 q 128 223 182 111 q 74 471 74 335 q 128 719 74 607 q 290 897 182 831 q 549 963 397 963 q 808 897 700 963 q 969 719 915 831 q 1024 472 1024 607 q 969 223 1024 335 q 808 45 915 111 q 549 -21 700 -21 m 549 99 q 719 147 649 99 q 827 280 790 196 q 864 471 864 364 q 827 661 864 576 q 719 794 790 746 q 549 843 647 843 q 377 794 449 843 q 269 661 306 746 q 232 471 232 576 q 269 280 232 364 q 377 147 306 196 q 549 99 449 99 m 304 1036 q 350 1190 311 1135 q 451 1244 389 1244 q 508 1231 483 1244 q 561 1190 532 1217 q 602 1158 586 1168 q 639 1147 618 1147 q 680 1172 665 1147 q 703 1251 694 1196 l 793 1246 q 747 1094 786 1151 q 646 1036 707 1036 q 585 1051 611 1036 q 529 1093 560 1067 q 490 1124 506 1114 q 458 1133 475 1133 q 418 1110 432 1133 q 394 1031 404 1086 l 304 1036 z "},"Œ":{"ha":1401,"x_min":74,"x_max":1325,"o":"m 1325 115 l 1325 0 l 543 0 q 288 61 393 0 q 128 229 182 122 q 74 471 74 336 q 128 716 74 608 q 288 884 182 824 q 543 944 393 944 l 1297 944 l 1297 829 l 889 829 l 889 557 l 1242 557 l 1242 442 l 889 442 l 889 115 l 1325 115 m 731 117 l 731 828 l 543 828 q 314 731 396 828 q 232 472 232 635 q 314 214 232 311 q 543 117 396 117 l 731 117 z "},"P":{"ha":878,"x_min":147,"x_max":836,"o":"m 486 944 q 749 870 661 944 q 836 658 836 796 q 749 444 836 518 q 486 371 663 371 l 306 371 l 306 0 l 147 0 l 147 944 l 486 944 m 486 486 q 631 529 583 488 q 678 658 678 571 q 629 785 678 740 q 486 829 581 829 l 306 829 l 306 486 l 486 486 z "},"Þ":{"ha":932,"x_min":147,"x_max":836,"o":"m 486 772 q 749 699 663 772 q 836 488 836 625 q 749 274 836 347 q 486 200 663 200 l 306 200 l 306 0 l 147 0 l 147 944 l 306 944 l 306 772 l 486 772 m 486 315 q 678 486 678 315 q 629 613 678 568 q 486 657 581 657 l 306 657 l 306 315 l 486 315 z "},"Q":{"ha":1097,"x_min":74,"x_max":1219,"o":"m 1219 -272 q 1133 -317 1174 -303 q 1047 -332 1092 -332 q 761 -192 879 -332 l 614 -17 q 549 -21 583 -21 q 290 45 397 -21 q 128 223 182 111 q 74 471 74 335 q 128 719 74 607 q 290 897 182 831 q 549 963 397 963 q 808 897 700 963 q 969 719 915 831 q 1024 472 1024 607 q 956 199 1024 319 q 763 22 889 79 l 857 -89 q 959 -179 911 -151 q 1054 -207 1007 -207 q 1197 -161 1129 -207 l 1219 -272 m 232 471 q 269 280 232 364 q 377 147 306 196 q 549 99 449 99 q 719 147 649 99 q 827 280 790 196 q 864 471 864 364 q 827 661 864 576 q 719 794 790 746 q 549 843 647 843 q 377 794 449 843 q 269 661 306 746 q 232 471 232 576 z "},"R":{"ha":967,"x_min":147,"x_max":924,"o":"m 468 399 l 306 399 l 306 0 l 147 0 l 147 944 l 479 944 q 736 875 650 944 q 822 679 822 806 q 774 513 822 578 q 628 424 725 449 l 924 0 l 740 0 l 468 399 m 306 514 l 479 514 q 664 672 664 514 q 617 789 664 749 q 479 829 571 829 l 306 829 l 306 514 z "},"Ŕ":{"ha":967,"x_min":147,"x_max":924,"o":"m 147 0 m 468 399 l 306 399 l 306 0 l 147 0 l 147 944 l 479 944 q 736 875 650 944 q 822 679 822 806 q 774 513 822 578 q 628 424 725 449 l 924 0 l 740 0 l 468 399 m 306 514 l 479 514 q 664 672 664 514 q 617 789 664 749 q 479 829 571 829 l 306 829 l 306 514 m 554 1244 l 715 1244 l 507 1028 l 376 1028 l 554 1244 z "},"Ř":{"ha":967,"x_min":147,"x_max":924,"o":"m 147 0 m 468 399 l 306 399 l 306 0 l 147 0 l 147 944 l 479 944 q 736 875 650 944 q 822 679 822 806 q 774 513 822 578 q 628 424 725 449 l 924 0 l 740 0 l 468 399 m 306 514 l 479 514 q 664 672 664 514 q 617 789 664 749 q 479 829 571 829 l 306 829 l 306 514 m 707 1244 l 524 1028 l 371 1028 l 188 1244 l 331 1244 l 447 1103 l 564 1244 l 707 1244 z "},"Ŗ":{"ha":967,"x_min":147,"x_max":924,"o":"m 147 0 m 468 399 l 306 399 l 306 0 l 147 0 l 147 944 l 479 944 q 736 875 650 944 q 822 679 822 806 q 774 513 822 578 q 628 424 725 449 l 924 0 l 740 0 l 468 399 m 306 514 l 479 514 q 664 672 664 514 q 617 789 664 749 q 479 829 571 829 l 306 829 l 306 514 m 385 -275 q 463 -244 442 -262 q 485 -199 485 -226 q 415 -147 485 -157 l 449 -68 q 566 -110 529 -76 q 603 -193 603 -144 q 555 -291 603 -250 q 415 -347 507 -332 l 385 -275 z "},"S":{"ha":829,"x_min":69,"x_max":758,"o":"m 394 -21 q 69 63 201 -21 l 114 175 q 394 99 240 99 q 544 139 485 99 q 603 251 603 179 q 574 326 603 296 q 503 377 546 357 q 389 424 461 397 q 242 484 299 456 q 144 564 185 513 q 104 693 104 615 q 197 892 104 822 q 440 963 290 963 q 728 881 603 963 l 682 769 q 444 843 565 843 q 311 807 363 843 q 260 701 260 771 q 287 631 260 660 q 356 582 314 601 q 469 536 397 563 q 619 472 563 501 q 717 391 676 443 q 758 260 758 339 q 660 54 758 129 q 394 -21 563 -21 z "},"Ś":{"ha":829,"x_min":69,"x_max":758,"o":"m 69 0 m 394 -21 q 69 63 201 -21 l 114 175 q 394 99 240 99 q 544 139 485 99 q 603 251 603 179 q 574 326 603 296 q 503 377 546 357 q 389 424 461 397 q 242 484 299 456 q 144 564 185 513 q 104 693 104 615 q 197 892 104 822 q 440 963 290 963 q 728 881 603 963 l 682 769 q 444 843 565 843 q 311 807 363 843 q 260 701 260 771 q 287 631 260 660 q 356 582 314 601 q 469 536 397 563 q 619 472 563 501 q 717 391 676 443 q 758 260 758 339 q 660 54 758 129 q 394 -21 563 -21 m 532 1244 l 693 1244 l 485 1028 l 354 1028 l 532 1244 z "},"Š":{"ha":829,"x_min":69,"x_max":758,"o":"m 69 0 m 394 -21 q 69 63 201 -21 l 114 175 q 394 99 240 99 q 544 139 485 99 q 603 251 603 179 q 574 326 603 296 q 503 377 546 357 q 389 424 461 397 q 242 484 299 456 q 144 564 185 513 q 104 693 104 615 q 197 892 104 822 q 440 963 290 963 q 728 881 603 963 l 682 769 q 444 843 565 843 q 311 807 363 843 q 260 701 260 771 q 287 631 260 660 q 356 582 314 601 q 469 536 397 563 q 619 472 563 501 q 717 391 676 443 q 758 260 758 339 q 660 54 758 129 q 394 -21 563 -21 m 685 1244 l 501 1028 l 349 1028 l 165 1244 l 308 1244 l 425 1103 l 542 1244 l 685 1244 z "},"Ş":{"ha":829,"x_min":69,"x_max":758,"o":"m 758 260 q 682 73 758 146 q 471 -17 606 0 l 436 -81 l 446 -81 q 530 -108 496 -81 q 564 -178 564 -136 q 514 -275 564 -232 q 356 -333 464 -318 l 326 -262 q 421 -228 396 -246 q 446 -186 446 -210 q 435 -162 446 -171 q 403 -153 424 -153 q 356 -164 385 -153 l 313 -117 l 364 -21 q 69 63 193 -15 l 114 175 q 394 99 240 99 q 544 139 485 99 q 603 251 603 179 q 574 326 603 296 q 503 377 546 357 q 389 424 461 397 q 242 484 299 456 q 144 564 185 513 q 104 693 104 615 q 197 892 104 822 q 440 963 290 963 q 728 881 603 963 l 682 769 q 444 843 565 843 q 311 807 363 843 q 260 701 260 771 q 287 631 260 660 q 356 582 314 601 q 469 536 397 563 q 619 472 563 501 q 717 391 676 443 q 758 260 758 339 z "},"Ș":{"ha":829,"x_min":69,"x_max":758,"o":"m 69 0 m 394 -21 q 69 63 201 -21 l 114 175 q 394 99 240 99 q 544 139 485 99 q 603 251 603 179 q 574 326 603 296 q 503 377 546 357 q 389 424 461 397 q 242 484 299 456 q 144 564 185 513 q 104 693 104 615 q 197 892 104 822 q 440 963 290 963 q 728 881 603 963 l 682 769 q 444 843 565 843 q 311 807 363 843 q 260 701 260 771 q 287 631 260 660 q 356 582 314 601 q 469 536 397 563 q 619 472 563 501 q 717 391 676 443 q 758 260 758 339 q 660 54 758 129 q 394 -21 563 -21 m 324 -275 q 402 -244 381 -262 q 424 -199 424 -226 q 354 -147 424 -157 l 388 -68 q 505 -110 468 -76 q 542 -193 542 -144 q 494 -291 542 -250 q 354 -347 446 -332 l 324 -275 z "},"T":{"ha":849,"x_min":43,"x_max":807,"o":"m 807 828 l 503 828 l 503 0 l 344 0 l 344 828 l 43 828 l 43 944 l 807 944 l 807 828 z "},"Ť":{"ha":849,"x_min":43,"x_max":807,"o":"m 43 0 m 807 828 l 503 828 l 503 0 l 344 0 l 344 828 l 43 828 l 43 944 l 807 944 l 807 828 m 685 1244 l 501 1028 l 349 1028 l 165 1244 l 308 1244 l 425 1103 l 542 1244 l 685 1244 z "},"Ț":{"ha":849,"x_min":43,"x_max":807,"o":"m 43 0 m 807 828 l 503 828 l 503 0 l 344 0 l 344 828 l 43 828 l 43 944 l 807 944 l 807 828 m 321 -275 q 399 -244 378 -262 q 421 -199 421 -226 q 351 -147 421 -157 l 385 -68 q 502 -110 465 -76 q 539 -193 539 -144 q 491 -291 539 -250 q 351 -347 443 -332 l 321 -275 z "},"U":{"ha":1063,"x_min":133,"x_max":929,"o":"m 532 -21 q 236 82 339 -21 q 133 360 133 185 l 133 944 l 292 944 l 292 361 q 353 166 292 233 q 532 99 415 99 q 709 166 647 99 q 771 361 771 233 l 771 944 l 929 944 l 929 363 q 827 83 929 186 q 532 -21 725 -21 z "},"Ú":{"ha":1063,"x_min":133,"x_max":929,"o":"m 133 0 m 532 -21 q 236 82 339 -21 q 133 360 133 185 l 133 944 l 292 944 l 292 361 q 353 166 292 233 q 532 99 415 99 q 709 166 647 99 q 771 361 771 233 l 771 944 l 929 944 l 929 363 q 827 83 929 186 q 532 -21 725 -21 m 639 1244 l 800 1244 l 592 1028 l 461 1028 l 639 1244 z "},"Û":{"ha":1063,"x_min":133,"x_max":929,"o":"m 133 0 m 532 -21 q 236 82 339 -21 q 133 360 133 185 l 133 944 l 292 944 l 292 361 q 353 166 292 233 q 532 99 415 99 q 709 166 647 99 q 771 361 771 233 l 771 944 l 929 944 l 929 363 q 827 83 929 186 q 532 -21 725 -21 m 649 1028 l 532 1171 l 415 1028 l 272 1028 l 456 1244 l 608 1244 l 792 1028 l 649 1028 z "},"Ü":{"ha":1063,"x_min":133,"x_max":929,"o":"m 133 0 m 532 -21 q 236 82 339 -21 q 133 360 133 185 l 133 944 l 292 944 l 292 361 q 353 166 292 233 q 532 99 415 99 q 709 166 647 99 q 771 361 771 233 l 771 944 l 929 944 l 929 363 q 827 83 929 186 q 532 -21 725 -21 m 382 1057 q 324 1082 349 1057 q 299 1139 299 1107 q 323 1199 299 1174 q 382 1224 347 1224 q 441 1199 417 1224 q 465 1139 465 1174 q 441 1082 465 1107 q 382 1057 417 1057 m 683 1057 q 625 1082 650 1057 q 600 1139 600 1107 q 624 1199 600 1174 q 683 1224 649 1224 q 742 1199 718 1224 q 767 1139 767 1174 q 742 1082 767 1107 q 683 1057 718 1057 z "},"Ù":{"ha":1063,"x_min":133,"x_max":929,"o":"m 133 0 m 532 -21 q 236 82 339 -21 q 133 360 133 185 l 133 944 l 292 944 l 292 361 q 353 166 292 233 q 532 99 415 99 q 709 166 647 99 q 771 361 771 233 l 771 944 l 929 944 l 929 363 q 827 83 929 186 q 532 -21 725 -21 m 267 1244 l 428 1244 l 606 1028 l 475 1028 l 267 1244 z "},"Ű":{"ha":1063,"x_min":133,"x_max":929,"o":"m 133 0 m 532 -21 q 236 82 339 -21 q 133 360 133 185 l 133 944 l 292 944 l 292 361 q 353 166 292 233 q 532 99 415 99 q 709 166 647 99 q 771 361 771 233 l 771 944 l 929 944 l 929 363 q 827 83 929 186 q 532 -21 725 -21 m 514 1244 l 663 1244 l 454 1028 l 336 1028 l 514 1244 m 778 1244 l 926 1244 l 718 1028 l 600 1028 l 778 1244 z "},"Ū":{"ha":1063,"x_min":133,"x_max":929,"o":"m 133 0 m 532 -21 q 236 82 339 -21 q 133 360 133 185 l 133 944 l 292 944 l 292 361 q 353 166 292 233 q 532 99 415 99 q 709 166 647 99 q 771 361 771 233 l 771 944 l 929 944 l 929 363 q 827 83 929 186 q 532 -21 725 -21 m 299 1200 l 765 1200 l 765 1089 l 299 1089 l 299 1200 z "},"Ų":{"ha":1063,"x_min":133,"x_max":929,"o":"m 929 944 l 929 363 q 870 136 929 229 q 699 4 811 43 q 567 -185 567 -107 q 583 -227 567 -212 q 625 -242 599 -242 q 717 -197 671 -242 l 764 -279 q 694 -332 739 -310 q 600 -354 649 -354 q 485 -316 528 -354 q 443 -211 443 -278 q 468 -115 443 -164 q 540 -21 493 -65 l 532 -21 q 236 82 339 -21 q 133 360 133 185 l 133 944 l 292 944 l 292 361 q 353 166 292 233 q 532 99 415 99 q 709 166 647 99 q 771 361 771 233 l 771 944 l 929 944 z "},"Ů":{"ha":1063,"x_min":133,"x_max":929,"o":"m 133 0 m 532 -21 q 236 82 339 -21 q 133 360 133 185 l 133 944 l 292 944 l 292 361 q 353 166 292 233 q 532 99 415 99 q 709 166 647 99 q 771 361 771 233 l 771 944 l 929 944 l 929 363 q 827 83 929 186 q 532 -21 725 -21 m 532 1021 q 413 1058 456 1021 q 369 1150 369 1096 q 413 1241 369 1204 q 532 1278 456 1278 q 653 1241 610 1278 q 696 1150 696 1204 q 652 1058 696 1096 q 532 1021 608 1021 m 532 1099 q 576 1113 560 1099 q 592 1150 592 1126 q 576 1188 592 1174 q 532 1201 560 1201 q 488 1188 504 1201 q 471 1150 471 1174 q 488 1113 471 1126 q 532 1099 504 1099 z "},"V":{"ha":951,"x_min":32,"x_max":918,"o":"m 918 944 l 554 -10 l 397 -10 l 32 944 l 193 944 l 476 153 l 760 944 l 918 944 z "},"W":{"ha":1453,"x_min":32,"x_max":1421,"o":"m 1421 944 l 1108 -10 l 953 -10 l 718 739 l 483 -10 l 328 -10 l 32 944 l 193 944 l 408 167 l 646 944 l 792 944 l 1032 165 l 1258 944 l 1421 944 z "},"X":{"ha":993,"x_min":43,"x_max":950,"o":"m 761 0 l 496 386 l 229 0 l 43 0 l 400 488 l 67 944 l 254 944 l 496 586 l 738 944 l 924 944 l 590 490 l 950 0 l 761 0 z "},"Y":{"ha":914,"x_min":29,"x_max":885,"o":"m 536 385 l 536 0 l 378 0 l 378 381 l 29 944 l 200 944 l 457 501 l 717 944 l 885 944 l 536 385 z "},"Ý":{"ha":914,"x_min":29,"x_max":885,"o":"m 29 0 m 536 385 l 536 0 l 378 0 l 378 381 l 29 944 l 200 944 l 457 501 l 717 944 l 885 944 l 536 385 m 564 1244 l 725 1244 l 517 1028 l 386 1028 l 564 1244 z "},"Ÿ":{"ha":914,"x_min":29,"x_max":885,"o":"m 29 0 m 536 385 l 536 0 l 378 0 l 378 381 l 29 944 l 200 944 l 457 501 l 717 944 l 885 944 l 536 385 m 307 1057 q 249 1082 274 1057 q 224 1139 224 1107 q 248 1199 224 1174 q 307 1224 272 1224 q 366 1199 342 1224 q 390 1139 390 1174 q 366 1082 390 1107 q 307 1057 342 1057 m 608 1057 q 550 1082 575 1057 q 525 1139 525 1107 q 549 1199 525 1174 q 608 1224 574 1224 q 667 1199 643 1224 q 692 1139 692 1174 q 667 1082 692 1107 q 608 1057 643 1057 z "},"Z":{"ha":940,"x_min":92,"x_max":876,"o":"m 876 117 l 876 0 l 92 0 l 92 88 l 665 828 l 110 828 l 110 944 l 857 944 l 857 846 l 290 117 l 876 117 z "},"Ź":{"ha":940,"x_min":92,"x_max":876,"o":"m 92 0 m 876 117 l 876 0 l 92 0 l 92 88 l 665 828 l 110 828 l 110 944 l 857 944 l 857 846 l 290 117 l 876 117 m 592 1244 l 753 1244 l 544 1028 l 414 1028 l 592 1244 z "},"Ž":{"ha":940,"x_min":92,"x_max":876,"o":"m 92 0 m 876 117 l 876 0 l 92 0 l 92 88 l 665 828 l 110 828 l 110 944 l 857 944 l 857 846 l 290 117 l 876 117 m 744 1244 l 561 1028 l 408 1028 l 225 1244 l 368 1244 l 485 1103 l 601 1244 l 744 1244 z "},"Ż":{"ha":940,"x_min":92,"x_max":876,"o":"m 92 0 m 876 117 l 876 0 l 92 0 l 92 88 l 665 828 l 110 828 l 110 944 l 857 944 l 857 846 l 290 117 l 876 117 m 485 1057 q 426 1081 450 1057 q 401 1139 401 1106 q 426 1198 401 1174 q 485 1222 450 1222 q 544 1198 519 1222 q 568 1139 568 1174 q 544 1081 568 1106 q 485 1057 519 1057 z "},"a":{"ha":792,"x_min":64,"x_max":772,"o":"m 772 3 q 710 -11 735 -7 q 653 -15 685 -15 q 560 6 597 -15 q 511 81 524 28 q 389 8 449 33 q 267 -17 329 -17 q 121 35 178 -17 q 64 165 64 88 q 104 288 64 240 q 216 367 144 336 q 417 435 288 397 l 506 460 l 506 501 q 476 616 506 574 q 381 658 446 658 q 255 631 315 658 q 118 531 194 603 l 68 631 q 419 776 232 776 q 600 711 542 776 q 658 493 658 646 l 658 156 q 669 112 658 125 q 706 99 681 99 q 764 111 729 99 l 772 3 m 217 181 q 241 117 217 138 q 308 97 265 97 q 400 119 353 97 q 506 183 447 140 l 506 364 l 440 344 q 266 270 315 306 q 217 181 217 235 z "},"á":{"ha":792,"x_min":64,"x_max":772,"o":"m 64 0 m 772 3 q 710 -11 735 -7 q 653 -15 685 -15 q 560 6 597 -15 q 511 81 524 28 q 389 8 449 33 q 267 -17 329 -17 q 121 35 178 -17 q 64 165 64 88 q 104 288 64 240 q 216 367 144 336 q 417 435 288 397 l 506 460 l 506 501 q 476 616 506 574 q 381 658 446 658 q 255 631 315 658 q 118 531 194 603 l 68 631 q 419 776 232 776 q 600 711 542 776 q 658 493 658 646 l 658 156 q 669 112 658 125 q 706 99 681 99 q 764 111 729 99 l 772 3 m 217 181 q 241 117 217 138 q 308 97 265 97 q 400 119 353 97 q 506 183 447 140 l 506 364 l 440 344 q 266 270 315 306 q 217 181 217 235 m 456 1140 l 619 1140 l 440 846 l 321 846 l 456 1140 z "},"ă":{"ha":792,"x_min":64,"x_max":772,"o":"m 64 0 m 772 3 q 710 -11 735 -7 q 653 -15 685 -15 q 560 6 597 -15 q 511 81 524 28 q 389 8 449 33 q 267 -17 329 -17 q 121 35 178 -17 q 64 165 64 88 q 104 288 64 240 q 216 367 144 336 q 417 435 288 397 l 506 460 l 506 501 q 476 616 506 574 q 381 658 446 658 q 255 631 315 658 q 118 531 194 603 l 68 631 q 419 776 232 776 q 600 711 542 776 q 658 493 658 646 l 658 156 q 669 112 658 125 q 706 99 681 99 q 764 111 729 99 l 772 3 m 217 181 q 241 117 217 138 q 308 97 265 97 q 400 119 353 97 q 506 183 447 140 l 506 364 l 440 344 q 266 270 315 306 q 217 181 217 235 m 393 865 q 233 931 292 865 q 174 1118 175 996 l 278 1121 q 311 1005 281 1043 q 393 967 342 967 q 476 1005 446 967 q 510 1121 506 1043 l 613 1118 q 553 931 611 996 q 393 865 496 865 z "},"â":{"ha":792,"x_min":64,"x_max":772,"o":"m 64 0 m 772 3 q 710 -11 735 -7 q 653 -15 685 -15 q 560 6 597 -15 q 511 81 524 28 q 389 8 449 33 q 267 -17 329 -17 q 121 35 178 -17 q 64 165 64 88 q 104 288 64 240 q 216 367 144 336 q 417 435 288 397 l 506 460 l 506 501 q 476 616 506 574 q 381 658 446 658 q 255 631 315 658 q 118 531 194 603 l 68 631 q 419 776 232 776 q 600 711 542 776 q 658 493 658 646 l 658 156 q 669 112 658 125 q 706 99 681 99 q 764 111 729 99 l 772 3 m 217 181 q 241 117 217 138 q 308 97 265 97 q 400 119 353 97 q 506 183 447 140 l 506 364 l 440 344 q 266 270 315 306 q 217 181 217 235 m 500 846 l 393 1035 l 285 846 l 165 846 l 318 1138 l 468 1138 l 621 846 l 500 846 z "},"ä":{"ha":792,"x_min":64,"x_max":772,"o":"m 64 0 m 772 3 q 710 -11 735 -7 q 653 -15 685 -15 q 560 6 597 -15 q 511 81 524 28 q 389 8 449 33 q 267 -17 329 -17 q 121 35 178 -17 q 64 165 64 88 q 104 288 64 240 q 216 367 144 336 q 417 435 288 397 l 506 460 l 506 501 q 476 616 506 574 q 381 658 446 658 q 255 631 315 658 q 118 531 194 603 l 68 631 q 419 776 232 776 q 600 711 542 776 q 658 493 658 646 l 658 156 q 669 112 658 125 q 706 99 681 99 q 764 111 729 99 l 772 3 m 217 181 q 241 117 217 138 q 308 97 265 97 q 400 119 353 97 q 506 183 447 140 l 506 364 l 440 344 q 266 270 315 306 q 217 181 217 235 m 242 951 q 181 978 207 951 q 154 1039 154 1004 q 181 1101 154 1075 q 242 1128 207 1128 q 304 1101 278 1128 q 331 1039 331 1075 q 304 977 331 1003 q 242 951 278 951 m 543 951 q 482 978 508 951 q 456 1039 456 1004 q 482 1101 456 1075 q 543 1128 508 1128 q 606 1101 579 1128 q 632 1039 632 1075 q 606 977 632 1003 q 543 951 579 951 z "},"à":{"ha":792,"x_min":64,"x_max":772,"o":"m 64 0 m 772 3 q 710 -11 735 -7 q 653 -15 685 -15 q 560 6 597 -15 q 511 81 524 28 q 389 8 449 33 q 267 -17 329 -17 q 121 35 178 -17 q 64 165 64 88 q 104 288 64 240 q 216 367 144 336 q 417 435 288 397 l 506 460 l 506 501 q 476 616 506 574 q 381 658 446 658 q 255 631 315 658 q 118 531 194 603 l 68 631 q 419 776 232 776 q 600 711 542 776 q 658 493 658 646 l 658 156 q 669 112 658 125 q 706 99 681 99 q 764 111 729 99 l 772 3 m 217 181 q 241 117 217 138 q 308 97 265 97 q 400 119 353 97 q 506 183 447 140 l 506 364 l 440 344 q 266 270 315 306 q 217 181 217 235 m 164 1139 l 328 1139 l 463 846 l 343 846 l 164 1139 z "},"ā":{"ha":792,"x_min":64,"x_max":772,"o":"m 64 0 m 772 3 q 710 -11 735 -7 q 653 -15 685 -15 q 560 6 597 -15 q 511 81 524 28 q 389 8 449 33 q 267 -17 329 -17 q 121 35 178 -17 q 64 165 64 88 q 104 288 64 240 q 216 367 144 336 q 417 435 288 397 l 506 460 l 506 501 q 476 616 506 574 q 381 658 446 658 q 255 631 315 658 q 118 531 194 603 l 68 631 q 419 776 232 776 q 600 711 542 776 q 658 493 658 646 l 658 156 q 669 112 658 125 q 706 99 681 99 q 764 111 729 99 l 772 3 m 217 181 q 241 117 217 138 q 308 97 265 97 q 400 119 353 97 q 506 183 447 140 l 506 364 l 440 344 q 266 270 315 306 q 217 181 217 235 m 160 1113 l 626 1113 l 626 1001 l 160 1001 l 160 1113 z "},"ą":{"ha":792,"x_min":64,"x_max":772,"o":"m 622 -242 q 714 -197 668 -242 l 761 -279 q 691 -332 736 -310 q 597 -354 646 -354 q 483 -316 525 -354 q 440 -211 440 -278 q 472 -101 440 -157 q 564 4 504 -46 q 511 81 525 25 q 389 8 449 33 q 267 -17 329 -17 q 121 35 178 -17 q 64 165 64 88 q 104 288 64 240 q 216 367 144 336 q 417 435 288 397 l 506 460 l 506 501 q 476 616 506 574 q 381 658 446 658 q 255 631 315 658 q 118 531 194 603 l 68 631 q 419 776 232 776 q 600 711 542 776 q 658 493 658 646 l 658 156 q 669 112 658 125 q 706 99 681 99 q 764 111 729 99 l 772 3 q 674 -15 711 -14 q 564 -185 564 -112 q 580 -227 564 -212 q 622 -242 596 -242 m 217 181 q 241 117 217 138 q 308 97 265 97 q 400 119 353 97 q 506 183 447 140 l 506 364 l 440 344 q 266 270 315 306 q 217 181 217 235 z "},"å":{"ha":792,"x_min":64,"x_max":772,"o":"m 64 0 m 772 3 q 710 -11 735 -7 q 653 -15 685 -15 q 560 6 597 -15 q 511 81 524 28 q 389 8 449 33 q 267 -17 329 -17 q 121 35 178 -17 q 64 165 64 88 q 104 288 64 240 q 216 367 144 336 q 417 435 288 397 l 506 460 l 506 501 q 476 616 506 574 q 381 658 446 658 q 255 631 315 658 q 118 531 194 603 l 68 631 q 419 776 232 776 q 600 711 542 776 q 658 493 658 646 l 658 156 q 669 112 658 125 q 706 99 681 99 q 764 111 729 99 l 772 3 m 217 181 q 241 117 217 138 q 308 97 265 97 q 400 119 353 97 q 506 183 447 140 l 506 364 l 440 344 q 266 270 315 306 q 217 181 217 235 m 393 842 q 264 889 311 842 q 217 999 217 936 q 264 1108 217 1061 q 393 1154 311 1154 q 523 1108 476 1154 q 569 999 569 1061 q 523 889 569 936 q 393 842 476 842 m 393 915 q 450 939 429 915 q 471 999 471 963 q 450 1057 471 1033 q 393 1081 429 1081 q 335 1058 357 1081 q 314 999 314 1035 q 335 939 314 963 q 393 915 357 915 z "},"ã":{"ha":792,"x_min":64,"x_max":772,"o":"m 64 0 m 772 3 q 710 -11 735 -7 q 653 -15 685 -15 q 560 6 597 -15 q 511 81 524 28 q 389 8 449 33 q 267 -17 329 -17 q 121 35 178 -17 q 64 165 64 88 q 104 288 64 240 q 216 367 144 336 q 417 435 288 397 l 506 460 l 506 501 q 476 616 506 574 q 381 658 446 658 q 255 631 315 658 q 118 531 194 603 l 68 631 q 419 776 232 776 q 600 711 542 776 q 658 493 658 646 l 658 156 q 669 112 658 125 q 706 99 681 99 q 764 111 729 99 l 772 3 m 217 181 q 241 117 217 138 q 308 97 265 97 q 400 119 353 97 q 506 183 447 140 l 506 364 l 440 344 q 266 270 315 306 q 217 181 217 235 m 149 901 q 194 1055 156 1000 q 296 1110 233 1110 q 352 1096 328 1110 q 406 1056 376 1082 q 449 1024 433 1033 q 483 1014 464 1014 q 524 1038 510 1014 q 547 1117 539 1061 l 638 1111 q 591 960 631 1017 q 490 903 551 903 q 430 918 456 903 q 374 960 404 933 q 335 989 351 979 q 303 999 319 999 q 263 975 276 999 q 239 896 249 951 l 149 901 z "},"æ":{"ha":1235,"x_min":64,"x_max":1169,"o":"m 876 92 q 1000 121 944 92 q 1113 203 1056 150 l 1163 106 q 1033 11 1101 44 q 875 -22 964 -22 q 695 18 771 -22 q 572 131 619 58 q 419 22 493 61 q 267 -17 344 -17 q 121 35 178 -17 q 64 165 64 88 q 104 288 64 240 q 216 367 144 336 q 417 435 288 397 l 506 460 l 506 501 q 476 616 506 574 q 381 658 446 658 q 255 631 315 658 q 118 531 194 603 l 68 631 q 419 776 232 776 q 540 753 492 776 q 614 676 588 729 q 875 776 710 776 q 1088 700 1008 776 q 1169 488 1168 624 q 1157 394 1169 443 l 658 394 l 658 378 q 713 168 658 244 q 876 92 768 92 m 869 668 q 742 624 792 668 q 672 500 693 579 l 1019 500 l 1019 514 q 975 628 1018 589 q 869 668 932 668 m 308 97 q 410 124 358 97 q 536 207 463 151 q 508 365 511 276 l 440 344 q 266 270 315 306 q 217 181 217 235 q 241 117 217 138 q 308 97 265 97 z "},"b":{"ha":869,"x_min":126,"x_max":807,"o":"m 482 776 q 651 731 578 776 q 766 599 725 686 q 807 390 807 513 q 758 162 807 254 q 627 24 710 69 q 442 -21 544 -21 q 249 39 338 -21 l 228 -1 l 126 -1 l 126 1111 l 279 1111 l 279 711 q 482 776 372 776 m 428 93 q 596 171 542 93 q 650 390 650 249 q 599 597 650 533 q 469 661 547 661 q 370 646 414 661 q 279 596 326 631 l 279 133 q 428 93 347 93 z "},"c":{"ha":736,"x_min":63,"x_max":703,"o":"m 433 -22 q 228 31 311 -22 q 103 174 144 83 q 63 375 63 264 q 104 576 63 485 q 233 722 146 667 q 451 776 321 776 q 578 756 515 776 q 681 700 640 735 l 635 592 q 550 642 599 624 q 451 661 501 661 q 279 584 340 661 q 218 376 218 507 q 275 169 218 246 q 433 92 332 92 q 550 117 499 92 q 651 189 601 143 l 703 92 q 585 10 654 42 q 433 -22 515 -22 z "},"ć":{"ha":736,"x_min":63,"x_max":703,"o":"m 63 0 m 433 -22 q 228 31 311 -22 q 103 174 144 83 q 63 375 63 264 q 104 576 63 485 q 233 722 146 667 q 451 776 321 776 q 578 756 515 776 q 681 700 640 735 l 635 592 q 550 642 599 624 q 451 661 501 661 q 279 584 340 661 q 218 376 218 507 q 275 169 218 246 q 433 92 332 92 q 550 117 499 92 q 651 189 601 143 l 703 92 q 585 10 654 42 q 433 -22 515 -22 m 501 1140 l 665 1140 l 486 846 l 367 846 l 501 1140 z "},"č":{"ha":736,"x_min":63,"x_max":703,"o":"m 63 0 m 433 -22 q 228 31 311 -22 q 103 174 144 83 q 63 375 63 264 q 104 576 63 485 q 233 722 146 667 q 451 776 321 776 q 578 756 515 776 q 681 700 640 735 l 635 592 q 550 642 599 624 q 451 661 501 661 q 279 584 340 661 q 218 376 218 507 q 275 169 218 246 q 433 92 332 92 q 550 117 499 92 q 651 189 601 143 l 703 92 q 585 10 654 42 q 433 -22 515 -22 m 667 1138 l 514 846 l 364 846 l 211 1138 l 331 1138 l 439 949 l 546 1138 l 667 1138 z "},"ç":{"ha":736,"x_min":63,"x_max":703,"o":"m 703 92 q 603 19 661 49 q 478 -19 546 -11 l 444 -81 l 454 -81 q 538 -108 504 -81 q 572 -178 572 -136 q 522 -275 572 -232 q 364 -333 472 -318 l 335 -262 q 429 -228 404 -246 q 454 -186 454 -210 q 443 -162 454 -171 q 411 -153 432 -153 q 364 -164 393 -153 l 321 -117 l 374 -18 q 142 110 222 1 q 63 375 63 219 q 104 576 63 485 q 233 722 146 667 q 451 776 321 776 q 578 756 515 776 q 681 700 640 735 l 635 592 q 550 642 599 624 q 451 661 501 661 q 279 584 340 661 q 218 376 218 507 q 275 169 218 246 q 433 92 332 92 q 550 117 499 92 q 651 189 601 143 l 703 92 z "},"d":{"ha":869,"x_min":63,"x_max":743,"o":"m 743 1111 l 743 0 l 626 0 l 610 61 q 388 -22 510 -22 q 218 23 292 -22 q 103 156 144 68 q 63 367 63 243 q 172 675 63 574 q 460 776 281 776 q 590 757 529 776 l 590 1111 l 743 1111 m 218 367 q 270 158 218 222 q 400 93 322 93 q 499 109 456 93 q 590 160 543 125 l 590 642 q 468 661 539 661 q 280 583 342 661 q 218 367 218 506 z "},"ð":{"ha":904,"x_min":63,"x_max":803,"o":"m 560 949 q 740 701 678 843 q 803 407 803 558 q 757 180 803 278 q 628 29 711 82 q 440 -24 546 -24 q 233 29 318 -24 q 105 170 147 82 q 63 364 63 258 q 106 557 63 469 q 232 697 149 644 q 431 750 315 750 q 572 719 507 750 q 435 889 518 819 l 224 786 l 179 879 l 339 957 q 160 1033 264 1001 l 239 1119 q 468 1019 363 1088 l 661 1113 l 704 1019 l 560 949 m 440 92 q 591 174 535 92 q 647 403 647 256 q 639 515 647 460 q 431 635 563 635 q 274 560 331 635 q 218 364 218 486 q 276 169 218 247 q 440 92 333 92 z "},"ď":{"ha":869,"x_min":63,"x_max":1004,"o":"m 63 0 m 743 1111 l 743 0 l 626 0 l 610 61 q 388 -22 510 -22 q 218 23 292 -22 q 103 156 144 68 q 63 367 63 243 q 172 675 63 574 q 460 776 281 776 q 590 757 529 776 l 590 1111 l 743 1111 m 218 367 q 270 158 218 222 q 400 93 322 93 q 499 109 456 93 q 590 160 543 125 l 590 642 q 468 661 539 661 q 280 583 342 661 q 218 367 218 506 m 801 825 q 860 899 842 858 q 879 994 879 940 q 854 1111 879 1050 l 989 1111 q 1004 1006 1004 1060 q 960 864 1004 929 q 849 764 915 799 l 801 825 z "},"đ":{"ha":869,"x_min":63,"x_max":868,"o":"m 868 871 l 743 871 l 743 0 l 626 0 l 610 61 q 388 -22 510 -22 q 218 23 292 -22 q 103 156 144 68 q 63 367 63 243 q 172 675 63 574 q 460 776 281 776 q 590 757 529 776 l 590 871 l 369 871 l 369 981 l 590 981 l 590 1111 l 743 1111 l 743 981 l 868 981 l 868 871 m 218 367 q 270 158 218 222 q 400 93 322 93 q 499 109 456 93 q 590 160 543 125 l 590 642 q 468 661 539 661 q 280 583 342 661 q 218 367 218 506 z "},"e":{"ha":793,"x_min":63,"x_max":726,"o":"m 433 92 q 558 120 501 92 q 669 201 614 149 l 721 104 q 592 10 661 43 q 433 -22 522 -22 q 228 31 311 -22 q 103 174 144 83 q 63 375 63 264 q 103 581 63 490 q 228 724 144 671 q 433 776 311 776 q 647 700 567 776 q 726 488 726 624 q 715 394 726 446 l 215 394 l 215 378 q 270 168 215 244 q 433 92 325 92 m 426 668 q 299 624 349 668 q 229 500 250 579 l 576 500 l 576 514 q 533 628 576 589 q 426 668 489 668 z "},"é":{"ha":793,"x_min":63,"x_max":726,"o":"m 63 0 m 433 92 q 558 120 501 92 q 669 201 614 149 l 721 104 q 592 10 661 43 q 433 -22 522 -22 q 228 31 311 -22 q 103 174 144 83 q 63 375 63 264 q 103 581 63 490 q 228 724 144 671 q 433 776 311 776 q 647 700 567 776 q 726 488 726 624 q 715 394 726 446 l 215 394 l 215 378 q 270 168 215 244 q 433 92 325 92 m 426 668 q 299 624 349 668 q 229 500 250 579 l 576 500 l 576 514 q 533 628 576 589 q 426 668 489 668 m 481 1140 l 644 1140 l 465 846 l 346 846 l 481 1140 z "},"ě":{"ha":793,"x_min":63,"x_max":726,"o":"m 63 0 m 433 92 q 558 120 501 92 q 669 201 614 149 l 721 104 q 592 10 661 43 q 433 -22 522 -22 q 228 31 311 -22 q 103 174 144 83 q 63 375 63 264 q 103 581 63 490 q 228 724 144 671 q 433 776 311 776 q 647 700 567 776 q 726 488 726 624 q 715 394 726 446 l 215 394 l 215 378 q 270 168 215 244 q 433 92 325 92 m 426 668 q 299 624 349 668 q 229 500 250 579 l 576 500 l 576 514 q 533 628 576 589 q 426 668 489 668 m 646 1138 l 493 846 l 343 846 l 190 1138 l 310 1138 l 418 949 l 525 1138 l 646 1138 z "},"ê":{"ha":793,"x_min":63,"x_max":726,"o":"m 63 0 m 433 92 q 558 120 501 92 q 669 201 614 149 l 721 104 q 592 10 661 43 q 433 -22 522 -22 q 228 31 311 -22 q 103 174 144 83 q 63 375 63 264 q 103 581 63 490 q 228 724 144 671 q 433 776 311 776 q 647 700 567 776 q 726 488 726 624 q 715 394 726 446 l 215 394 l 215 378 q 270 168 215 244 q 433 92 325 92 m 426 668 q 299 624 349 668 q 229 500 250 579 l 576 500 l 576 514 q 533 628 576 589 q 426 668 489 668 m 525 846 l 418 1035 l 310 846 l 190 846 l 343 1138 l 493 1138 l 646 846 l 525 846 z "},"ë":{"ha":793,"x_min":63,"x_max":726,"o":"m 63 0 m 433 92 q 558 120 501 92 q 669 201 614 149 l 721 104 q 592 10 661 43 q 433 -22 522 -22 q 228 31 311 -22 q 103 174 144 83 q 63 375 63 264 q 103 581 63 490 q 228 724 144 671 q 433 776 311 776 q 647 700 567 776 q 726 488 726 624 q 715 394 726 446 l 215 394 l 215 378 q 270 168 215 244 q 433 92 325 92 m 426 668 q 299 624 349 668 q 229 500 250 579 l 576 500 l 576 514 q 533 628 576 589 q 426 668 489 668 m 267 951 q 206 978 232 951 q 179 1039 179 1004 q 206 1101 179 1075 q 267 1128 232 1128 q 329 1101 303 1128 q 356 1039 356 1075 q 329 977 356 1003 q 267 951 303 951 m 568 951 q 507 978 533 951 q 481 1039 481 1004 q 507 1101 481 1075 q 568 1128 533 1128 q 631 1101 604 1128 q 657 1039 657 1075 q 631 977 657 1003 q 568 951 604 951 z "},"ė":{"ha":793,"x_min":63,"x_max":726,"o":"m 63 0 m 433 92 q 558 120 501 92 q 669 201 614 149 l 721 104 q 592 10 661 43 q 433 -22 522 -22 q 228 31 311 -22 q 103 174 144 83 q 63 375 63 264 q 103 581 63 490 q 228 724 144 671 q 433 776 311 776 q 647 700 567 776 q 726 488 726 624 q 715 394 726 446 l 215 394 l 215 378 q 270 168 215 244 q 433 92 325 92 m 426 668 q 299 624 349 668 q 229 500 250 579 l 576 500 l 576 514 q 533 628 576 589 q 426 668 489 668 m 418 951 q 357 978 383 951 q 331 1039 331 1004 q 357 1101 331 1075 q 418 1128 383 1128 q 481 1101 454 1128 q 507 1039 507 1075 q 481 977 507 1003 q 418 951 454 951 z "},"è":{"ha":793,"x_min":63,"x_max":726,"o":"m 63 0 m 433 92 q 558 120 501 92 q 669 201 614 149 l 721 104 q 592 10 661 43 q 433 -22 522 -22 q 228 31 311 -22 q 103 174 144 83 q 63 375 63 264 q 103 581 63 490 q 228 724 144 671 q 433 776 311 776 q 647 700 567 776 q 726 488 726 624 q 715 394 726 446 l 215 394 l 215 378 q 270 168 215 244 q 433 92 325 92 m 426 668 q 299 624 349 668 q 229 500 250 579 l 576 500 l 576 514 q 533 628 576 589 q 426 668 489 668 m 189 1139 l 353 1139 l 488 846 l 368 846 l 189 1139 z "},"ē":{"ha":793,"x_min":63,"x_max":726,"o":"m 63 0 m 433 92 q 558 120 501 92 q 669 201 614 149 l 721 104 q 592 10 661 43 q 433 -22 522 -22 q 228 31 311 -22 q 103 174 144 83 q 63 375 63 264 q 103 581 63 490 q 228 724 144 671 q 433 776 311 776 q 647 700 567 776 q 726 488 726 624 q 715 394 726 446 l 215 394 l 215 378 q 270 168 215 244 q 433 92 325 92 m 426 668 q 299 624 349 668 q 229 500 250 579 l 576 500 l 576 514 q 533 628 576 589 q 426 668 489 668 m 185 1113 l 651 1113 l 651 1001 l 185 1001 l 185 1113 z "},"ę":{"ha":793,"x_min":63,"x_max":726,"o":"m 433 92 q 558 120 501 92 q 669 201 614 149 l 721 104 q 606 17 668 49 q 458 -185 458 -101 q 474 -227 458 -212 q 517 -242 490 -242 q 608 -197 563 -242 l 656 -279 q 585 -332 631 -310 q 492 -354 540 -354 q 377 -316 419 -354 q 335 -211 335 -278 q 359 -115 335 -164 q 431 -22 383 -67 q 227 31 310 -22 q 103 174 144 85 q 63 375 63 264 q 103 581 63 490 q 228 724 144 671 q 433 776 311 776 q 647 700 567 776 q 726 488 726 624 q 715 394 726 446 l 215 394 l 215 378 q 270 168 215 244 q 433 92 325 92 m 426 668 q 299 624 349 668 q 229 500 250 579 l 576 500 l 576 514 q 533 628 576 589 q 426 668 489 668 z "},"f":{"ha":572,"x_min":65,"x_max":561,"o":"m 336 754 l 558 754 l 558 640 l 336 640 l 336 0 l 183 0 l 183 640 l 65 640 l 65 706 l 183 743 l 183 811 q 251 1037 183 958 q 456 1115 318 1115 q 561 1104 501 1115 l 546 993 q 475 1000 507 1000 q 369 952 403 1000 q 336 808 336 904 l 336 754 z "},"g":{"ha":801,"x_min":46,"x_max":790,"o":"m 790 640 l 635 657 q 669 528 669 600 q 638 403 669 460 q 541 311 606 346 q 382 276 476 276 q 297 285 335 276 q 249 235 264 257 q 233 192 233 214 q 253 150 233 163 q 321 138 274 138 l 550 138 q 718 88 658 138 q 778 -46 778 38 q 722 -196 778 -128 q 568 -303 665 -264 q 350 -342 471 -342 q 117 -285 189 -342 q 46 -144 46 -228 q 75 -46 46 -89 q 164 42 104 -3 q 83 158 83 78 q 111 238 83 200 q 200 324 139 276 q 122 411 149 358 q 94 525 94 464 q 126 650 94 593 q 224 742 158 707 q 382 776 289 776 q 513 754 454 776 l 790 754 l 790 640 m 382 385 q 483 424 446 385 q 521 526 521 463 q 484 629 521 590 q 382 668 447 668 q 282 629 319 668 q 244 526 244 590 q 282 424 244 463 q 382 385 319 385 m 632 -68 q 521 19 632 19 l 301 19 l 283 19 q 192 -133 192 -57 q 233 -206 192 -183 q 350 -228 274 -228 q 494 -204 429 -228 q 595 -143 558 -181 q 632 -68 632 -106 z "},"ğ":{"ha":801,"x_min":46,"x_max":790,"o":"m 46 0 m 790 640 l 635 657 q 669 528 669 600 q 638 403 669 460 q 541 311 606 346 q 382 276 476 276 q 297 285 335 276 q 249 235 264 257 q 233 192 233 214 q 253 150 233 163 q 321 138 274 138 l 550 138 q 718 88 658 138 q 778 -46 778 38 q 722 -196 778 -128 q 568 -303 665 -264 q 350 -342 471 -342 q 117 -285 189 -342 q 46 -144 46 -228 q 75 -46 46 -89 q 164 42 104 -3 q 83 158 83 78 q 111 238 83 200 q 200 324 139 276 q 122 411 149 358 q 94 525 94 464 q 126 650 94 593 q 224 742 158 707 q 382 776 289 776 q 513 754 454 776 l 790 754 l 790 640 m 382 385 q 483 424 446 385 q 521 526 521 463 q 484 629 521 590 q 382 668 447 668 q 282 629 319 668 q 244 526 244 590 q 282 424 244 463 q 382 385 319 385 m 632 -68 q 521 19 632 19 l 301 19 l 283 19 q 192 -133 192 -57 q 233 -206 192 -183 q 350 -228 274 -228 q 494 -204 429 -228 q 595 -143 558 -181 q 632 -68 632 -106 m 401 865 q 242 931 300 865 q 182 1118 183 996 l 286 1121 q 319 1005 289 1043 q 401 967 350 967 q 484 1005 454 967 q 518 1121 514 1043 l 621 1118 q 562 931 619 996 q 401 865 504 865 z "},"ģ":{"ha":801,"x_min":46,"x_max":790,"o":"m 46 0 m 790 640 l 635 657 q 669 528 669 600 q 638 403 669 460 q 541 311 606 346 q 382 276 476 276 q 297 285 335 276 q 249 235 264 257 q 233 192 233 214 q 253 150 233 163 q 321 138 274 138 l 550 138 q 718 88 658 138 q 778 -46 778 38 q 722 -196 778 -128 q 568 -303 665 -264 q 350 -342 471 -342 q 117 -285 189 -342 q 46 -144 46 -228 q 75 -46 46 -89 q 164 42 104 -3 q 83 158 83 78 q 111 238 83 200 q 200 324 139 276 q 122 411 149 358 q 94 525 94 464 q 126 650 94 593 q 224 742 158 707 q 382 776 289 776 q 513 754 454 776 l 790 754 l 790 640 m 382 385 q 483 424 446 385 q 521 526 521 463 q 484 629 521 590 q 382 668 447 668 q 282 629 319 668 q 244 526 244 590 q 282 424 244 463 q 382 385 319 385 m 632 -68 q 521 19 632 19 l 301 19 l 283 19 q 192 -133 192 -57 q 233 -206 192 -183 q 350 -228 274 -228 q 494 -204 429 -228 q 595 -143 558 -181 q 632 -68 632 -106 m 449 864 q 331 906 368 872 q 294 989 294 940 q 342 1088 294 1047 q 482 1143 390 1129 l 513 1071 q 434 1040 456 1058 q 413 994 413 1022 q 482 943 413 953 l 449 864 z "},"h":{"ha":872,"x_min":126,"x_max":753,"o":"m 524 776 q 703 708 654 776 q 753 510 753 640 l 753 0 l 600 0 l 600 493 q 574 621 600 583 q 479 658 547 658 q 279 575 388 658 l 279 0 l 126 0 l 126 1111 l 279 1111 l 279 690 q 524 776 406 776 z "},"ħ":{"ha":872,"x_min":1,"x_max":753,"o":"m 524 776 q 703 708 654 776 q 753 510 753 640 l 753 0 l 600 0 l 600 493 q 574 621 600 583 q 479 658 547 658 q 279 575 388 658 l 279 0 l 126 0 l 126 871 l 1 871 l 1 981 l 126 981 l 126 1111 l 279 1111 l 279 981 l 500 981 l 500 871 l 279 871 l 279 690 q 524 776 406 776 z "},"i":{"ha":418,"x_min":114,"x_max":303,"o":"m 208 951 q 142 979 169 951 q 114 1044 114 1007 q 142 1112 114 1083 q 208 1140 169 1140 q 275 1112 247 1140 q 303 1044 303 1083 q 275 979 303 1007 q 208 951 247 951 m 132 754 l 285 754 l 285 0 l 132 0 l 132 754 z "},"ı":{"ha":418,"x_min":132,"x_max":285,"o":"m 132 754 l 285 754 l 285 0 l 132 0 l 132 754 z "},"í":{"ha":418,"x_min":132,"x_max":436,"o":"m 132 0 m 132 754 l 285 754 l 285 0 l 132 0 l 132 754 m 272 1140 l 436 1140 l 257 846 l 138 846 l 272 1140 z "},"î":{"ha":418,"x_min":-18,"x_max":438,"o":"m 0 0 m 132 754 l 285 754 l 285 0 l 132 0 l 132 754 m 317 846 l 210 1035 l 101 846 l -18 846 l 135 1138 l 285 1138 l 438 846 l 317 846 z "},"ï":{"ha":418,"x_min":-29,"x_max":449,"o":"m 0 0 m 132 754 l 285 754 l 285 0 l 132 0 l 132 754 m 58 951 q -3 978 24 951 q -29 1039 -29 1004 q -3 1101 -29 1075 q 58 1128 24 1128 q 121 1101 94 1128 q 147 1039 147 1075 q 121 977 147 1003 q 58 951 94 951 m 360 951 q 299 978 325 951 q 272 1039 272 1004 q 299 1101 272 1075 q 360 1128 325 1128 q 422 1101 396 1128 q 449 1039 449 1075 q 422 977 449 1003 q 360 951 396 951 z "},"ì":{"ha":418,"x_min":-19,"x_max":285,"o":"m 0 0 m 132 754 l 285 754 l 285 0 l 132 0 l 132 754 m -19 1139 l 144 1139 l 279 846 l 160 846 l -19 1139 z "},"ĳ":{"ha":822,"x_min":114,"x_max":718,"o":"m 114 0 m 208 951 q 142 979 169 951 q 114 1044 114 1007 q 142 1112 114 1083 q 208 1140 169 1140 q 275 1112 247 1140 q 303 1044 303 1083 q 275 979 303 1007 q 208 951 247 951 m 132 754 l 285 754 l 285 0 l 132 0 l 132 754 m 624 951 q 557 979 585 951 q 529 1044 529 1007 q 557 1112 529 1083 q 624 1140 585 1140 q 690 1112 663 1140 q 718 1044 718 1083 q 690 979 718 1007 q 624 951 663 951 m 424 -336 q 318 -325 378 -336 l 333 -212 q 404 -219 372 -219 q 510 -172 476 -219 q 543 -29 543 -125 l 543 754 l 697 754 l 697 -32 q 630 -258 697 -179 q 424 -336 563 -336 z "},"ī":{"ha":418,"x_min":-24,"x_max":443,"o":"m 0 0 m 132 754 l 285 754 l 285 0 l 132 0 l 132 754 m -24 1113 l 443 1113 l 443 1001 l -24 1001 l -24 1113 z "},"į":{"ha":418,"x_min":-21,"x_max":303,"o":"m 208 951 q 142 979 169 951 q 114 1044 114 1007 q 142 1112 114 1083 q 208 1140 169 1140 q 275 1112 247 1140 q 303 1044 303 1083 q 275 979 303 1007 q 208 951 247 951 m 161 -242 q 253 -197 207 -242 l 300 -279 q 230 -332 275 -310 q 136 -354 185 -354 q 22 -316 64 -354 q -21 -211 -21 -278 q 17 -92 -21 -153 q 125 21 56 -31 l 132 21 l 132 754 l 285 754 l 285 0 l 229 0 q 103 -185 103 -107 q 119 -227 103 -212 q 161 -242 135 -242 z "},"ĩ":{"ha":418,"x_min":-35,"x_max":454,"o":"m 0 0 m 132 754 l 285 754 l 285 0 l 132 0 l 132 754 m -35 901 q 11 1055 -28 1000 q 113 1110 50 1110 q 169 1096 144 1110 q 222 1056 193 1082 q 265 1024 250 1033 q 300 1014 281 1014 q 341 1038 326 1014 q 364 1117 356 1061 l 454 1111 q 408 960 447 1017 q 307 903 368 903 q 247 918 272 903 q 190 960 221 933 q 152 989 168 979 q 119 999 136 999 q 79 975 93 999 q 56 896 65 951 l -35 901 z "},"j":{"ha":406,"x_min":-100,"x_max":300,"o":"m 206 951 q 139 979 167 951 q 111 1044 111 1007 q 139 1112 111 1083 q 206 1140 167 1140 q 272 1112 244 1140 q 300 1044 300 1083 q 272 979 300 1007 q 206 951 244 951 m 6 -336 q -100 -325 -40 -336 l -85 -212 q -14 -219 -46 -219 q 92 -172 58 -219 q 125 -29 125 -125 l 125 754 l 279 754 l 279 -32 q 212 -258 279 -179 q 6 -336 144 -336 z "},"ȷ":{"ha":406,"x_min":-100,"x_max":279,"o":"m 6 -336 q -100 -325 -40 -336 l -85 -212 q -14 -219 -46 -219 q 92 -172 58 -219 q 125 -29 125 -125 l 125 754 l 279 754 l 279 -32 q 212 -258 279 -179 q 6 -336 144 -336 z "},"ĵ":{"ha":406,"x_min":-100,"x_max":431,"o":"m 0 0 m 6 -336 q -100 -325 -40 -336 l -85 -212 q -14 -219 -46 -219 q 92 -172 58 -219 q 125 -29 125 -125 l 125 754 l 279 754 l 279 -32 q 212 -258 279 -179 q 6 -336 144 -336 m 310 846 l 203 1035 l 94 846 l -25 846 l 128 1138 l 278 1138 l 431 846 l 310 846 z "},"k":{"ha":808,"x_min":126,"x_max":782,"o":"m 126 1111 l 279 1111 l 279 0 l 126 0 l 126 1111 m 782 0 l 610 0 l 296 397 l 296 425 l 568 754 l 731 754 l 443 413 l 782 0 z "},"ķ":{"ha":808,"x_min":126,"x_max":782,"o":"m 126 0 m 126 1111 l 279 1111 l 279 0 l 126 0 l 126 1111 m 782 0 l 610 0 l 296 397 l 296 425 l 568 754 l 731 754 l 443 413 l 782 0 m 322 -275 q 401 -244 379 -262 q 422 -199 422 -226 q 353 -147 422 -157 l 386 -68 q 503 -110 467 -76 q 540 -193 540 -144 q 492 -291 540 -250 q 353 -347 444 -332 l 322 -275 z "},"ĸ":{"ha":878,"x_min":126,"x_max":782,"o":"m 126 754 l 279 754 l 279 0 l 126 0 l 126 754 m 782 0 l 610 0 l 296 397 l 296 425 l 568 754 l 731 754 l 443 413 l 782 0 z "},"l":{"ha":406,"x_min":126,"x_max":279,"o":"m 126 1111 l 279 1111 l 279 0 l 126 0 l 126 1111 z "},"ĺ":{"ha":406,"x_min":126,"x_max":429,"o":"m 126 0 m 126 1111 l 279 1111 l 279 0 l 126 0 l 126 1111 m 265 1433 l 429 1433 l 250 1139 l 131 1139 l 265 1433 z "},"ľ":{"ha":406,"x_min":126,"x_max":540,"o":"m 126 0 m 126 1111 l 279 1111 l 279 0 l 126 0 l 126 1111 m 338 825 q 397 899 378 858 q 415 994 415 940 q 390 1111 415 1050 l 525 1111 q 540 1006 540 1060 q 496 864 540 929 q 385 764 451 799 l 338 825 z "},"ļ":{"ha":406,"x_min":99,"x_max":317,"o":"m 99 0 m 126 1111 l 279 1111 l 279 0 l 126 0 l 126 1111 m 99 -275 q 177 -244 156 -262 q 199 -199 199 -226 q 129 -147 199 -157 l 163 -68 q 280 -110 243 -76 q 317 -193 317 -144 q 269 -291 317 -250 q 129 -347 221 -332 l 99 -275 z "},"ŀ":{"ha":406,"x_min":126,"x_max":506,"o":"m 126 0 m 126 1111 l 279 1111 l 279 0 l 126 0 l 126 1111 m 406 267 q 335 297 364 267 q 306 367 306 326 q 335 438 306 408 q 406 467 364 467 q 476 438 447 467 q 506 367 506 408 q 476 297 506 326 q 406 267 447 267 z "},"ł":{"ha":406,"x_min":-33,"x_max":440,"o":"m 279 558 l 279 0 l 126 0 l 126 449 l 31 381 l -33 469 l 126 585 l 126 1111 l 279 1111 l 279 693 l 375 763 l 440 674 l 279 558 z "},"m":{"ha":1317,"x_min":126,"x_max":1197,"o":"m 975 776 q 1150 708 1103 776 q 1197 510 1197 640 l 1197 0 l 1044 0 l 1044 493 q 1019 621 1044 583 q 932 658 994 658 q 839 637 886 658 q 736 574 792 615 l 735 578 q 738 510 738 536 l 738 0 l 585 0 l 585 493 q 560 621 585 583 q 472 658 535 658 q 279 576 388 658 l 279 0 l 126 0 l 126 754 l 243 754 l 263 681 q 515 776 397 776 q 642 750 594 776 q 711 672 689 724 q 975 776 853 776 z "},"n":{"ha":872,"x_min":126,"x_max":753,"o":"m 522 776 q 703 708 654 776 q 753 510 753 639 l 753 0 l 599 0 l 599 493 q 573 621 599 583 q 479 658 547 658 q 279 576 388 658 l 279 0 l 126 0 l 126 754 l 243 754 l 263 681 q 522 776 399 776 z "},"ń":{"ha":872,"x_min":126,"x_max":753,"o":"m 126 0 m 522 776 q 703 708 654 776 q 753 510 753 639 l 753 0 l 599 0 l 599 493 q 573 621 599 583 q 479 658 547 658 q 279 576 388 658 l 279 0 l 126 0 l 126 754 l 243 754 l 263 681 q 522 776 399 776 m 501 1140 l 665 1140 l 486 846 l 367 846 l 501 1140 z "},"ň":{"ha":872,"x_min":126,"x_max":753,"o":"m 126 0 m 522 776 q 703 708 654 776 q 753 510 753 639 l 753 0 l 599 0 l 599 493 q 573 621 599 583 q 479 658 547 658 q 279 576 388 658 l 279 0 l 126 0 l 126 754 l 243 754 l 263 681 q 522 776 399 776 m 667 1138 l 514 846 l 364 846 l 211 1138 l 331 1138 l 439 949 l 546 1138 l 667 1138 z "},"ņ":{"ha":872,"x_min":126,"x_max":753,"o":"m 126 0 m 522 776 q 703 708 654 776 q 753 510 753 639 l 753 0 l 599 0 l 599 493 q 573 621 599 583 q 479 658 547 658 q 279 576 388 658 l 279 0 l 126 0 l 126 754 l 243 754 l 263 681 q 522 776 399 776 m 335 -275 q 413 -244 392 -262 q 435 -199 435 -226 q 365 -147 435 -157 l 399 -68 q 516 -110 479 -76 q 553 -193 553 -144 q 505 -291 553 -250 q 365 -347 457 -332 l 335 -275 z "},"ñ":{"ha":872,"x_min":126,"x_max":753,"o":"m 126 0 m 522 776 q 703 708 654 776 q 753 510 753 639 l 753 0 l 599 0 l 599 493 q 573 621 599 583 q 479 658 547 658 q 279 576 388 658 l 279 0 l 126 0 l 126 754 l 243 754 l 263 681 q 522 776 399 776 m 194 901 q 240 1055 201 1000 q 342 1110 279 1110 q 398 1096 374 1110 q 451 1056 422 1082 q 494 1024 479 1033 q 529 1014 510 1014 q 570 1038 556 1014 q 593 1117 585 1061 l 683 1111 q 637 960 676 1017 q 536 903 597 903 q 476 918 501 903 q 419 960 450 933 q 381 989 397 979 q 349 999 365 999 q 308 975 322 999 q 285 896 294 951 l 194 901 z "},"o":{"ha":868,"x_min":63,"x_max":804,"o":"m 433 -22 q 229 31 313 -22 q 104 174 146 83 q 63 375 63 264 q 104 581 63 490 q 229 724 146 671 q 433 776 313 776 q 638 722 554 776 q 763 576 721 667 q 804 378 804 486 q 763 178 804 269 q 638 33 721 88 q 433 -22 554 -22 m 435 92 q 595 167 540 92 q 650 376 650 243 q 595 585 650 508 q 435 661 540 661 q 274 585 328 661 q 219 376 219 508 q 274 167 219 243 q 435 92 328 92 z "},"ó":{"ha":868,"x_min":63,"x_max":804,"o":"m 63 0 m 433 -22 q 229 31 313 -22 q 104 174 146 83 q 63 375 63 264 q 104 581 63 490 q 229 724 146 671 q 433 776 313 776 q 638 722 554 776 q 763 576 721 667 q 804 378 804 486 q 763 178 804 269 q 638 33 721 88 q 433 -22 554 -22 m 435 92 q 595 167 540 92 q 650 376 650 243 q 595 585 650 508 q 435 661 540 661 q 274 585 328 661 q 219 376 219 508 q 274 167 219 243 q 435 92 328 92 m 497 1140 l 661 1140 l 482 846 l 363 846 l 497 1140 z "},"ô":{"ha":868,"x_min":63,"x_max":804,"o":"m 63 0 m 433 -22 q 229 31 313 -22 q 104 174 146 83 q 63 375 63 264 q 104 581 63 490 q 229 724 146 671 q 433 776 313 776 q 638 722 554 776 q 763 576 721 667 q 804 378 804 486 q 763 178 804 269 q 638 33 721 88 q 433 -22 554 -22 m 435 92 q 595 167 540 92 q 650 376 650 243 q 595 585 650 508 q 435 661 540 661 q 274 585 328 661 q 219 376 219 508 q 274 167 219 243 q 435 92 328 92 m 542 846 l 435 1035 l 326 846 l 207 846 l 360 1138 l 510 1138 l 663 846 l 542 846 z "},"ö":{"ha":868,"x_min":63,"x_max":804,"o":"m 63 0 m 433 -22 q 229 31 313 -22 q 104 174 146 83 q 63 375 63 264 q 104 581 63 490 q 229 724 146 671 q 433 776 313 776 q 638 722 554 776 q 763 576 721 667 q 804 378 804 486 q 763 178 804 269 q 638 33 721 88 q 433 -22 554 -22 m 435 92 q 595 167 540 92 q 650 376 650 243 q 595 585 650 508 q 435 661 540 661 q 274 585 328 661 q 219 376 219 508 q 274 167 219 243 q 435 92 328 92 m 283 951 q 222 978 249 951 q 196 1039 196 1004 q 222 1101 196 1075 q 283 1128 249 1128 q 346 1101 319 1128 q 372 1039 372 1075 q 346 977 372 1003 q 283 951 319 951 m 585 951 q 524 978 550 951 q 497 1039 497 1004 q 524 1101 497 1075 q 585 1128 550 1128 q 647 1101 621 1128 q 674 1039 674 1075 q 647 977 674 1003 q 585 951 621 951 z "},"ò":{"ha":868,"x_min":63,"x_max":804,"o":"m 63 0 m 433 -22 q 229 31 313 -22 q 104 174 146 83 q 63 375 63 264 q 104 581 63 490 q 229 724 146 671 q 433 776 313 776 q 638 722 554 776 q 763 576 721 667 q 804 378 804 486 q 763 178 804 269 q 638 33 721 88 q 433 -22 554 -22 m 435 92 q 595 167 540 92 q 650 376 650 243 q 595 585 650 508 q 435 661 540 661 q 274 585 328 661 q 219 376 219 508 q 274 167 219 243 q 435 92 328 92 m 206 1139 l 369 1139 l 504 846 l 385 846 l 206 1139 z "},"ő":{"ha":868,"x_min":63,"x_max":804,"o":"m 63 0 m 433 -22 q 229 31 313 -22 q 104 174 146 83 q 63 375 63 264 q 104 581 63 490 q 229 724 146 671 q 433 776 313 776 q 638 722 554 776 q 763 576 721 667 q 804 378 804 486 q 763 178 804 269 q 638 33 721 88 q 433 -22 554 -22 m 435 92 q 595 167 540 92 q 650 376 650 243 q 595 585 650 508 q 435 661 540 661 q 274 585 328 661 q 219 376 219 508 q 274 167 219 243 q 435 92 328 92 m 389 1139 l 533 1139 l 354 846 l 254 846 l 389 1139 m 638 1139 l 782 1139 l 603 846 l 503 846 l 638 1139 z "},"ō":{"ha":868,"x_min":63,"x_max":804,"o":"m 63 0 m 433 -22 q 229 31 313 -22 q 104 174 146 83 q 63 375 63 264 q 104 581 63 490 q 229 724 146 671 q 433 776 313 776 q 638 722 554 776 q 763 576 721 667 q 804 378 804 486 q 763 178 804 269 q 638 33 721 88 q 433 -22 554 -22 m 435 92 q 595 167 540 92 q 650 376 650 243 q 595 585 650 508 q 435 661 540 661 q 274 585 328 661 q 219 376 219 508 q 274 167 219 243 q 435 92 328 92 m 201 1113 l 668 1113 l 668 1001 l 201 1001 l 201 1113 z "},"ø":{"ha":868,"x_min":63,"x_max":804,"o":"m 704 665 q 778 535 753 610 q 804 378 804 461 q 763 178 804 269 q 638 33 721 88 q 433 -22 554 -22 q 225 33 311 -22 l 157 -56 l 86 -7 l 160 89 q 87 217 111 143 q 63 375 63 290 q 104 581 63 490 q 229 724 146 671 q 433 776 313 776 q 640 721 551 776 l 706 807 l 775 758 l 704 665 m 219 376 q 250 208 219 275 l 563 619 q 435 661 510 661 q 274 585 328 661 q 219 376 219 508 m 435 92 q 595 167 540 92 q 650 376 650 243 q 617 550 650 479 l 303 136 q 435 92 354 92 z "},"õ":{"ha":868,"x_min":63,"x_max":804,"o":"m 63 0 m 433 -22 q 229 31 313 -22 q 104 174 146 83 q 63 375 63 264 q 104 581 63 490 q 229 724 146 671 q 433 776 313 776 q 638 722 554 776 q 763 576 721 667 q 804 378 804 486 q 763 178 804 269 q 638 33 721 88 q 433 -22 554 -22 m 435 92 q 595 167 540 92 q 650 376 650 243 q 595 585 650 508 q 435 661 540 661 q 274 585 328 661 q 219 376 219 508 q 274 167 219 243 q 435 92 328 92 m 190 901 q 236 1055 197 1000 q 338 1110 275 1110 q 394 1096 369 1110 q 447 1056 418 1082 q 490 1024 475 1033 q 525 1014 506 1014 q 566 1038 551 1014 q 589 1117 581 1061 l 679 1111 q 633 960 672 1017 q 532 903 593 903 q 472 918 497 903 q 415 960 446 933 q 377 989 393 979 q 344 999 361 999 q 304 975 318 999 q 281 896 290 951 l 190 901 z "},"œ":{"ha":1379,"x_min":63,"x_max":1313,"o":"m 1019 92 q 1143 121 1088 92 q 1256 203 1199 150 l 1307 106 q 1176 10 1244 43 q 1019 -22 1107 -22 q 844 15 919 -22 q 724 117 769 51 q 602 15 675 51 q 433 -22 529 -22 q 229 31 313 -22 q 104 174 146 83 q 63 375 63 264 q 104 580 63 489 q 230 724 146 671 q 433 776 314 776 q 602 740 529 776 q 724 639 675 703 q 844 740 769 704 q 1019 776 919 776 q 1233 700 1153 776 q 1313 488 1313 624 q 1301 394 1313 446 l 801 394 l 801 378 q 856 168 801 244 q 1019 92 911 92 m 1013 668 q 885 624 935 668 q 815 500 836 579 l 1163 500 l 1163 514 q 1119 628 1163 589 q 1013 668 1075 668 m 435 92 q 589 160 535 92 q 649 347 643 228 l 649 375 q 650 404 649 394 q 589 592 643 524 q 435 661 535 661 q 274 585 328 661 q 219 376 219 508 q 274 167 219 243 q 435 92 328 92 z "},"p":{"ha":869,"x_min":126,"x_max":807,"o":"m 482 776 q 651 731 578 776 q 766 597 725 685 q 807 386 807 508 q 698 80 807 182 q 410 -22 589 -22 q 279 -3 340 -22 l 279 -326 l 126 -326 l 126 756 l 243 756 l 260 694 q 482 776 358 776 m 401 92 q 590 170 528 92 q 651 389 651 249 q 599 597 651 533 q 469 660 547 660 q 370 644 414 660 q 279 594 326 629 l 279 113 q 401 92 335 92 z "},"þ":{"ha":869,"x_min":126,"x_max":807,"o":"m 482 776 q 651 731 578 776 q 766 599 725 686 q 807 389 807 511 q 758 160 807 253 q 627 23 710 68 q 442 -22 544 -22 q 279 19 356 -22 l 279 -326 l 126 -326 l 126 1111 l 279 1111 l 279 710 q 482 776 371 776 m 428 92 q 596 169 542 92 q 650 389 650 247 q 599 597 650 533 q 469 660 547 660 q 370 644 414 660 q 279 594 326 629 l 279 133 q 428 92 346 92 z "},"q":{"ha":869,"x_min":63,"x_max":743,"o":"m 743 756 l 743 -329 l 590 -329 l 590 44 q 388 -22 499 -22 q 218 23 292 -22 q 103 155 144 68 q 63 365 63 242 q 111 594 63 501 q 242 731 160 686 q 428 776 325 776 q 622 717 533 776 l 642 756 l 743 756 m 400 93 q 499 109 456 93 q 590 160 543 125 l 590 621 q 442 661 522 661 q 273 583 328 661 q 218 365 218 506 q 270 157 218 221 q 400 93 322 93 z "},"r":{"ha":582,"x_min":126,"x_max":540,"o":"m 540 631 q 413 613 472 631 q 279 543 353 594 l 279 0 l 126 0 l 126 754 l 243 754 l 269 657 q 403 749 339 722 q 540 775 468 775 l 540 631 z "},"ŕ":{"ha":582,"x_min":126,"x_max":550,"o":"m 126 0 m 540 631 q 413 613 472 631 q 279 543 353 594 l 279 0 l 126 0 l 126 754 l 243 754 l 269 657 q 403 749 339 722 q 540 775 468 775 l 540 631 m 386 1140 l 550 1140 l 371 846 l 251 846 l 386 1140 z "},"ř":{"ha":582,"x_min":96,"x_max":551,"o":"m 96 0 m 540 631 q 413 613 472 631 q 279 543 353 594 l 279 0 l 126 0 l 126 754 l 243 754 l 269 657 q 403 749 339 722 q 540 775 468 775 l 540 631 m 551 1138 l 399 846 l 249 846 l 96 1138 l 215 1138 l 324 949 l 431 1138 l 551 1138 z "},"ŗ":{"ha":582,"x_min":96,"x_max":540,"o":"m 96 0 m 540 631 q 413 613 472 631 q 279 543 353 594 l 279 0 l 126 0 l 126 754 l 243 754 l 269 657 q 403 749 339 722 q 540 775 468 775 l 540 631 m 96 -275 q 174 -244 153 -262 q 196 -199 196 -226 q 126 -147 196 -157 l 160 -68 q 277 -110 240 -76 q 314 -193 314 -144 q 266 -291 314 -250 q 126 -347 218 -332 l 96 -275 z "},"s":{"ha":699,"x_min":63,"x_max":636,"o":"m 329 -22 q 63 43 172 -22 l 101 153 q 329 92 204 92 q 441 121 397 92 q 485 204 485 150 q 445 275 485 250 q 319 332 406 300 q 199 382 246 358 q 119 447 151 406 q 86 551 86 488 q 164 719 86 661 q 371 776 242 776 q 610 714 507 776 l 571 604 q 374 661 476 661 q 275 638 313 661 q 238 567 238 614 q 276 497 238 522 q 399 443 315 472 q 522 392 475 417 q 602 324 568 368 q 636 213 636 281 q 554 40 636 103 q 329 -22 472 -22 z "},"ś":{"ha":699,"x_min":63,"x_max":636,"o":"m 63 0 m 329 -22 q 63 43 172 -22 l 101 153 q 329 92 204 92 q 441 121 397 92 q 485 204 485 150 q 445 275 485 250 q 319 332 406 300 q 199 382 246 358 q 119 447 151 406 q 86 551 86 488 q 164 719 86 661 q 371 776 242 776 q 610 714 507 776 l 571 604 q 374 661 476 661 q 275 638 313 661 q 238 567 238 614 q 276 497 238 522 q 399 443 315 472 q 522 392 475 417 q 602 324 568 368 q 636 213 636 281 q 554 40 636 103 q 329 -22 472 -22 m 421 1140 l 585 1140 l 406 846 l 286 846 l 421 1140 z "},"š":{"ha":699,"x_min":63,"x_max":636,"o":"m 63 0 m 329 -22 q 63 43 172 -22 l 101 153 q 329 92 204 92 q 441 121 397 92 q 485 204 485 150 q 445 275 485 250 q 319 332 406 300 q 199 382 246 358 q 119 447 151 406 q 86 551 86 488 q 164 719 86 661 q 371 776 242 776 q 610 714 507 776 l 571 604 q 374 661 476 661 q 275 638 313 661 q 238 567 238 614 q 276 497 238 522 q 399 443 315 472 q 522 392 475 417 q 602 324 568 368 q 636 213 636 281 q 554 40 636 103 q 329 -22 472 -22 m 586 1138 l 433 846 l 283 846 l 131 1138 l 250 1138 l 358 949 l 465 1138 l 586 1138 z "},"ş":{"ha":699,"x_min":63,"x_max":636,"o":"m 636 213 q 567 51 636 113 q 376 -21 499 -11 l 344 -81 l 354 -81 q 438 -108 404 -81 q 472 -178 472 -136 q 422 -275 472 -232 q 264 -333 372 -318 l 235 -262 q 329 -228 304 -246 q 354 -186 354 -210 q 343 -162 354 -171 q 311 -153 332 -153 q 264 -164 293 -153 l 221 -117 l 272 -19 q 63 43 150 -10 l 101 153 q 329 92 204 92 q 441 121 397 92 q 485 204 485 150 q 445 275 485 250 q 319 332 406 300 q 199 382 246 358 q 119 447 151 406 q 86 551 86 488 q 164 719 86 661 q 371 776 242 776 q 610 714 507 776 l 571 604 q 374 661 476 661 q 275 638 313 661 q 238 567 238 614 q 276 497 238 522 q 399 443 315 472 q 522 392 475 417 q 602 324 568 368 q 636 213 636 281 z "},"ș":{"ha":699,"x_min":63,"x_max":636,"o":"m 63 0 m 329 -22 q 63 43 172 -22 l 101 153 q 329 92 204 92 q 441 121 397 92 q 485 204 485 150 q 445 275 485 250 q 319 332 406 300 q 199 382 246 358 q 119 447 151 406 q 86 551 86 488 q 164 719 86 661 q 371 776 242 776 q 610 714 507 776 l 571 604 q 374 661 476 661 q 275 638 313 661 q 238 567 238 614 q 276 497 238 522 q 399 443 315 472 q 522 392 475 417 q 602 324 568 368 q 636 213 636 281 q 554 40 636 103 q 329 -22 472 -22 m 232 -275 q 310 -244 289 -262 q 332 -199 332 -226 q 263 -147 332 -157 l 296 -68 q 413 -110 376 -76 q 450 -193 450 -144 q 402 -291 450 -250 q 263 -347 354 -332 l 232 -275 z "},"ß":{"ha":892,"x_min":126,"x_max":829,"o":"m 560 -22 q 346 26 439 -22 l 383 136 q 551 92 467 92 q 644 121 610 92 q 679 204 679 150 q 649 278 679 250 q 556 344 618 307 q 470 399 503 375 q 415 463 438 424 q 392 557 392 501 q 422 669 392 624 q 510 765 453 714 q 576 834 554 806 q 597 900 597 863 q 561 974 597 949 q 458 1000 525 1000 q 279 804 279 1000 l 279 0 l 126 0 l 126 807 q 213 1035 126 954 q 465 1115 300 1115 q 674 1059 599 1115 q 749 903 749 1003 q 718 799 749 842 q 631 704 688 756 q 563 635 585 663 q 542 572 542 607 q 569 510 542 535 q 654 449 596 485 q 744 389 710 415 q 804 318 779 363 q 829 211 829 274 q 792 88 829 142 q 694 6 756 35 q 560 -22 632 -22 z "},"t":{"ha":614,"x_min":36,"x_max":572,"o":"m 572 33 q 401 -15 494 -15 q 215 49 276 -15 q 154 235 154 114 l 154 640 l 36 640 l 36 706 l 169 749 l 215 936 l 307 936 l 307 754 l 529 754 l 529 640 l 307 640 l 307 264 q 335 138 307 176 q 425 100 363 100 q 485 110 457 101 q 546 136 513 118 l 572 33 z "},"ť":{"ha":614,"x_min":36,"x_max":572,"o":"m 36 0 m 572 33 q 401 -15 494 -15 q 215 49 276 -15 q 154 235 154 114 l 154 640 l 36 640 l 36 706 l 169 749 l 215 936 l 307 936 l 307 754 l 529 754 l 529 640 l 307 640 l 307 264 q 335 138 307 176 q 425 100 363 100 q 485 110 457 101 q 546 136 513 118 l 572 33 m 358 886 q 417 960 399 919 q 436 1056 436 1001 q 411 1172 436 1111 l 546 1172 q 561 1067 561 1121 q 517 925 561 990 q 406 825 472 860 l 358 886 z "},"ț":{"ha":614,"x_min":36,"x_max":572,"o":"m 36 0 m 572 33 q 401 -15 494 -15 q 215 49 276 -15 q 154 235 154 114 l 154 640 l 36 640 l 36 706 l 169 749 l 215 936 l 307 936 l 307 754 l 529 754 l 529 640 l 307 640 l 307 264 q 335 138 307 176 q 425 100 363 100 q 485 110 457 101 q 546 136 513 118 l 572 33 m 254 -275 q 333 -244 311 -262 q 354 -199 354 -226 q 285 -147 354 -157 l 318 -68 q 435 -110 399 -76 q 472 -193 472 -144 q 424 -291 472 -250 q 285 -347 376 -332 l 254 -275 z "},"u":{"ha":872,"x_min":119,"x_max":746,"o":"m 746 754 l 746 0 l 629 0 l 610 72 q 349 -22 475 -22 q 169 46 218 -22 q 119 244 119 114 l 119 754 l 272 754 l 272 260 q 299 133 272 171 q 393 94 325 94 q 593 178 485 94 l 593 754 l 746 754 z "},"ú":{"ha":872,"x_min":119,"x_max":746,"o":"m 119 0 m 746 754 l 746 0 l 629 0 l 610 72 q 349 -22 475 -22 q 169 46 218 -22 q 119 244 119 114 l 119 754 l 272 754 l 272 260 q 299 133 272 171 q 393 94 325 94 q 593 178 485 94 l 593 754 l 746 754 m 496 1140 l 660 1140 l 481 846 l 361 846 l 496 1140 z "},"û":{"ha":872,"x_min":119,"x_max":746,"o":"m 119 0 m 746 754 l 746 0 l 629 0 l 610 72 q 349 -22 475 -22 q 169 46 218 -22 q 119 244 119 114 l 119 754 l 272 754 l 272 260 q 299 133 272 171 q 393 94 325 94 q 593 178 485 94 l 593 754 l 746 754 m 540 846 l 433 1035 l 325 846 l 206 846 l 358 1138 l 508 1138 l 661 846 l 540 846 z "},"ü":{"ha":872,"x_min":119,"x_max":746,"o":"m 119 0 m 746 754 l 746 0 l 629 0 l 610 72 q 349 -22 475 -22 q 169 46 218 -22 q 119 244 119 114 l 119 754 l 272 754 l 272 260 q 299 133 272 171 q 393 94 325 94 q 593 178 485 94 l 593 754 l 746 754 m 282 951 q 221 978 247 951 q 194 1039 194 1004 q 221 1101 194 1075 q 282 1128 247 1128 q 344 1101 318 1128 q 371 1039 371 1075 q 344 977 371 1003 q 282 951 318 951 m 583 951 q 522 978 549 951 q 496 1039 496 1004 q 522 1101 496 1075 q 583 1128 549 1128 q 646 1101 619 1128 q 672 1039 672 1075 q 646 977 672 1003 q 583 951 619 951 z "},"ù":{"ha":872,"x_min":119,"x_max":746,"o":"m 119 0 m 746 754 l 746 0 l 629 0 l 610 72 q 349 -22 475 -22 q 169 46 218 -22 q 119 244 119 114 l 119 754 l 272 754 l 272 260 q 299 133 272 171 q 393 94 325 94 q 593 178 485 94 l 593 754 l 746 754 m 204 1139 l 368 1139 l 503 846 l 383 846 l 204 1139 z "},"ű":{"ha":872,"x_min":119,"x_max":781,"o":"m 119 0 m 746 754 l 746 0 l 629 0 l 610 72 q 349 -22 475 -22 q 169 46 218 -22 q 119 244 119 114 l 119 754 l 272 754 l 272 260 q 299 133 272 171 q 393 94 325 94 q 593 178 485 94 l 593 754 l 746 754 m 388 1139 l 532 1139 l 353 846 l 253 846 l 388 1139 m 636 1139 l 781 1139 l 601 846 l 501 846 l 636 1139 z "},"ū":{"ha":872,"x_min":119,"x_max":746,"o":"m 119 0 m 746 754 l 746 0 l 629 0 l 610 72 q 349 -22 475 -22 q 169 46 218 -22 q 119 244 119 114 l 119 754 l 272 754 l 272 260 q 299 133 272 171 q 393 94 325 94 q 593 178 485 94 l 593 754 l 746 754 m 200 1113 l 667 1113 l 667 1001 l 200 1001 l 200 1113 z "},"ų":{"ha":872,"x_min":119,"x_max":800,"o":"m 800 -279 q 730 -332 775 -310 q 636 -354 685 -354 q 522 -316 564 -354 q 479 -211 479 -278 q 517 -93 479 -153 q 624 19 554 -33 l 610 72 q 349 -22 475 -22 q 169 46 218 -22 q 119 244 119 114 l 119 754 l 272 754 l 272 260 q 299 133 272 171 q 393 94 325 94 q 593 178 485 94 l 593 754 l 746 754 l 746 21 l 754 21 l 746 14 l 746 0 l 729 0 q 603 -185 603 -107 q 619 -227 603 -212 q 661 -242 635 -242 q 753 -197 707 -242 l 800 -279 z "},"ů":{"ha":872,"x_min":119,"x_max":746,"o":"m 119 0 m 746 754 l 746 0 l 629 0 l 610 72 q 349 -22 475 -22 q 169 46 218 -22 q 119 244 119 114 l 119 754 l 272 754 l 272 260 q 299 133 272 171 q 393 94 325 94 q 593 178 485 94 l 593 754 l 746 754 m 433 842 q 304 889 351 842 q 257 999 257 936 q 304 1108 257 1061 q 433 1154 351 1154 q 563 1108 517 1154 q 610 999 610 1061 q 563 889 610 936 q 433 842 517 842 m 433 915 q 490 939 469 915 q 511 999 511 963 q 490 1057 511 1033 q 433 1081 469 1081 q 376 1058 397 1081 q 354 999 354 1035 q 376 939 354 963 q 433 915 397 915 z "},"v":{"ha":769,"x_min":19,"x_max":750,"o":"m 750 754 l 457 -10 l 313 -10 l 19 754 l 176 754 l 386 160 l 594 754 l 750 754 z "},"w":{"ha":1154,"x_min":21,"x_max":1132,"o":"m 1132 754 l 894 -10 l 751 -10 l 578 581 l 403 -10 l 260 -10 l 21 754 l 178 754 l 332 165 l 507 754 l 649 754 l 825 163 l 978 754 l 1132 754 z "},"x":{"ha":808,"x_min":25,"x_max":783,"o":"m 610 0 l 403 299 l 196 0 l 25 0 l 313 392 l 50 754 l 222 754 l 404 482 l 586 754 l 756 754 l 493 394 l 783 0 l 610 0 z "},"y":{"ha":786,"x_min":21,"x_max":767,"o":"m 767 754 l 442 -103 q 320 -290 394 -232 q 140 -347 246 -347 q 21 -328 75 -347 l 36 -210 q 126 -225 89 -225 q 247 -183 199 -225 q 336 -33 296 -140 l 338 -29 l 35 754 l 192 754 l 406 164 l 613 754 l 767 754 z "},"ý":{"ha":786,"x_min":21,"x_max":767,"o":"m 21 0 m 767 754 l 442 -103 q 320 -290 394 -232 q 140 -347 246 -347 q 21 -328 75 -347 l 36 -210 q 126 -225 89 -225 q 247 -183 199 -225 q 336 -33 296 -140 l 338 -29 l 35 754 l 192 754 l 406 164 l 613 754 l 767 754 m 465 1140 l 629 1140 l 450 846 l 331 846 l 465 1140 z "},"ÿ":{"ha":786,"x_min":21,"x_max":767,"o":"m 21 0 m 767 754 l 442 -103 q 320 -290 394 -232 q 140 -347 246 -347 q 21 -328 75 -347 l 36 -210 q 126 -225 89 -225 q 247 -183 199 -225 q 336 -33 296 -140 l 338 -29 l 35 754 l 192 754 l 406 164 l 613 754 l 767 754 m 251 951 q 190 978 217 951 q 164 1039 164 1004 q 190 1101 164 1075 q 251 1128 217 1128 q 314 1101 288 1128 q 340 1039 340 1075 q 314 977 340 1003 q 251 951 288 951 m 553 951 q 492 978 518 951 q 465 1039 465 1004 q 492 1101 465 1075 q 553 1128 518 1128 q 615 1101 589 1128 q 642 1039 642 1075 q 615 977 642 1003 q 553 951 589 951 z "},"z":{"ha":724,"x_min":53,"x_max":668,"o":"m 668 113 l 668 0 l 53 0 l 53 82 l 476 640 l 69 640 l 69 754 l 654 754 l 654 667 l 232 113 l 668 113 z "},"ź":{"ha":724,"x_min":53,"x_max":668,"o":"m 53 0 m 668 113 l 668 0 l 53 0 l 53 82 l 476 640 l 69 640 l 69 754 l 654 754 l 654 667 l 232 113 l 668 113 m 428 1140 l 592 1140 l 413 846 l 293 846 l 428 1140 z "},"ž":{"ha":724,"x_min":53,"x_max":668,"o":"m 53 0 m 668 113 l 668 0 l 53 0 l 53 82 l 476 640 l 69 640 l 69 754 l 654 754 l 654 667 l 232 113 l 668 113 m 593 1138 l 440 846 l 290 846 l 138 1138 l 257 1138 l 365 949 l 472 1138 l 593 1138 z "},"ż":{"ha":724,"x_min":53,"x_max":668,"o":"m 53 0 m 668 113 l 668 0 l 53 0 l 53 82 l 476 640 l 69 640 l 69 754 l 654 754 l 654 667 l 232 113 l 668 113 m 365 951 q 304 978 331 951 q 278 1039 278 1004 q 304 1101 278 1075 q 365 1128 331 1128 q 428 1101 401 1128 q 454 1039 454 1075 q 428 977 454 1003 q 365 951 401 951 z "},"ﬁ":{"ha":990,"x_min":65,"x_max":875,"o":"m 65 0 m 336 754 l 558 754 l 558 640 l 336 640 l 336 0 l 183 0 l 183 640 l 65 640 l 65 706 l 183 743 l 183 811 q 251 1037 183 958 q 456 1115 318 1115 q 561 1104 501 1115 l 546 993 q 475 1000 507 1000 q 369 952 403 1000 q 336 808 336 904 l 336 754 m 781 951 q 714 979 742 951 q 686 1044 686 1007 q 714 1112 686 1083 q 781 1140 742 1140 q 847 1112 819 1140 q 875 1044 875 1083 q 847 979 875 1007 q 781 951 819 951 m 704 754 l 857 754 l 857 0 l 704 0 l 704 754 z "},"ﬂ":{"ha":978,"x_min":65,"x_max":851,"o":"m 65 0 m 336 754 l 558 754 l 558 640 l 336 640 l 336 0 l 183 0 l 183 640 l 65 640 l 65 706 l 183 743 l 183 811 q 251 1037 183 958 q 456 1115 318 1115 q 561 1104 501 1115 l 546 993 q 475 1000 507 1000 q 369 952 403 1000 q 336 808 336 904 l 336 754 m 699 1111 l 851 1111 l 851 0 l 699 0 l 699 1111 z "},"ª":{"ha":531,"x_min":38,"x_max":514,"o":"m 38 589 q 70 680 38 644 q 162 740 103 715 q 324 790 221 764 l 324 810 q 308 869 324 846 q 250 892 293 892 q 168 875 208 892 q 79 818 128 858 l 38 894 q 282 986 153 986 q 417 941 375 986 q 458 796 458 896 l 458 608 q 463 586 458 593 q 479 579 467 579 q 506 588 492 579 l 514 488 q 432 475 472 475 q 329 535 349 475 q 251 490 289 506 q 169 474 214 474 q 74 507 111 474 q 38 589 38 540 m 174 604 q 186 576 174 586 q 219 567 199 567 q 324 617 260 567 l 324 714 q 207 663 240 686 q 174 604 174 640 m 39 360 l 499 360 l 499 254 l 39 254 l 39 360 z "},"º":{"ha":565,"x_min":35,"x_max":531,"o":"m 35 729 q 63 858 35 799 q 146 953 90 917 q 282 989 201 989 q 419 953 363 989 q 503 858 475 917 q 531 732 531 800 q 503 602 531 661 q 419 507 475 543 q 282 471 363 471 q 146 506 201 471 q 63 601 90 542 q 35 729 35 660 m 393 731 q 366 849 393 807 q 282 892 339 892 q 198 849 225 892 q 171 731 171 807 q 198 612 171 654 q 282 569 225 569 q 366 612 339 569 q 393 731 393 654 m 511 360 l 511 254 l 54 254 l 54 360 l 511 360 z "},"Ω":{"ha":1119,"x_min":72,"x_max":1049,"o":"m 1044 521 q 824 119 1044 299 l 824 115 l 1049 115 l 1049 0 l 628 0 l 628 100 q 824 306 761 207 q 886 522 886 406 q 845 690 886 617 q 730 806 804 764 q 560 847 656 847 q 390 806 464 847 q 276 690 317 764 q 235 522 235 615 q 297 306 235 406 q 493 100 360 207 l 493 0 l 72 0 l 72 115 l 299 115 l 299 119 q 76 521 76 301 q 135 748 76 647 q 304 907 194 849 q 560 965 414 965 q 817 907 707 965 q 985 748 926 849 q 1044 521 1044 647 z "},"μ":{"ha":875,"x_min":122,"x_max":749,"o":"m 749 754 l 749 0 l 632 0 l 613 72 q 351 -22 478 -22 q 249 -4 289 -22 l 275 -329 l 122 -329 l 122 754 l 275 754 l 275 260 q 301 133 275 171 q 396 94 328 94 q 596 178 488 94 l 596 754 l 749 754 z "},"π":{"ha":954,"x_min":42,"x_max":885,"o":"m 885 14 q 746 -15 821 -15 q 624 26 667 -15 q 581 160 581 68 l 581 640 l 371 640 l 310 0 l 157 0 l 218 640 l 42 640 l 42 754 l 876 754 l 876 640 l 733 640 l 733 176 q 748 119 733 138 q 793 101 763 101 q 828 106 813 101 q 868 121 843 110 l 885 14 z "},"ॲ":{"ha":1125,"x_min":0,"x_max":1225,"o":"m 0 0 m 1125 793 l 981 793 l 981 0 l 839 0 l 839 361 q 776 340 813 349 q 703 331 740 331 q 644 335 674 331 q 656 264 656 301 q 622 144 656 197 q 525 60 588 90 q 381 29 463 29 q 0 313 140 29 l 81 392 q 215 212 139 278 q 376 146 290 146 q 476 183 439 146 q 514 278 514 219 q 433 433 514 365 q 289 411 364 415 l 256 528 q 439 571 385 533 q 493 682 493 608 q 458 775 493 738 q 363 813 424 813 q 171 729 279 813 l 110 836 q 360 931 236 931 q 495 900 432 931 q 597 809 558 869 q 635 665 635 749 q 543 485 635 551 q 617 459 574 469 q 703 449 661 449 q 839 486 783 449 l 839 793 l 664 793 l 664 908 l 1125 908 l 1125 793 m 910 1015 q 722 1069 806 1015 q 593 1208 639 1124 l 685 1274 q 910 1132 772 1132 q 1135 1274 1047 1132 l 1225 1208 q 1096 1069 1178 1122 q 910 1015 1014 1015 z "},"ऄ":{"ha":1125,"x_min":0,"x_max":1125,"o":"m 1125 793 l 981 793 l 981 0 l 839 0 l 839 361 q 776 340 813 349 q 703 331 740 331 q 644 335 674 331 q 656 264 656 301 q 622 144 656 197 q 525 60 588 90 q 381 29 463 29 q 0 313 140 29 l 81 392 q 215 212 139 278 q 376 146 290 146 q 476 183 439 146 q 514 278 514 219 q 433 433 514 365 q 289 411 364 415 l 256 528 q 439 571 385 533 q 493 682 493 608 q 458 775 493 738 q 363 813 424 813 q 171 729 279 813 l 110 836 q 360 931 236 931 q 495 900 432 931 q 597 809 558 869 q 635 665 635 749 q 543 485 635 551 q 617 459 574 469 q 703 449 661 449 q 839 486 783 449 l 839 793 l 664 793 l 664 908 l 851 908 q 854 944 854 931 q 823 1035 854 999 q 718 1072 792 1072 q 567 1064 669 1072 q 425 1056 469 1056 q 274 1097 328 1056 q 221 1214 221 1138 q 233 1288 221 1250 q 265 1354 246 1326 l 393 1324 q 361 1236 361 1281 q 379 1188 361 1204 q 439 1172 397 1172 q 581 1181 486 1172 q 718 1189 675 1189 q 924 1122 853 1189 q 994 943 994 1054 q 992 908 994 933 l 1125 908 l 1125 793 z "},"अ":{"ha":1125,"x_min":0,"x_max":1125,"o":"m 1125 793 l 981 793 l 981 0 l 839 0 l 839 361 q 776 340 813 349 q 703 331 740 331 q 644 335 674 331 q 656 264 656 301 q 622 144 656 197 q 525 60 588 90 q 381 29 463 29 q 0 313 140 29 l 81 392 q 215 212 139 278 q 376 146 290 146 q 476 183 439 146 q 514 278 514 219 q 433 433 514 365 q 289 411 364 415 l 256 528 q 439 571 385 533 q 493 682 493 608 q 458 775 493 738 q 363 813 424 813 q 171 729 279 813 l 110 836 q 360 931 236 931 q 495 900 432 931 q 597 809 558 869 q 635 665 635 749 q 543 485 635 551 q 617 459 574 469 q 703 449 661 449 q 839 486 783 449 l 839 793 l 664 793 l 664 908 l 1125 908 l 1125 793 z "},"आ":{"ha":1557,"x_min":0,"x_max":1557,"o":"m 1557 793 l 1411 793 l 1411 0 l 1269 0 l 1269 793 l 981 793 l 981 0 l 839 0 l 839 361 q 776 340 813 349 q 703 331 740 331 q 644 335 674 331 q 656 264 656 301 q 622 144 656 197 q 525 60 588 90 q 381 29 463 29 q 0 313 140 29 l 81 392 q 215 212 139 278 q 376 146 290 146 q 476 183 439 146 q 514 278 514 219 q 433 433 514 365 q 289 411 364 415 l 256 528 q 439 571 385 533 q 493 682 493 608 q 458 775 493 738 q 363 813 424 813 q 171 729 279 813 l 110 836 q 360 931 236 931 q 495 900 432 931 q 597 809 558 869 q 635 665 635 749 q 543 485 635 551 q 617 459 574 469 q 703 449 661 449 q 839 486 783 449 l 839 793 l 664 793 l 664 908 l 1557 908 l 1557 793 z "},"इ":{"ha":714,"x_min":-28,"x_max":714,"o":"m 285 572 q 238 553 256 572 q 221 500 221 533 q 248 442 221 463 q 325 421 275 421 q 435 435 375 421 q 544 471 496 449 q 623 378 590 436 q 656 258 656 321 q 578 90 656 158 q 385 8 501 21 l 515 -186 l 392 -254 l 254 13 q 130 59 178 25 q 82 136 82 93 q 122 208 82 179 q 229 239 161 238 l 306 125 q 326 124 314 124 q 461 162 408 124 q 514 254 514 200 q 486 333 514 294 q 328 304 401 304 q 143 361 206 304 q 81 506 81 418 q 131 635 81 583 q 269 688 181 688 l 428 688 l 428 793 l -28 793 l -28 908 l 714 908 l 714 793 l 567 793 l 567 572 l 285 572 z "},"ई":{"ha":714,"x_min":-28,"x_max":714,"o":"m 285 572 q 238 553 256 572 q 221 500 221 533 q 248 442 221 463 q 325 421 275 421 q 435 435 375 421 q 544 471 496 449 q 623 378 590 436 q 656 258 656 321 q 578 90 656 158 q 385 8 501 21 l 515 -186 l 392 -254 l 254 13 q 130 59 178 25 q 82 136 82 93 q 122 208 82 179 q 229 239 161 238 l 306 125 q 326 124 314 124 q 461 162 408 124 q 514 254 514 200 q 486 333 514 294 q 328 304 401 304 q 143 361 206 304 q 81 506 81 418 q 131 635 81 583 q 269 688 181 688 l 428 688 l 428 793 l -28 793 l -28 908 l 392 908 q 306 1017 335 961 q 276 1143 276 1074 q 341 1299 276 1238 q 521 1360 406 1360 q 704 1296 619 1360 l 663 1197 q 602 1232 631 1219 q 538 1244 574 1244 q 451 1211 483 1244 q 418 1119 418 1178 q 549 908 418 1015 l 714 908 l 714 793 l 567 793 l 567 572 l 285 572 z "},"उ":{"ha":803,"x_min":-28,"x_max":803,"o":"m 803 793 l 646 793 q 692 647 692 728 q 588 479 692 543 q 706 247 706 375 q 671 122 706 178 q 572 33 636 65 q 424 1 507 1 q 36 314 183 1 l 117 393 q 255 192 178 267 q 421 118 332 118 q 524 159 485 118 q 564 263 564 200 q 472 433 564 360 q 294 411 400 415 l 261 528 q 483 569 417 535 q 550 664 550 603 q 528 736 550 703 q 465 793 507 769 l -28 793 l -28 908 l 803 908 l 803 793 z "},"ऊ":{"ha":1157,"x_min":-28,"x_max":1157,"o":"m 646 793 q 692 647 692 728 q 588 479 692 543 q 646 417 624 446 q 767 512 711 478 q 889 546 824 546 q 1005 516 956 546 q 1080 437 1054 486 q 1106 328 1106 388 q 1067 171 1106 246 q 967 39 1029 96 l 843 121 q 931 226 899 171 q 964 329 964 281 q 942 402 964 376 q 883 428 921 428 q 795 396 840 428 q 699 307 750 364 q 706 247 706 276 q 671 122 706 178 q 572 33 636 65 q 424 1 507 1 q 36 314 183 1 l 117 393 q 255 192 178 267 q 421 118 332 118 q 524 159 485 118 q 564 263 564 200 q 472 433 564 360 q 294 411 400 415 l 261 528 q 483 569 417 535 q 550 664 550 603 q 528 736 550 703 q 465 793 507 769 l -28 793 l -28 908 l 1157 908 l 1157 793 l 646 793 z "},"ऋ":{"ha":1200,"x_min":-28,"x_max":1213,"o":"m 1213 -44 q 1134 -83 1179 -68 q 1036 -97 1089 -97 q 878 -44 939 -97 q 818 92 818 10 q 849 192 818 146 q 942 278 879 238 l 888 396 q 801 366 847 376 q 715 356 756 356 q 678 358 703 356 l 678 0 l 538 0 l 538 292 l 193 21 l 104 133 l 524 432 q 403 510 454 488 q 299 532 351 532 q 104 475 224 532 l 42 596 q 299 649 168 649 q 413 629 357 649 q 538 561 468 610 l 538 793 l -28 793 l -28 908 l 1200 908 l 1200 793 l 678 793 l 678 476 q 718 472 699 472 q 840 499 775 472 l 789 611 q 842 664 810 644 q 911 683 875 683 q 996 649 965 683 q 1026 568 1026 615 q 978 457 1026 506 l 1089 235 l 1093 229 q 944 96 944 172 q 969 40 944 61 q 1036 19 993 19 q 1103 29 1069 19 q 1160 57 1138 39 l 1213 -44 z "},"ॠ":{"ha":1200,"x_min":-28,"x_max":1342,"o":"m 1342 -287 q 1133 -372 1254 -372 q 979 -321 1039 -372 q 919 -187 919 -269 q 949 -83 919 -135 q 853 -15 888 -62 q 818 92 818 32 q 849 192 818 146 q 942 278 879 238 l 888 396 q 801 366 847 376 q 715 356 756 356 q 678 358 703 356 l 678 0 l 538 0 l 538 292 l 193 21 l 104 133 l 524 432 q 403 510 454 488 q 299 532 351 532 q 104 475 224 532 l 42 596 q 299 649 168 649 q 413 629 357 649 q 538 561 468 610 l 538 793 l -28 793 l -28 908 l 1200 908 l 1200 793 l 678 793 l 678 476 q 718 472 699 472 q 840 499 775 472 l 789 611 q 842 664 810 644 q 911 683 875 683 q 996 649 965 683 q 1026 568 1026 615 q 978 457 1026 506 l 1089 235 l 1093 229 q 944 96 944 172 q 969 40 944 61 q 1036 19 993 19 q 1103 29 1069 19 q 1160 57 1138 39 l 1213 -44 q 1085 -94 1160 -82 q 1046 -185 1046 -133 q 1069 -237 1046 -218 q 1135 -256 1092 -256 q 1214 -238 1174 -256 q 1286 -189 1254 -221 l 1342 -287 z "},"ऌ":{"ha":1050,"x_min":-28,"x_max":1060,"o":"m 1060 -79 q 959 -151 1013 -125 q 833 -176 906 -176 q 681 -126 743 -176 q 619 8 619 -76 q 648 108 619 64 q 733 211 676 151 q 810 305 785 267 q 835 388 835 343 q 808 466 835 439 q 733 493 781 493 q 619 428 664 493 q 563 253 575 364 l 421 278 q 461 431 431 364 q 393 495 428 474 q 317 517 358 517 q 240 481 272 517 q 207 382 207 446 q 262 203 207 286 q 422 29 317 119 l 339 -56 q 65 397 65 175 q 132 573 65 511 q 304 635 199 635 q 426 601 372 635 q 518 518 481 568 q 657 603 575 581 l 657 793 l -28 793 l -28 908 l 1050 908 l 1050 793 l 799 793 l 799 603 q 929 523 882 583 q 976 386 976 463 q 944 276 976 326 q 850 160 911 225 q 780 74 801 106 q 758 11 758 43 q 781 -40 758 -21 q 839 -60 803 -60 q 1006 21 929 -60 l 1060 -79 z "},"ॡ":{"ha":1050,"x_min":-28,"x_max":1210,"o":"m 1210 -329 q 1001 -414 1125 -414 q 847 -363 907 -414 q 788 -229 788 -312 q 796 -174 788 -201 q 669 -116 718 -164 q 619 8 619 -68 q 648 108 619 64 q 733 211 676 151 q 810 305 785 267 q 835 388 835 343 q 808 466 835 439 q 733 493 781 493 q 619 428 664 493 q 563 253 575 364 l 421 278 q 461 431 431 364 q 393 495 428 474 q 317 517 358 517 q 240 481 272 517 q 207 382 207 446 q 262 203 207 286 q 422 29 317 119 l 339 -56 q 65 397 65 175 q 132 573 65 511 q 304 635 199 635 q 426 601 372 635 q 518 518 481 568 q 657 603 575 581 l 657 793 l -28 793 l -28 908 l 1050 908 l 1050 793 l 799 793 l 799 603 q 929 523 882 583 q 976 386 976 463 q 944 276 976 326 q 850 160 911 225 q 780 74 801 106 q 758 11 758 43 q 781 -40 758 -21 q 839 -60 803 -60 q 1006 21 929 -60 l 1060 -79 q 938 -160 1003 -136 q 914 -228 914 -189 q 937 -278 914 -260 q 1003 -297 960 -297 q 1084 -280 1043 -297 q 1156 -229 1125 -262 l 1210 -329 z "},"ऍ":{"ha":885,"x_min":-28,"x_max":918,"o":"m 0 0 m 794 -7 q 890 -90 861 -51 q 918 -167 918 -129 q 901 -244 918 -208 q 847 -318 885 -279 l 725 -256 q 765 -175 765 -211 q 747 -128 765 -151 q 682 -74 729 -104 l 304 182 q 186 293 221 239 q 151 426 151 347 l 151 793 l -28 793 l -28 908 l 886 908 l 886 793 l 746 793 l 746 471 q 696 342 746 392 q 583 267 646 293 l 482 360 q 572 415 542 385 q 603 496 603 444 l 603 793 l 294 793 l 294 431 q 315 338 294 371 q 386 271 336 306 l 794 -7 m 444 1015 q 257 1069 340 1015 q 128 1208 174 1124 l 219 1274 q 444 1132 307 1132 q 669 1274 582 1132 l 760 1208 q 631 1069 713 1122 q 444 1015 549 1015 z "},"ऎ":{"ha":885,"x_min":-28,"x_max":918,"o":"m 794 -7 q 890 -90 861 -51 q 918 -167 918 -129 q 901 -244 918 -208 q 847 -318 885 -279 l 725 -256 q 765 -175 765 -211 q 747 -128 765 -151 q 682 -74 729 -104 l 304 182 q 186 293 221 239 q 151 426 151 347 l 151 793 l -28 793 l -28 908 l 611 908 q 614 944 614 931 q 583 1035 614 999 q 478 1072 551 1072 q 326 1064 429 1072 q 185 1056 229 1056 q 34 1097 88 1056 q -19 1214 -19 1138 q -7 1288 -19 1250 q 25 1354 6 1326 l 153 1324 q 121 1236 121 1281 q 139 1188 121 1204 q 199 1172 157 1172 q 340 1181 246 1172 q 478 1189 435 1189 q 683 1122 613 1189 q 754 943 754 1054 q 751 908 754 933 l 886 908 l 886 793 l 746 793 l 746 471 q 696 342 746 392 q 583 267 646 293 l 482 360 q 572 415 542 385 q 603 496 603 444 l 603 793 l 294 793 l 294 431 q 315 338 294 371 q 386 271 336 306 l 794 -7 z "},"ए":{"ha":885,"x_min":-28,"x_max":918,"o":"m 794 -7 q 890 -90 861 -51 q 918 -167 918 -129 q 901 -244 918 -208 q 847 -318 885 -279 l 725 -256 q 765 -175 765 -211 q 747 -128 765 -151 q 682 -74 729 -104 l 304 182 q 186 293 221 239 q 151 426 151 347 l 151 793 l -28 793 l -28 908 l 886 908 l 886 793 l 746 793 l 746 471 q 696 342 746 392 q 583 267 646 293 l 482 360 q 572 415 542 385 q 603 496 603 444 l 603 793 l 294 793 l 294 431 q 315 338 294 371 q 386 271 336 306 l 794 -7 z "},"ऐ":{"ha":885,"x_min":-28,"x_max":918,"o":"m 794 -7 q 890 -90 861 -51 q 918 -167 918 -129 q 901 -244 918 -208 q 847 -318 885 -279 l 725 -256 q 765 -175 765 -211 q 747 -128 765 -151 q 682 -74 729 -104 l 304 182 q 186 293 221 239 q 151 426 151 347 l 151 793 l -28 793 l -28 908 l 590 908 l 546 1007 q 444 1183 490 1129 q 328 1238 397 1238 q 218 1219 267 1238 l 193 1329 q 326 1358 251 1358 q 460 1324 403 1358 q 566 1219 518 1289 q 669 1029 614 1149 l 726 908 l 886 908 l 886 793 l 746 793 l 746 471 q 696 342 746 392 q 583 267 646 293 l 482 360 q 572 415 542 385 q 603 496 603 444 l 603 793 l 294 793 l 294 431 q 315 338 294 371 q 386 271 336 306 l 794 -7 z "},"ऑ":{"ha":1557,"x_min":0,"x_max":1557,"o":"m 0 0 m 1557 793 l 1411 793 l 1411 0 l 1269 0 l 1269 793 l 981 793 l 981 0 l 839 0 l 839 361 q 776 340 813 349 q 703 331 740 331 q 644 335 674 331 q 656 264 656 301 q 622 144 656 197 q 525 60 588 90 q 381 29 463 29 q 0 313 140 29 l 81 392 q 215 212 139 278 q 376 146 290 146 q 476 183 439 146 q 514 278 514 219 q 433 433 514 365 q 289 411 364 415 l 256 528 q 439 571 385 533 q 493 682 493 608 q 458 775 493 738 q 363 813 424 813 q 171 729 279 813 l 110 836 q 360 931 236 931 q 495 900 432 931 q 597 809 558 869 q 635 665 635 749 q 543 485 635 551 q 617 459 574 469 q 703 449 661 449 q 839 486 783 449 l 839 793 l 664 793 l 664 908 l 1557 908 l 1557 793 m 1129 1015 q 942 1069 1025 1015 q 813 1208 858 1124 l 904 1274 q 1129 1132 992 1132 q 1354 1274 1267 1132 l 1444 1208 q 1315 1069 1397 1122 q 1129 1015 1233 1015 z "},"ऒ":{"ha":1557,"x_min":0,"x_max":1557,"o":"m 1557 793 l 1411 793 l 1411 0 l 1269 0 l 1269 793 l 981 793 l 981 0 l 839 0 l 839 361 q 776 340 813 349 q 703 331 740 331 q 644 335 674 331 q 656 264 656 301 q 622 144 656 197 q 525 60 588 90 q 381 29 463 29 q 0 313 140 29 l 81 392 q 215 212 139 278 q 376 146 290 146 q 476 183 439 146 q 514 278 514 219 q 433 433 514 365 q 289 411 364 415 l 256 528 q 439 571 385 533 q 493 682 493 608 q 458 775 493 738 q 363 813 424 813 q 171 729 279 813 l 110 836 q 360 931 236 931 q 495 900 432 931 q 597 809 558 869 q 635 665 635 749 q 543 485 635 551 q 617 459 574 469 q 703 449 661 449 q 839 486 783 449 l 839 793 l 664 793 l 664 908 l 1281 908 q 1283 944 1283 931 q 1252 1035 1283 999 q 1147 1072 1221 1072 q 996 1064 1099 1072 q 854 1056 899 1056 q 703 1097 757 1056 q 650 1214 650 1138 q 663 1288 650 1250 q 694 1354 675 1326 l 821 1324 q 790 1236 790 1279 q 808 1188 790 1204 q 868 1172 826 1172 q 1010 1181 915 1172 q 1147 1189 1104 1189 q 1353 1122 1282 1189 q 1424 943 1424 1054 q 1421 908 1424 933 l 1557 908 l 1557 793 z "},"ओ":{"ha":1557,"x_min":0,"x_max":1557,"o":"m 1557 793 l 1411 793 l 1411 0 l 1269 0 l 1269 793 l 981 793 l 981 0 l 839 0 l 839 361 q 776 340 813 349 q 703 331 740 331 q 644 335 674 331 q 656 264 656 301 q 622 144 656 197 q 525 60 588 90 q 381 29 463 29 q 0 313 140 29 l 81 392 q 215 212 139 278 q 376 146 290 146 q 476 183 439 146 q 514 278 514 219 q 433 433 514 365 q 289 411 364 415 l 256 528 q 439 571 385 533 q 493 682 493 608 q 458 775 493 738 q 363 813 424 813 q 171 729 279 813 l 110 836 q 360 931 236 931 q 495 900 432 931 q 597 809 558 869 q 635 665 635 749 q 543 485 635 551 q 617 459 574 469 q 703 449 661 449 q 839 486 783 449 l 839 793 l 664 793 l 664 908 l 1257 908 l 1213 1007 q 1110 1183 1157 1129 q 994 1238 1064 1238 q 885 1219 933 1238 l 860 1329 q 993 1358 918 1358 q 1127 1324 1069 1358 q 1233 1219 1185 1289 q 1336 1029 1281 1149 l 1393 908 l 1557 908 l 1557 793 z "},"औ":{"ha":1557,"x_min":0,"x_max":1557,"o":"m 1557 793 l 1411 793 l 1411 0 l 1269 0 l 1269 793 l 981 793 l 981 0 l 839 0 l 839 361 q 776 340 813 349 q 703 331 740 331 q 644 335 674 331 q 656 264 656 301 q 622 144 656 197 q 525 60 588 90 q 381 29 463 29 q 0 313 140 29 l 81 392 q 215 212 139 278 q 376 146 290 146 q 476 183 439 146 q 514 278 514 219 q 433 433 514 365 q 289 411 364 415 l 256 528 q 439 571 385 533 q 493 682 493 608 q 458 775 493 738 q 363 813 424 813 q 171 729 279 813 l 110 836 q 360 931 236 931 q 495 900 432 931 q 597 809 558 869 q 635 665 635 749 q 543 485 635 551 q 617 459 574 469 q 703 449 661 449 q 839 486 783 449 l 839 793 l 664 793 l 664 908 l 1207 908 l 1165 976 q 1090 1064 1131 1036 q 999 1092 1049 1092 q 886 1068 939 1092 l 861 1179 q 997 1211 924 1211 q 1142 1162 1075 1211 q 1258 1031 1208 1113 q 1164 1229 1197 1167 q 1092 1325 1131 1292 q 1000 1358 1054 1358 q 904 1340 947 1358 l 879 1450 q 1011 1479 938 1479 q 1151 1435 1092 1479 q 1262 1297 1210 1392 q 1379 1029 1314 1201 l 1425 908 l 1557 908 l 1557 793 z "},"ॳ":{"ha":1125,"x_min":0,"x_max":1125,"o":"m 1125 793 l 981 793 l 981 0 l 839 0 l 839 361 q 776 340 813 349 q 703 331 740 331 q 644 335 674 331 q 656 264 656 301 q 622 144 656 197 q 525 60 588 90 q 381 29 463 29 q 0 313 140 29 l 81 392 q 215 212 139 278 q 376 146 290 146 q 476 183 439 146 q 514 278 514 219 q 433 433 514 365 q 289 411 364 415 l 256 528 q 439 571 385 533 q 493 682 493 608 q 458 775 493 738 q 363 813 424 813 q 171 729 279 813 l 110 836 q 360 931 236 931 q 495 900 432 931 q 597 809 558 869 q 635 665 635 749 q 543 485 635 551 q 617 459 574 469 q 703 449 661 449 q 839 486 783 449 l 839 793 l 664 793 l 664 908 l 840 908 l 840 1275 l 983 1275 l 983 908 l 1125 908 l 1125 793 z "},"ॴ":{"ha":1557,"x_min":0,"x_max":1557,"o":"m 1557 793 l 1411 793 l 1411 0 l 1269 0 l 1269 793 l 981 793 l 981 0 l 839 0 l 839 361 q 776 340 813 349 q 703 331 740 331 q 644 335 674 331 q 656 264 656 301 q 622 144 656 197 q 525 60 588 90 q 381 29 463 29 q 0 313 140 29 l 81 392 q 215 212 139 278 q 376 146 290 146 q 476 183 439 146 q 514 278 514 219 q 433 433 514 365 q 289 411 364 415 l 256 528 q 439 571 385 533 q 493 682 493 608 q 458 775 493 738 q 363 813 424 813 q 171 729 279 813 l 110 836 q 360 931 236 931 q 495 900 432 931 q 597 809 558 869 q 635 665 635 749 q 543 485 635 551 q 617 459 574 469 q 703 449 661 449 q 839 486 783 449 l 839 793 l 664 793 l 664 908 l 1268 908 l 1268 1275 l 1411 1275 l 1411 908 l 1557 908 l 1557 793 z "},"ॶ":{"ha":1125,"x_min":0,"x_max":1243,"o":"m 0 0 m 1125 793 l 981 793 l 981 0 l 839 0 l 839 361 q 776 340 813 349 q 703 331 740 331 q 644 335 674 331 q 656 264 656 301 q 622 144 656 197 q 525 60 588 90 q 381 29 463 29 q 0 313 140 29 l 81 392 q 215 212 139 278 q 376 146 290 146 q 476 183 439 146 q 514 278 514 219 q 433 433 514 365 q 289 411 364 415 l 256 528 q 439 571 385 533 q 493 682 493 608 q 458 775 493 738 q 363 813 424 813 q 171 729 279 813 l 110 836 q 360 931 236 931 q 495 900 432 931 q 597 809 558 869 q 635 665 635 749 q 543 485 635 551 q 617 459 574 469 q 703 449 661 449 q 839 486 783 449 l 839 793 l 664 793 l 664 908 l 1125 908 l 1125 793 m 910 -315 q 710 -260 800 -315 q 574 -114 621 -204 l 674 -51 q 770 -158 711 -117 q 910 -200 829 -200 q 1048 -158 989 -200 q 1146 -51 1107 -117 l 1243 -114 q 1107 -260 1196 -204 q 910 -315 1018 -315 z "},"ॷ":{"ha":1125,"x_min":0,"x_max":1243,"o":"m 0 0 m 1125 793 l 981 793 l 981 0 l 839 0 l 839 361 q 776 340 813 349 q 703 331 740 331 q 644 335 674 331 q 656 264 656 301 q 622 144 656 197 q 525 60 588 90 q 381 29 463 29 q 0 313 140 29 l 81 392 q 215 212 139 278 q 376 146 290 146 q 476 183 439 146 q 514 278 514 219 q 433 433 514 365 q 289 411 364 415 l 256 528 q 439 571 385 533 q 493 682 493 608 q 458 775 493 738 q 363 813 424 813 q 171 729 279 813 l 110 836 q 360 931 236 931 q 495 900 432 931 q 597 809 558 869 q 635 665 635 749 q 543 485 635 551 q 617 459 574 469 q 703 449 661 449 q 839 486 783 449 l 839 793 l 664 793 l 664 908 l 1125 908 l 1125 793 m 910 -315 q 710 -260 800 -315 q 574 -114 621 -204 l 674 -51 q 770 -158 711 -117 q 910 -200 829 -200 q 1048 -158 989 -200 q 1146 -51 1107 -117 l 1243 -114 q 1107 -260 1196 -204 q 910 -315 1018 -315 m 910 -594 q 710 -539 800 -594 q 574 -393 621 -483 l 674 -331 q 770 -437 711 -396 q 910 -479 829 -479 q 1048 -437 989 -479 q 1146 -331 1107 -396 l 1243 -393 q 1107 -539 1196 -483 q 910 -594 1018 -594 z "},"ा":{"ha":432,"x_min":-28,"x_max":432,"o":"m 432 793 l 286 793 l 286 0 l 144 0 l 144 793 l -28 793 l -28 908 l 432 908 l 432 793 z "},"ि":{"ha":432,"x_min":-28,"x_max":1033,"o":"m 363 1260 q 240 1219 288 1260 q 192 1107 192 1179 q 260 908 192 1004 l 432 908 l 432 793 l 286 793 l 286 0 l 144 0 l 144 793 l -28 793 l -28 908 l 131 908 q 50 1129 50 1025 q 86 1258 50 1201 q 189 1347 122 1315 q 344 1379 256 1379 q 598 1325 474 1379 q 819 1201 722 1271 q 1033 1031 917 1131 l 967 951 q 649 1176 799 1092 q 363 1260 500 1260 z "},"ी":{"ha":432,"x_min":-387,"x_max":432,"o":"m 432 793 l 286 793 l 286 0 l 144 0 l 144 793 l -28 793 l -28 908 l 133 908 q 4 1162 71 1069 q -140 1254 -62 1254 q -223 1225 -193 1254 q -253 1150 -253 1196 q -232 1068 -253 1107 q -183 1000 -211 1029 l -267 951 q -351 1051 -315 993 q -387 1176 -387 1110 q -359 1274 -387 1229 q -281 1344 -331 1318 q -167 1371 -231 1371 q 15 1308 -64 1371 q 151 1147 94 1246 q 261 908 207 1049 l 432 908 l 432 793 z "},"ॉ":{"ha":432,"x_min":-100,"x_max":532,"o":"m 0 0 m 432 793 l 286 793 l 286 0 l 144 0 l 144 793 l -28 793 l -28 908 l 432 908 l 432 793 m 217 1015 q 29 1069 113 1015 q -100 1208 -54 1124 l -8 1274 q 217 1132 79 1132 q 442 1274 354 1132 l 532 1208 q 403 1069 485 1122 q 217 1015 321 1015 z "},"ॊ":{"ha":432,"x_min":-475,"x_max":432,"o":"m 432 793 l 286 793 l 286 0 l 144 0 l 144 793 l -28 793 l -28 908 l 156 908 q 158 944 158 931 q 127 1035 158 999 q 22 1072 96 1072 q -129 1064 -26 1072 q -271 1056 -226 1056 q -422 1097 -368 1056 q -475 1214 -475 1138 q -462 1288 -475 1250 q -431 1354 -450 1326 l -304 1324 q -335 1236 -335 1279 q -317 1188 -335 1204 q -257 1172 -299 1172 q -115 1181 -210 1172 q 22 1189 -21 1189 q 228 1122 157 1189 q 299 943 299 1054 q 296 908 299 933 l 432 908 l 432 793 z "},"ो":{"ha":432,"x_min":-265,"x_max":432,"o":"m 432 793 l 286 793 l 286 0 l 144 0 l 144 793 l -28 793 l -28 908 l 132 908 l 88 1007 q -15 1183 32 1129 q -131 1238 -61 1238 q -240 1219 -192 1238 l -265 1329 q -132 1358 -207 1358 q 2 1324 -56 1358 q 108 1219 60 1289 q 211 1029 156 1149 l 268 908 l 432 908 l 432 793 z "},"ौ":{"ha":432,"x_min":-264,"x_max":432,"o":"m 432 793 l 286 793 l 286 0 l 144 0 l 144 793 l -28 793 l -28 908 l 82 908 l 40 976 q -35 1064 6 1036 q -126 1092 -76 1092 q -239 1068 -186 1092 l -264 1179 q -128 1211 -201 1211 q 17 1162 -50 1211 q 133 1031 83 1113 q 39 1229 72 1167 q -33 1325 6 1292 q -125 1358 -71 1358 q -221 1340 -178 1358 l -246 1450 q -114 1479 -187 1479 q 26 1435 -33 1479 q 137 1297 85 1392 q 254 1029 189 1201 l 300 908 l 432 908 l 432 793 z "},"ऻ":{"ha":432,"x_min":-28,"x_max":432,"o":"m 432 793 l 286 793 l 286 0 l 144 0 l 144 793 l -28 793 l -28 908 l 147 908 l 147 1275 l 290 1275 l 290 908 l 432 908 l 432 793 z "},"क":{"ha":1186,"x_min":-28,"x_max":1186,"o":"m 679 793 l 679 522 q 786 596 733 569 q 896 622 839 622 q 1023 590 969 622 q 1105 505 1076 558 q 1133 389 1133 451 q 986 81 1133 221 l 863 163 q 992 390 992 285 q 964 474 992 444 q 892 504 936 504 q 788 468 839 504 q 679 368 736 432 l 679 0 l 538 0 l 538 258 q 428 185 483 213 q 310 158 374 158 q 175 190 232 158 q 88 275 118 222 q 57 392 57 328 q 90 518 57 461 q 179 608 122 575 q 307 640 236 640 q 434 613 375 640 q 538 544 493 586 l 538 793 l -28 793 l -28 908 l 1186 908 l 1186 793 l 679 793 m 321 275 q 538 401 418 275 l 538 403 q 441 490 494 457 q 332 522 388 522 q 237 485 275 522 q 199 393 199 449 q 233 308 199 342 q 321 275 267 275 z "},"ख":{"ha":1192,"x_min":-28,"x_max":1192,"o":"m 1192 793 l 1049 793 l 1049 -15 l 907 -15 l 907 122 q 737 32 832 64 q 549 0 642 0 q 296 69 404 0 q 130 265 188 139 q 76 558 72 392 l 203 574 q 204 493 203 518 q 240 481 221 481 q 288 506 268 481 q 308 586 308 532 q 294 688 308 631 q 258 793 281 744 l -28 793 l -28 908 l 1192 908 l 1192 793 m 907 793 l 400 793 q 449 575 449 681 q 424 456 449 504 q 359 385 399 408 q 275 363 319 363 q 225 372 250 363 q 345 182 260 246 q 549 118 431 118 q 736 154 642 118 q 907 257 831 190 l 907 335 q 714 253 808 253 q 599 281 649 253 q 524 356 550 310 q 499 454 499 403 q 528 570 499 519 q 608 649 558 621 q 717 678 658 678 q 821 654 771 678 q 907 596 871 631 l 907 793 m 907 464 q 733 569 831 569 q 659 539 688 569 q 631 461 631 508 q 658 388 631 417 q 731 360 686 360 q 819 388 772 360 q 907 464 865 417 z "},"ग":{"ha":893,"x_min":-28,"x_max":893,"o":"m 893 793 l 749 793 l 749 0 l 608 0 l 608 793 l 353 793 l 353 394 q 322 284 353 322 q 235 246 290 246 q 131 290 174 246 q 89 400 89 333 q 100 467 89 429 l 213 467 l 213 793 l -28 793 l -28 908 l 893 908 l 893 793 z "},"घ":{"ha":979,"x_min":-28,"x_max":979,"o":"m 979 793 l 833 793 l 833 0 l 693 0 l 693 240 q 449 153 575 153 q 263 218 335 153 q 190 392 190 283 q 251 536 190 475 q 127 628 167 581 q 88 732 88 676 q 96 793 88 764 l -28 793 l -28 908 l 979 908 l 979 793 m 693 793 l 253 793 q 231 719 231 758 q 256 655 231 685 q 344 594 281 625 q 436 611 389 611 q 522 596 489 611 l 510 486 q 451 494 482 494 q 365 464 397 494 q 332 383 332 433 q 365 298 332 326 q 447 269 399 269 q 693 383 567 269 l 693 793 z "},"ङ":{"ha":1029,"x_min":-28,"x_max":1029,"o":"m 1029 793 l 671 793 l 671 546 l 346 546 q 289 528 308 546 q 269 479 269 511 q 399 401 269 401 q 533 413 463 401 q 660 449 603 425 q 743 356 708 414 q 778 236 778 297 q 694 65 778 129 q 458 0 610 0 q 234 52 338 0 q 49 199 131 104 l 117 286 q 269 162 185 207 q 447 117 354 117 q 588 149 540 117 q 636 229 636 181 q 603 313 636 272 q 401 285 501 285 q 195 341 263 285 q 128 485 128 397 q 181 612 128 561 q 329 663 233 663 l 531 663 l 531 793 l -28 793 l -28 908 l 1029 908 l 1029 793 m 913 574 q 985 544 956 574 q 1015 471 1015 514 q 985 399 1015 429 q 913 369 956 369 q 841 399 871 369 q 811 471 811 429 q 841 544 811 514 q 913 574 871 574 z "},"च":{"ha":938,"x_min":-28,"x_max":938,"o":"m 938 793 l 793 793 l 793 0 l 651 0 l 651 251 q 524 168 592 199 q 389 138 457 138 q 258 166 314 138 q 172 243 201 194 q 142 353 142 292 q 222 513 142 446 l 43 513 l 43 629 l 497 629 l 497 521 q 343 464 403 510 q 283 353 283 418 q 310 281 283 307 q 388 256 338 256 q 517 293 449 256 q 651 399 586 331 l 651 793 l -28 793 l -28 908 l 938 908 l 938 793 z "},"छ":{"ha":1089,"x_min":-28,"x_max":1089,"o":"m 813 793 l 813 657 q 926 569 883 631 q 969 415 969 507 q 925 254 969 336 q 1021 165 986 213 q 1056 49 1056 117 q 947 -232 1056 -89 l 817 -158 q 928 56 928 -39 q 858 161 928 110 q 662 18 778 72 q 428 -36 546 -36 q 224 27 300 -36 q 149 199 149 90 q 188 318 149 263 q 88 397 121 356 q 54 492 54 439 q 115 624 54 572 q 279 676 176 676 q 397 654 347 676 l 381 540 q 292 558 344 558 q 222 537 247 558 q 196 479 196 515 q 265 385 196 426 q 392 417 322 417 q 478 401 444 417 l 465 290 q 404 299 443 299 q 321 268 351 299 q 290 192 290 238 q 326 109 290 136 q 419 82 363 82 q 597 123 511 82 q 743 231 682 164 q 625 303 671 271 q 547 383 579 336 q 515 490 515 429 q 557 612 515 565 q 671 669 599 658 l 671 793 l -28 793 l -28 908 l 1089 908 l 1089 793 l 813 793 m 804 324 q 828 424 828 374 q 799 522 828 488 q 729 556 771 556 q 678 536 700 556 q 657 478 657 517 q 694 397 657 431 q 804 324 731 364 z "},"ज":{"ha":1050,"x_min":-28,"x_max":1050,"o":"m 1050 793 l 906 793 l 906 0 l 764 0 l 764 501 l 535 501 q 656 301 656 408 q 626 199 656 243 q 549 131 597 156 q 444 107 500 107 q 186 225 283 107 q 26 572 89 343 l 139 610 q 263 321 190 419 q 415 222 336 222 q 488 247 463 222 q 514 314 514 271 q 469 420 514 369 q 333 536 425 471 l 368 617 l 764 617 l 764 793 l -28 793 l -28 908 l 1050 908 l 1050 793 z "},"झ":{"ha":1117,"x_min":-28,"x_max":1117,"o":"m 1117 793 l 972 793 l 972 0 l 831 0 l 831 290 q 704 264 769 264 q 656 267 686 264 l 656 258 q 578 90 656 158 q 385 8 501 21 l 515 -186 l 392 -254 l 254 13 q 130 59 178 25 q 82 136 82 93 q 122 208 82 179 q 229 239 161 238 l 306 125 q 326 124 314 124 q 461 162 408 124 q 514 254 514 200 q 486 333 514 294 q 328 304 401 304 q 143 361 206 304 q 81 506 81 418 q 131 635 81 583 q 269 688 181 688 l 428 688 l 428 793 l -28 793 l -28 908 l 1117 908 l 1117 793 m 831 793 l 567 793 l 567 572 l 285 572 q 238 553 256 572 q 221 500 221 533 q 248 442 221 463 q 325 421 275 421 q 435 435 375 421 q 544 471 496 449 q 614 394 586 439 q 704 382 658 382 q 831 413 778 382 l 831 793 z "},"ञ":{"ha":1058,"x_min":-28,"x_max":1058,"o":"m 1058 793 l 914 793 l 914 0 l 772 0 l 772 350 q 678 335 721 335 q 642 338 667 335 q 551 224 618 267 q 388 181 483 181 q 190 250 281 181 q 6 460 100 319 l 92 521 q 235 352 168 407 q 378 297 301 297 q 477 329 442 297 q 513 410 513 361 q 485 492 513 460 q 410 524 457 524 q 353 511 378 524 q 297 474 329 499 l 221 564 q 313 620 265 600 q 419 640 360 640 q 572 592 506 640 q 651 453 638 543 q 678 451 660 451 q 772 467 729 451 l 772 793 l -28 793 l -28 908 l 1058 908 l 1058 793 z "},"ट":{"ha":792,"x_min":-28,"x_max":792,"o":"m 590 535 q 228 336 228 507 q 281 217 228 260 q 421 174 333 175 q 700 256 554 174 l 751 151 q 419 57 594 57 q 180 132 271 57 q 89 336 89 207 q 451 639 89 581 l 451 793 l -28 793 l -28 908 l 792 908 l 792 793 l 592 793 l 592 535 l 590 535 z "},"ठ":{"ha":857,"x_min":-28,"x_max":857,"o":"m 857 793 l 590 793 q 608 718 608 754 q 589 619 608 669 q 717 492 668 563 q 767 342 767 422 q 721 190 767 258 q 597 83 675 122 q 421 44 518 44 q 251 80 326 44 q 132 180 175 115 q 89 332 89 244 q 185 542 89 461 q 457 651 282 622 q 468 717 468 685 q 449 793 468 751 l -28 793 l -28 908 l 857 908 l 857 793 m 424 161 q 526 185 479 161 q 600 250 572 208 q 628 342 628 292 q 590 456 628 404 q 507 535 553 508 q 305 467 381 518 q 229 332 229 415 q 286 205 229 249 q 424 161 343 161 z "},"ड":{"ha":817,"x_min":-28,"x_max":818,"o":"m 346 546 q 289 528 308 546 q 269 479 269 511 q 399 401 269 401 q 533 413 463 401 q 660 449 603 425 q 743 356 708 414 q 778 236 778 297 q 694 65 778 129 q 458 0 610 0 q 234 52 338 0 q 49 199 131 104 l 117 286 q 269 162 185 207 q 447 117 354 117 q 588 149 540 117 q 636 229 636 181 q 603 313 636 272 q 401 285 501 285 q 195 341 263 285 q 128 485 128 397 q 181 612 128 561 q 329 663 233 663 l 531 663 l 531 793 l -28 793 l -28 908 l 818 908 l 818 793 l 671 793 l 671 546 l 346 546 z "},"ढ":{"ha":803,"x_min":-28,"x_max":803,"o":"m 399 543 q 258 499 304 543 q 211 385 211 456 q 256 225 211 293 q 365 124 300 157 q 332 233 332 174 q 388 365 332 314 q 525 415 444 415 q 629 390 582 415 q 703 318 676 364 q 731 214 731 272 q 694 91 731 142 q 598 15 657 40 q 474 -11 539 -11 q 280 40 374 -11 q 128 183 186 92 q 69 390 69 275 q 147 585 69 511 q 379 660 225 660 l 481 660 l 481 793 l -28 793 l -28 908 l 803 908 l 803 793 l 621 793 l 621 543 l 399 543 m 531 304 q 476 280 497 304 q 454 214 454 256 q 489 103 454 150 q 577 140 546 110 q 608 217 608 171 q 586 281 608 258 q 531 304 564 304 z "},"ण":{"ha":1071,"x_min":-28,"x_max":1071,"o":"m 1071 793 l 926 793 l 926 0 l 785 0 l 785 793 l 601 793 l 601 467 q 534 297 601 358 q 357 236 467 236 q 180 297 247 236 q 113 467 113 358 l 113 793 l -28 793 l -28 908 l 1071 908 l 1071 793 m 460 793 l 254 793 l 254 467 q 281 384 254 414 q 357 354 308 354 q 433 384 406 354 q 460 467 460 414 l 460 793 z "},"त":{"ha":851,"x_min":-28,"x_max":851,"o":"m 851 793 l 706 793 l 706 0 l 565 0 l 565 500 l 350 500 q 256 469 290 500 q 222 383 222 439 q 271 225 222 301 q 414 54 319 149 l 326 -25 q 153 180 225 65 q 81 406 81 294 q 143 560 81 503 q 335 617 206 617 l 565 617 l 565 793 l -28 793 l -28 908 l 851 908 l 851 793 z "},"थ":{"ha":951,"x_min":64,"x_max":951,"o":"m 951 793 l 806 793 l 806 0 l 665 0 l 665 263 q 555 196 618 221 q 424 171 492 171 q 214 243 299 171 q 97 449 129 315 q 269 533 206 481 q 117 616 171 556 q 64 756 64 676 q 120 884 64 835 q 265 933 176 933 q 430 869 364 933 q 496 690 496 804 q 435 519 496 599 q 260 386 374 439 q 324 314 282 339 q 424 289 365 289 q 551 321 486 289 q 665 406 615 353 l 665 793 l 538 793 l 538 908 l 951 908 l 951 793 m 206 744 q 237 671 206 704 q 340 628 268 638 q 354 703 354 661 q 333 785 354 753 q 275 817 313 817 q 226 797 246 817 q 206 744 206 778 z "},"द":{"ha":817,"x_min":-28,"x_max":817,"o":"m 407 543 q 273 502 315 543 q 231 394 231 461 q 260 285 231 331 q 338 217 290 240 q 438 194 386 194 q 494 200 471 194 l 449 303 q 505 355 471 335 q 574 375 539 375 q 658 342 626 375 q 689 260 689 308 q 640 149 689 197 l 768 -64 l 643 -129 l 543 93 q 435 78 493 78 q 268 116 347 78 q 140 226 189 154 q 90 394 90 297 q 165 588 90 517 q 389 660 239 660 l 475 660 l 475 793 l -28 793 l -28 908 l 817 908 l 817 793 l 615 793 l 615 543 l 407 543 z "},"ध":{"ha":942,"x_min":68,"x_max":942,"o":"m 942 793 l 797 793 l 797 0 l 657 0 l 657 240 q 411 153 538 153 q 225 218 297 153 q 153 392 153 283 q 219 542 153 479 q 68 768 68 644 q 93 858 68 817 q 163 924 118 899 q 265 949 207 949 q 439 860 388 949 l 376 772 q 286 831 346 831 q 230 810 250 831 q 210 757 210 789 q 237 679 210 719 q 322 600 264 639 q 399 611 363 611 q 485 596 451 611 l 472 486 q 414 494 444 494 q 327 464 360 494 q 294 383 294 433 q 328 298 294 326 q 410 269 361 269 q 657 385 531 269 l 657 793 l 519 793 l 519 908 l 942 908 l 942 793 z "},"न":{"ha":840,"x_min":-28,"x_max":840,"o":"m 840 793 l 694 793 l 694 0 l 554 0 l 554 426 l 271 426 l 271 314 q 203 301 235 301 q 99 339 140 301 q 57 429 57 376 q 93 513 57 485 q 199 542 129 542 l 554 542 l 554 793 l -28 793 l -28 908 l 840 908 l 840 793 z "},"ऩ":{"ha":840,"x_min":-28,"x_max":840,"o":"m 0 0 m 840 793 l 694 793 l 694 0 l 554 0 l 554 426 l 271 426 l 271 314 q 203 301 235 301 q 99 339 140 301 q 57 429 57 376 q 93 513 57 485 q 199 542 129 542 l 554 542 l 554 793 l -28 793 l -28 908 l 840 908 l 840 793 m 194 50 q 224 123 194 93 q 296 153 254 153 q 369 123 339 153 q 399 50 399 93 q 369 -22 399 8 q 296 -51 339 -51 q 224 -22 254 -51 q 194 50 194 8 z "},"प":{"ha":808,"x_min":-28,"x_max":808,"o":"m 808 793 l 664 793 l 664 0 l 522 0 l 522 294 q 351 240 443 240 q 174 303 235 240 q 113 488 113 365 l 113 793 l -28 793 l -28 908 l 808 908 l 808 793 m 522 793 l 254 793 l 254 483 q 360 358 254 358 q 522 419 447 358 l 522 793 z "},"फ":{"ha":1163,"x_min":-28,"x_max":1163,"o":"m 664 532 q 765 597 715 574 q 869 621 815 621 q 997 589 943 621 q 1078 504 1050 557 q 1107 389 1107 451 q 1068 222 1107 297 q 960 79 1029 146 l 836 161 q 965 390 965 283 q 939 474 965 443 q 865 504 913 504 q 664 393 785 504 l 664 0 l 522 0 l 522 294 q 351 240 443 240 q 174 303 235 240 q 113 488 113 365 l 113 793 l -28 793 l -28 908 l 1163 908 l 1163 793 l 664 793 l 664 532 m 522 793 l 254 793 l 254 483 q 360 358 254 358 q 522 419 447 358 l 522 793 z "},"ब":{"ha":888,"x_min":-28,"x_max":896,"o":"m 896 793 l 751 793 l 751 0 l 610 0 l 610 250 q 483 164 547 197 q 343 131 418 131 q 192 166 256 131 q 95 260 128 201 q 63 389 63 318 q 99 531 63 468 q 201 631 136 594 q 350 667 267 667 q 494 633 428 667 q 610 549 561 599 l 610 793 l -28 793 l -28 908 l 896 908 l 896 793 m 494 300 q 610 399 553 336 l 610 401 q 495 509 558 469 q 364 549 432 549 q 332 546 354 549 l 494 300 m 204 393 q 243 290 204 331 q 349 249 282 249 q 431 267 386 249 l 265 518 q 220 465 236 497 q 204 393 204 432 z "},"भ":{"ha":1042,"x_min":61,"x_max":1040,"o":"m 1040 793 l 896 793 l 896 0 l 754 0 l 754 308 l 482 308 l 482 207 q 396 192 440 192 q 278 231 325 192 q 232 324 232 269 q 260 393 232 365 q 340 425 289 421 l 340 507 q 129 595 197 529 q 61 751 61 661 q 119 883 61 832 q 269 933 176 933 q 425 875 368 933 q 482 696 482 817 l 482 425 l 754 425 l 754 793 l 557 793 l 557 908 l 1040 908 l 1040 793 m 203 740 q 238 662 203 696 q 340 613 272 628 l 340 710 q 322 789 340 761 q 269 817 303 817 q 222 796 240 817 q 203 740 203 775 z "},"म":{"ha":885,"x_min":-28,"x_max":885,"o":"m 885 793 l 740 793 l 740 0 l 599 0 l 599 336 l 307 336 l 307 235 q 221 219 265 219 q 103 258 150 219 q 57 351 57 297 q 85 421 57 393 q 165 453 114 449 l 165 793 l -28 793 l -28 908 l 885 908 l 885 793 m 599 793 l 307 793 l 307 453 l 599 453 l 599 793 z "},"य":{"ha":875,"x_min":-28,"x_max":875,"o":"m 875 793 l 729 793 l 729 0 l 589 0 l 589 264 q 481 197 542 222 q 354 171 419 171 q 142 250 229 171 q 26 471 54 329 q 193 544 143 504 q 243 639 243 583 q 138 793 243 726 l -28 793 l -28 908 l 875 908 l 875 793 m 589 793 l 306 793 q 382 636 382 725 q 332 503 382 567 q 185 399 282 440 q 354 289 236 289 q 478 321 415 289 q 589 407 540 353 l 589 793 z "},"र":{"ha":581,"x_min":-28,"x_max":581,"o":"m 581 793 l 400 793 q 446 683 429 742 q 463 568 463 625 q 433 449 463 497 q 359 378 404 401 q 268 356 314 356 q 224 363 247 356 q 303 254 247 313 l 508 43 l 422 -43 l 246 140 q 130 280 168 218 q 78 401 92 342 q 63 550 65 461 l 190 567 q 194 485 190 522 q 236 474 213 474 q 294 500 267 474 q 322 579 322 526 q 305 687 322 631 q 257 793 288 743 l -28 793 l -28 908 l 581 908 l 581 793 z "},"ऱ":{"ha":581,"x_min":-28,"x_max":581,"o":"m 0 0 m 581 793 l 400 793 q 446 683 429 742 q 463 568 463 625 q 433 449 463 497 q 359 378 404 401 q 268 356 314 356 q 224 363 247 356 q 303 254 247 313 l 508 43 l 422 -43 l 246 140 q 130 280 168 218 q 78 401 92 342 q 63 550 65 461 l 190 567 q 194 485 190 522 q 236 474 213 474 q 294 500 267 474 q 322 579 322 526 q 305 687 322 631 q 257 793 288 743 l -28 793 l -28 908 l 581 908 l 581 793 m 38 -31 q 67 42 38 13 q 139 72 97 72 q 212 42 182 72 q 242 -31 242 13 q 212 -102 242 -72 q 139 -132 182 -132 q 67 -102 97 -132 q 38 -31 38 -72 z "},"ल":{"ha":1067,"x_min":-28,"x_max":1067,"o":"m 1067 793 l 922 793 l 922 0 l 781 0 l 781 481 q 726 493 756 493 q 617 428 658 493 q 563 253 575 364 l 421 278 q 460 433 432 371 q 394 495 428 474 q 319 517 360 517 q 240 481 272 517 q 207 382 207 446 q 262 208 207 289 q 422 35 317 126 l 339 -50 q 65 397 65 178 q 133 573 65 511 q 307 635 200 635 q 515 522 428 635 q 710 611 594 611 q 781 601 744 611 l 781 793 l -28 793 l -28 908 l 1067 908 l 1067 793 z "},"ळ":{"ha":1075,"x_min":-28,"x_max":1075,"o":"m 856 793 l 856 663 q 980 568 933 636 q 1026 401 1026 500 q 992 256 1026 317 q 900 162 958 194 q 772 129 842 129 q 639 165 690 129 q 547 258 588 200 q 335 131 461 131 q 202 163 261 131 q 109 258 143 196 q 75 404 75 319 q 108 551 75 489 q 199 645 142 613 q 329 678 257 678 q 463 642 411 678 q 553 547 514 607 q 714 671 624 650 l 714 793 l -28 793 l -28 908 l 1075 908 l 1075 793 l 856 793 m 332 247 q 416 288 382 247 q 479 401 450 329 q 497 443 490 429 q 428 529 465 497 q 332 561 390 561 q 249 518 281 561 q 217 404 217 475 q 249 290 217 333 q 332 247 281 247 m 768 246 q 852 288 819 246 q 885 401 885 331 q 852 516 885 472 q 768 560 819 560 q 685 519 719 560 q 622 404 651 478 q 604 363 611 376 q 672 278 633 310 q 768 246 710 246 z "},"ऴ":{"ha":1075,"x_min":-28,"x_max":1075,"o":"m 0 0 m 856 793 l 856 663 q 980 568 933 636 q 1026 401 1026 500 q 992 256 1026 317 q 900 162 958 194 q 772 129 842 129 q 639 165 690 129 q 547 258 588 200 q 335 131 461 131 q 202 163 261 131 q 109 258 143 196 q 75 404 75 319 q 108 551 75 489 q 199 645 142 613 q 329 678 257 678 q 463 642 411 678 q 553 547 514 607 q 714 671 624 650 l 714 793 l -28 793 l -28 908 l 1075 908 l 1075 793 l 856 793 m 332 247 q 416 288 382 247 q 479 401 450 329 q 497 443 490 429 q 428 529 465 497 q 332 561 390 561 q 249 518 281 561 q 217 404 217 475 q 249 290 217 333 q 332 247 281 247 m 768 246 q 852 288 819 246 q 885 401 885 331 q 852 516 885 472 q 768 560 819 560 q 685 519 719 560 q 622 404 651 478 q 604 363 611 376 q 672 278 633 310 q 768 246 710 246 m 446 -11 q 476 62 446 32 q 547 92 506 92 q 620 62 590 92 q 650 -11 650 32 q 620 -83 650 -53 q 547 -112 590 -112 q 476 -83 506 -112 q 446 -11 446 -53 z "},"व":{"ha":896,"x_min":-28,"x_max":896,"o":"m 896 793 l 751 793 l 751 0 l 610 0 l 610 250 q 483 164 547 197 q 343 131 418 131 q 192 166 256 131 q 95 260 128 201 q 63 389 63 318 q 99 531 63 468 q 201 631 136 594 q 350 667 267 667 q 494 633 428 667 q 610 549 561 599 l 610 793 l -28 793 l -28 908 l 896 908 l 896 793 m 349 249 q 481 291 411 249 q 610 399 550 333 l 610 401 q 495 509 558 469 q 364 549 432 549 q 249 504 294 549 q 204 393 204 460 q 243 290 204 331 q 349 249 282 249 z "},"श":{"ha":1064,"x_min":-28,"x_max":1064,"o":"m 1064 793 l 919 793 l 919 0 l 779 0 l 779 793 l 574 793 q 622 621 622 725 q 580 463 622 539 q 470 328 538 386 q 332 242 403 271 l 488 4 l 364 -64 l 219 221 q 101 260 146 229 q 56 335 56 292 q 94 408 56 381 q 203 438 133 436 l 263 346 q 406 446 343 375 q 222 558 288 489 q 157 711 157 626 q 175 793 157 754 l -28 793 l -28 908 l 1064 908 l 1064 793 m 481 635 q 451 748 481 703 q 375 793 422 793 q 322 771 344 793 q 299 704 299 749 q 344 611 299 653 q 464 543 390 569 q 481 635 481 588 z "},"ष":{"ha":835,"x_min":-28,"x_max":835,"o":"m 835 793 l 690 793 l 690 0 l 549 0 l 549 251 q 365 192 454 192 q 177 256 242 192 q 113 446 113 321 l 113 793 l -28 793 l -28 908 l 835 908 l 835 793 m 549 793 l 257 793 l 549 486 l 549 793 m 254 442 q 286 342 254 374 q 374 311 318 311 q 461 328 419 311 q 546 375 503 346 l 254 683 l 254 442 z "},"स":{"ha":985,"x_min":-28,"x_max":988,"o":"m 988 793 l 842 793 l 842 0 l 700 0 l 700 311 q 638 290 674 299 q 564 281 601 281 q 440 301 496 281 q 332 367 383 321 q 268 356 296 356 q 224 363 247 356 q 303 254 247 313 l 508 43 l 422 -43 l 246 140 q 130 280 168 218 q 78 401 92 342 q 63 550 65 461 l 190 567 q 194 485 190 522 q 236 474 213 474 q 294 500 267 474 q 322 579 322 526 q 305 687 322 631 q 257 793 288 743 l -28 793 l -28 908 l 988 908 l 988 793 m 700 793 l 400 793 q 446 683 429 742 q 463 568 463 625 q 422 433 463 488 q 564 397 488 397 q 700 435 644 397 l 700 793 z "},"ह":{"ha":803,"x_min":-28,"x_max":803,"o":"m 314 550 q 232 481 232 550 q 278 406 232 433 q 447 446 350 446 q 584 417 524 446 q 679 339 644 389 q 714 226 714 289 q 688 126 714 169 q 624 46 661 82 l 511 114 q 574 229 574 167 q 539 301 574 271 q 447 331 504 331 q 335 293 376 331 q 294 196 294 256 q 372 47 294 114 q 606 -58 450 -21 l 568 -169 q 263 -24 371 -124 q 154 206 154 75 q 193 328 154 272 q 117 403 143 363 q 92 499 92 444 q 136 619 92 574 q 274 665 181 665 l 494 665 l 494 793 l -28 793 l -28 908 l 803 908 l 803 793 l 635 793 l 635 550 l 314 550 z "},"क़":{"ha":1186,"x_min":-28,"x_max":1186,"o":"m 0 0 m 679 793 l 679 522 q 786 596 733 569 q 896 622 839 622 q 1023 590 969 622 q 1105 505 1076 558 q 1133 389 1133 451 q 986 81 1133 221 l 863 163 q 992 390 992 285 q 964 474 992 444 q 892 504 936 504 q 788 468 839 504 q 679 368 736 432 l 679 0 l 538 0 l 538 258 q 428 185 483 213 q 310 158 374 158 q 175 190 232 158 q 88 275 118 222 q 57 392 57 328 q 90 518 57 461 q 179 608 122 575 q 307 640 236 640 q 434 613 375 640 q 538 544 493 586 l 538 793 l -28 793 l -28 908 l 1186 908 l 1186 793 l 679 793 m 321 275 q 538 401 418 275 l 538 403 q 441 490 494 457 q 332 522 388 522 q 237 485 275 522 q 199 393 199 449 q 233 308 199 342 q 321 275 267 275 m 153 -35 q 183 38 153 8 q 254 68 213 68 q 327 38 297 68 q 357 -35 357 8 q 327 -106 357 -76 q 254 -136 297 -136 q 183 -106 213 -136 q 153 -35 153 -76 z "},"ख़":{"ha":1192,"x_min":-28,"x_max":1192,"o":"m 0 0 m 1192 793 l 1049 793 l 1049 -15 l 907 -15 l 907 122 q 737 32 832 64 q 549 0 642 0 q 296 69 404 0 q 130 265 188 139 q 76 558 72 392 l 203 574 q 204 493 203 518 q 240 481 221 481 q 288 506 268 481 q 308 586 308 532 q 294 688 308 631 q 258 793 281 744 l -28 793 l -28 908 l 1192 908 l 1192 793 m 907 793 l 400 793 q 449 575 449 681 q 424 456 449 504 q 359 385 399 408 q 275 363 319 363 q 225 372 250 363 q 345 182 260 246 q 549 118 431 118 q 736 154 642 118 q 907 257 831 190 l 907 335 q 714 253 808 253 q 599 281 649 253 q 524 356 550 310 q 499 454 499 403 q 528 570 499 519 q 608 649 558 621 q 717 678 658 678 q 821 654 771 678 q 907 596 871 631 l 907 793 m 907 464 q 733 569 831 569 q 659 539 688 569 q 631 461 631 508 q 658 388 631 417 q 731 360 686 360 q 819 388 772 360 q 907 464 865 417 m 103 -79 q 133 -6 103 -36 q 204 24 163 24 q 277 -6 247 24 q 307 -79 307 -36 q 277 -151 307 -121 q 204 -181 247 -181 q 133 -151 163 -181 q 103 -79 103 -121 z "},"ग़":{"ha":893,"x_min":-28,"x_max":893,"o":"m 0 0 m 893 793 l 749 793 l 749 0 l 608 0 l 608 793 l 353 793 l 353 394 q 322 284 353 322 q 235 246 290 246 q 131 290 174 246 q 89 400 89 333 q 100 467 89 429 l 213 467 l 213 793 l -28 793 l -28 908 l 893 908 l 893 793 m 118 33 q 148 106 118 76 q 219 136 178 136 q 292 106 263 136 q 322 33 322 76 q 292 -38 322 -8 q 219 -68 263 -68 q 148 -38 178 -68 q 118 33 118 -8 z "},"ज़":{"ha":1050,"x_min":-28,"x_max":1050,"o":"m 0 0 m 1050 793 l 906 793 l 906 0 l 764 0 l 764 501 l 535 501 q 656 301 656 408 q 626 199 656 243 q 549 131 597 156 q 444 107 500 107 q 186 225 283 107 q 26 572 89 343 l 139 610 q 263 321 190 419 q 415 222 336 222 q 488 247 463 222 q 514 314 514 271 q 469 420 514 369 q 333 536 425 471 l 368 617 l 764 617 l 764 793 l -28 793 l -28 908 l 1050 908 l 1050 793 m 100 -42 q 130 31 100 1 q 201 61 160 61 q 274 31 244 61 q 304 -42 304 1 q 274 -113 304 -83 q 201 -143 244 -143 q 130 -113 160 -143 q 100 -42 100 -83 z "},"ड़":{"ha":817,"x_min":-28,"x_max":818,"o":"m 0 0 m 346 546 q 289 528 308 546 q 269 479 269 511 q 399 401 269 401 q 533 413 463 401 q 660 449 603 425 q 743 356 708 414 q 778 236 778 297 q 694 65 778 129 q 458 0 610 0 q 234 52 338 0 q 49 199 131 104 l 117 286 q 269 162 185 207 q 447 117 354 117 q 588 149 540 117 q 636 229 636 181 q 603 313 636 272 q 401 285 501 285 q 195 341 263 285 q 128 485 128 397 q 181 612 128 561 q 329 663 233 663 l 531 663 l 531 793 l -28 793 l -28 908 l 818 908 l 818 793 l 671 793 l 671 546 l 346 546 m 353 -199 q 383 -126 353 -156 q 454 -96 413 -96 q 527 -126 497 -96 q 557 -199 557 -156 q 527 -270 557 -240 q 454 -300 497 -300 q 383 -270 413 -300 q 353 -199 353 -240 z "},"ढ़":{"ha":803,"x_min":-28,"x_max":803,"o":"m 0 0 m 399 543 q 258 499 304 543 q 211 385 211 456 q 256 225 211 293 q 365 124 300 157 q 332 233 332 174 q 388 365 332 314 q 525 415 444 415 q 629 390 582 415 q 703 318 676 364 q 731 214 731 272 q 694 91 731 142 q 598 15 657 40 q 474 -11 539 -11 q 280 40 374 -11 q 128 183 186 92 q 69 390 69 275 q 147 585 69 511 q 379 660 225 660 l 481 660 l 481 793 l -28 793 l -28 908 l 803 908 l 803 793 l 621 793 l 621 543 l 399 543 m 531 304 q 476 280 497 304 q 454 214 454 256 q 489 103 454 150 q 577 140 546 110 q 608 217 608 171 q 586 281 608 258 q 531 304 564 304 m 344 -206 q 374 -133 344 -162 q 446 -103 404 -103 q 519 -133 489 -103 q 549 -206 549 -162 q 519 -277 549 -247 q 446 -307 489 -307 q 374 -277 404 -307 q 344 -206 344 -247 z "},"फ़":{"ha":1163,"x_min":-28,"x_max":1163,"o":"m 0 0 m 664 532 q 765 597 715 574 q 869 621 815 621 q 997 589 943 621 q 1078 504 1050 557 q 1107 389 1107 451 q 1068 222 1107 297 q 960 79 1029 146 l 836 161 q 965 390 965 283 q 939 474 965 443 q 865 504 913 504 q 664 393 785 504 l 664 0 l 522 0 l 522 294 q 351 240 443 240 q 174 303 235 240 q 113 488 113 365 l 113 793 l -28 793 l -28 908 l 1163 908 l 1163 793 l 664 793 l 664 532 m 522 793 l 254 793 l 254 483 q 360 358 254 358 q 522 419 447 358 l 522 793 m 104 54 q 134 127 104 97 q 206 157 164 157 q 278 127 249 157 q 308 54 308 97 q 278 -17 308 13 q 206 -47 249 -47 q 134 -17 164 -47 q 104 54 104 13 z "},"य़":{"ha":875,"x_min":-28,"x_max":875,"o":"m 0 0 m 875 793 l 729 793 l 729 0 l 589 0 l 589 264 q 481 197 542 222 q 354 171 419 171 q 142 250 229 171 q 26 471 54 329 q 193 544 143 504 q 243 639 243 583 q 138 793 243 726 l -28 793 l -28 908 l 875 908 l 875 793 m 589 793 l 306 793 q 382 636 382 725 q 332 503 382 567 q 185 399 282 440 q 354 289 236 289 q 478 321 415 289 q 589 407 540 353 l 589 793 m 0 44 q 30 117 0 88 q 101 147 60 147 q 174 117 144 147 q 204 44 204 88 q 174 -27 204 3 q 101 -57 144 -57 q 30 -27 60 -57 q 0 44 0 3 z "},"ॹ":{"ha":1050,"x_min":-28,"x_max":1050,"o":"m 0 0 m 1050 793 l 906 793 l 906 0 l 764 0 l 764 501 l 535 501 q 656 301 656 408 q 626 199 656 243 q 549 131 597 156 q 444 107 500 107 q 186 225 283 107 q 26 572 89 343 l 139 610 q 263 321 190 419 q 415 222 336 222 q 488 247 463 222 q 514 314 514 271 q 469 420 514 369 q 333 536 425 471 l 368 617 l 764 617 l 764 793 l -28 793 l -28 908 l 1050 908 l 1050 793 m 167 -64 q 197 9 167 -21 q 268 39 226 39 q 341 9 311 39 q 371 -64 371 -21 q 341 -135 371 -106 q 268 -165 311 -165 q 197 -135 226 -165 q 167 -64 167 -106 m 483 -64 q 513 9 483 -21 q 585 39 543 39 q 658 9 628 39 q 688 -64 688 -21 q 658 -135 688 -106 q 585 -165 628 -165 q 513 -135 543 -165 q 483 -64 483 -106 m 325 -264 q 355 -191 325 -221 q 426 -161 385 -161 q 499 -191 469 -161 q 529 -264 529 -221 q 499 -335 529 -306 q 426 -365 469 -365 q 355 -335 385 -365 q 325 -264 325 -306 z "},"ॺ":{"ha":875,"x_min":-28,"x_max":875,"o":"m 875 793 l 729 793 l 729 0 l 589 0 l 589 264 q 481 197 542 222 q 354 171 419 171 q 142 250 229 171 q 26 471 54 329 q 193 544 143 504 q 243 639 243 583 q 138 793 243 726 l -28 793 l -28 908 l 875 908 l 875 793 m 589 793 l 306 793 q 338 760 318 782 l 339 760 l 589 432 l 589 793 m 185 399 q 354 289 236 289 q 452 309 403 289 q 544 365 501 329 l 375 586 q 312 482 360 531 q 185 399 264 433 z "},"ॻ":{"ha":893,"x_min":-28,"x_max":893,"o":"m 893 793 l 749 793 l 749 -67 l 122 -67 l 122 50 l 608 50 l 608 793 l 353 793 l 353 394 q 322 284 353 322 q 235 246 290 246 q 131 290 174 246 q 89 400 89 333 q 100 467 89 429 l 213 467 l 213 793 l -28 793 l -28 908 l 893 908 l 893 793 z "},"ॼ":{"ha":1050,"x_min":-28,"x_max":1050,"o":"m 1050 793 l 906 793 l 906 -83 l 58 -83 l 58 33 l 764 33 l 764 501 l 535 501 q 656 301 656 408 q 626 199 656 243 q 549 131 597 156 q 444 107 500 107 q 186 225 283 107 q 26 572 89 343 l 139 610 q 263 321 190 419 q 415 222 336 222 q 488 247 463 222 q 514 314 514 271 q 469 420 514 369 q 333 536 425 471 l 368 617 l 764 617 l 764 793 l -28 793 l -28 908 l 1050 908 l 1050 793 z "},"ॾ":{"ha":817,"x_min":-28,"x_max":818,"o":"m 346 546 q 289 528 308 546 q 269 479 269 511 q 399 401 269 401 q 533 413 463 401 q 660 449 603 425 q 743 356 708 414 q 778 236 778 297 q 694 65 778 129 q 458 0 610 0 q 234 52 338 0 q 49 199 131 104 l 117 286 q 269 162 185 207 q 447 117 354 117 q 588 149 540 117 q 636 229 636 181 q 603 313 636 272 q 401 285 501 285 q 195 341 263 285 q 128 485 128 397 q 181 612 128 561 q 329 663 233 663 l 531 663 l 531 793 l -28 793 l -28 908 l 818 908 l 818 793 l 671 793 l 671 546 l 346 546 m 75 -126 l 753 -126 l 753 -242 l 75 -242 l 75 -126 z "},"ॿ":{"ha":899,"x_min":-28,"x_max":896,"o":"m 896 793 l 751 793 l 751 -83 l 113 -83 l 113 33 l 610 33 l 610 250 q 483 164 547 197 q 343 131 418 131 q 192 166 256 131 q 95 260 128 201 q 63 389 63 318 q 99 531 63 468 q 201 631 136 594 q 350 667 267 667 q 494 633 428 667 q 610 549 561 599 l 610 793 l -28 793 l -28 908 l 896 908 l 896 793 m 494 300 q 610 399 553 336 l 610 401 q 495 509 558 469 q 364 549 432 549 q 332 546 354 549 l 494 300 m 204 393 q 243 290 204 331 q 349 249 282 249 q 431 267 386 249 l 265 518 q 220 465 236 497 q 204 393 204 432 z "},"⁄":{"ha":122,"x_min":-267,"x_max":397,"o":"m 397 915 l -158 -46 l -267 19 l 289 981 l 397 915 z "},"½":{"ha":1378,"x_min":104,"x_max":1324,"o":"m 104 0 m 1056 915 l 500 -46 l 392 19 l 947 981 l 1056 915 m 481 479 l 481 378 l 121 378 l 121 479 l 235 479 l 235 825 l 138 788 l 104 875 l 256 944 l 367 944 l 367 479 l 481 479 m 897 483 q 1100 576 986 576 q 1255 527 1201 576 q 1308 404 1308 478 q 1273 290 1308 343 q 1153 163 1238 236 l 1085 103 l 1085 101 l 1324 101 l 1324 0 l 917 0 l 917 92 l 1057 211 q 1150 311 1124 268 q 1176 394 1176 354 q 1155 454 1176 432 q 1097 476 1133 476 q 1020 456 1058 476 q 939 396 982 435 l 897 483 z "},"¼":{"ha":1340,"x_min":104,"x_max":1324,"o":"m 104 0 m 1056 915 l 500 -46 l 392 19 l 947 981 l 1056 915 m 481 479 l 481 378 l 121 378 l 121 479 l 235 479 l 235 825 l 138 788 l 104 875 l 256 944 l 367 944 l 367 479 l 481 479 m 1324 124 l 1235 124 l 1235 -7 l 1106 -7 l 1106 124 l 831 124 l 831 201 l 1099 567 l 1100 567 l 1235 567 l 1235 225 l 1324 225 l 1324 124 m 1106 225 l 1106 314 l 1108 432 l 1028 319 l 963 225 l 1106 225 z "},"¾":{"ha":1274,"x_min":46,"x_max":1257,"o":"m 46 0 m 989 915 l 433 -46 l 325 19 l 881 981 l 989 915 m 357 685 q 447 631 411 668 q 482 539 482 594 q 453 450 482 490 q 370 386 425 410 q 240 363 315 363 q 136 377 183 363 q 46 425 89 392 l 85 510 q 161 469 124 482 q 243 457 199 457 q 323 481 293 457 q 353 544 353 506 q 328 603 353 582 q 258 625 303 625 q 169 610 219 625 l 157 700 q 284 740 246 719 q 322 807 322 761 q 303 847 322 832 q 251 861 285 861 q 176 844 217 861 q 101 796 136 828 l 63 871 q 157 933 104 911 q 265 954 210 954 q 401 917 350 954 q 451 817 451 879 q 426 740 451 774 q 357 685 400 707 m 1257 124 l 1168 124 l 1168 -7 l 1039 -7 l 1039 124 l 764 124 l 764 201 l 1032 567 l 1033 567 l 1168 567 l 1168 225 l 1257 225 l 1257 124 m 1039 225 l 1039 314 l 1042 432 l 961 319 l 896 225 l 1039 225 z "},"¹":{"ha":532,"x_min":104,"x_max":481,"o":"m 481 731 l 481 629 l 121 629 l 121 731 l 235 731 l 235 1076 l 138 1039 l 104 1126 l 256 1196 l 367 1196 l 367 731 l 481 731 z "},"²":{"ha":532,"x_min":51,"x_max":478,"o":"m 51 1113 q 254 1206 140 1206 q 409 1156 356 1206 q 463 1033 463 1107 q 427 919 463 972 q 307 792 392 865 l 239 732 l 239 731 l 478 731 l 478 629 l 71 629 l 71 721 l 211 840 q 304 940 278 897 q 331 1024 331 983 q 309 1083 331 1061 q 251 1106 288 1106 q 174 1085 213 1106 q 93 1025 136 1064 l 51 1113 z "},"³":{"ha":533,"x_min":46,"x_max":482,"o":"m 357 936 q 447 883 411 919 q 482 790 482 846 q 453 701 482 742 q 370 638 425 661 q 240 614 315 614 q 136 628 183 614 q 46 676 89 643 l 85 761 q 161 721 124 733 q 243 708 199 708 q 323 733 293 708 q 353 796 353 757 q 328 855 353 833 q 258 876 303 876 q 169 861 219 876 l 157 951 q 284 992 246 971 q 322 1058 322 1013 q 303 1098 322 1083 q 251 1113 285 1113 q 176 1096 217 1113 q 101 1047 136 1079 l 63 1122 q 157 1184 104 1163 q 265 1206 210 1206 q 401 1168 350 1206 q 451 1068 451 1131 q 426 992 451 1025 q 357 936 400 958 z "},"०":{"ha":876,"x_min":135,"x_max":738,"o":"m 436 90 q 271 131 339 90 q 169 242 203 172 q 135 397 135 311 q 169 556 135 485 q 271 668 203 626 q 436 710 339 710 q 600 668 532 710 q 703 556 668 626 q 738 397 738 485 q 703 242 738 311 q 600 131 668 172 q 436 90 532 90 m 435 208 q 550 263 508 208 q 592 397 592 318 q 550 537 592 482 q 435 592 508 592 q 320 537 361 592 q 279 397 279 482 q 320 263 279 317 q 435 208 361 208 z "},"१":{"ha":876,"x_min":175,"x_max":733,"o":"m 628 63 q 709 -35 685 7 q 733 -119 733 -78 q 717 -198 733 -161 q 663 -275 700 -235 l 539 -212 q 581 -128 581 -167 q 567 -70 581 -97 q 515 -6 554 -43 l 200 304 q 385 468 335 421 q 231 574 286 508 q 175 731 175 639 q 246 894 175 833 q 431 956 317 956 q 562 924 504 956 q 651 837 619 892 q 683 714 683 782 q 647 578 683 644 q 551 450 610 513 q 393 294 493 388 l 628 63 m 317 719 q 356 621 317 663 q 469 558 396 579 q 542 718 542 646 q 511 805 542 771 q 431 839 481 839 q 348 806 379 839 q 317 719 317 774 z "},"२":{"ha":876,"x_min":132,"x_max":729,"o":"m 729 621 q 653 401 729 492 q 450 275 576 311 l 690 -64 l 563 -135 l 331 263 q 202 303 251 271 q 153 381 153 336 q 192 457 153 426 q 299 489 231 488 l 369 389 q 529 475 469 411 q 589 631 589 539 q 539 763 589 710 q 401 815 489 815 q 194 742 319 815 l 132 851 q 401 932 272 932 q 568 895 493 932 q 686 788 643 858 q 729 621 729 717 z "},"३":{"ha":876,"x_min":96,"x_max":783,"o":"m 783 322 q 705 136 783 213 q 486 28 626 60 l 615 -165 l 492 -235 l 365 15 q 246 55 292 21 q 200 135 200 89 q 240 206 200 178 q 347 236 279 235 l 414 136 q 581 206 521 154 q 642 331 642 258 q 600 434 642 394 q 481 474 558 474 q 275 408 389 474 l 215 517 q 468 590 340 589 q 490 688 490 635 q 451 777 490 742 q 344 813 413 813 q 250 794 294 813 q 160 743 206 775 l 96 851 q 346 931 219 931 q 489 900 424 931 q 593 810 554 869 q 632 669 632 751 q 610 568 632 615 q 737 475 690 538 q 783 322 783 413 z "},"४":{"ha":876,"x_min":29,"x_max":843,"o":"m 544 553 q 685 410 643 481 q 728 261 728 339 q 690 137 728 192 q 588 51 651 82 q 447 21 524 21 q 308 53 372 21 q 205 140 243 85 q 167 261 167 196 q 204 408 167 340 q 335 550 242 475 q 178 664 246 613 q 29 788 111 715 l 108 892 l 225 794 q 435 626 360 679 q 572 740 499 675 q 764 915 644 804 l 843 814 q 544 553 675 653 m 447 139 q 546 174 504 139 q 588 261 588 210 q 555 365 588 318 q 443 474 522 413 q 340 363 371 411 q 308 261 308 314 q 349 174 308 208 q 447 139 389 139 z "},"५":{"ha":876,"x_min":138,"x_max":872,"o":"m 747 -142 l 590 192 q 408 151 506 151 q 211 224 285 151 q 138 417 138 296 q 304 910 138 610 l 440 850 q 319 613 360 713 q 279 417 279 514 q 315 306 279 343 q 410 268 351 268 q 535 308 481 268 l 483 417 q 541 468 507 447 q 614 489 575 489 q 698 455 667 489 q 729 368 729 421 q 678 254 729 308 l 872 -76 l 747 -142 z "},"६":{"ha":876,"x_min":53,"x_max":888,"o":"m 763 -211 l 635 60 q 450 18 551 18 q 293 50 361 18 q 187 141 225 82 q 149 276 149 200 q 218 450 149 376 q 93 566 133 504 q 53 701 53 628 q 85 816 53 763 q 175 901 117 869 q 308 933 233 933 q 397 924 358 933 q 474 897 436 914 l 442 788 q 328 817 383 817 q 230 780 265 817 q 194 689 194 743 q 222 604 194 644 q 318 525 249 564 q 563 586 421 579 l 576 469 q 365 414 439 468 q 290 272 290 360 q 335 170 290 206 q 451 135 381 135 q 582 172 529 135 l 531 282 q 588 330 553 311 q 661 349 622 349 q 741 317 711 349 q 771 235 771 285 q 724 125 771 176 l 888 -146 l 763 -211 z "},"७":{"ha":876,"x_min":32,"x_max":849,"o":"m 565 885 q 715 829 650 885 q 814 674 779 774 q 849 446 849 574 q 763 140 849 256 q 524 24 678 24 q 188 231 313 24 q 32 892 63 439 l 153 913 q 278 333 182 525 q 524 140 374 140 q 649 206 603 140 q 704 386 694 272 q 614 367 654 367 q 457 402 521 367 q 362 498 393 438 q 331 631 331 558 q 359 756 331 697 q 441 849 388 814 q 565 885 494 885 m 608 483 q 706 504 651 483 q 660 698 697 628 q 565 768 622 768 q 499 728 525 768 q 472 631 472 689 q 505 524 472 565 q 608 483 538 483 z "},"८":{"ha":876,"x_min":94,"x_max":800,"o":"m 413 -44 q 242 -8 314 -44 q 133 92 171 28 q 94 240 94 157 q 147 438 94 340 q 292 638 200 535 q 582 944 383 742 l 682 851 q 417 577 508 681 q 281 394 325 474 q 236 240 236 314 q 281 119 236 165 q 413 74 326 74 q 568 115 490 74 q 719 236 646 156 l 800 126 q 617 -1 713 42 q 413 -44 521 -44 z "},"९":{"ha":876,"x_min":56,"x_max":883,"o":"m 776 63 q 859 -35 835 8 q 883 -119 883 -78 q 867 -199 883 -162 q 811 -275 850 -235 l 689 -212 q 731 -128 731 -167 q 717 -70 731 -97 q 664 -4 704 -43 l 239 408 q 140 508 176 467 q 80 605 104 550 q 56 729 56 660 q 86 843 56 792 q 175 925 117 894 q 313 956 233 956 q 494 888 428 956 q 560 715 560 821 q 504 569 560 633 q 351 474 449 506 l 358 467 l 776 63 m 313 839 q 228 806 260 839 q 197 721 197 774 q 213 643 197 679 q 260 569 228 607 q 379 629 340 589 q 418 724 418 669 q 390 807 418 775 q 313 839 361 839 z "},"*":{"ha":703,"x_min":49,"x_max":654,"o":"m 410 625 l 583 450 l 465 367 l 350 579 l 238 367 l 119 450 l 293 626 l 49 672 l 92 804 l 313 703 l 282 944 l 422 944 l 394 704 l 611 804 l 654 672 l 410 625 z "},"\\":{"ha":535,"x_min":-10,"x_max":546,"o":"m -10 983 l 147 983 l 546 -328 l 390 -328 l -10 983 z "},"·":{"ha":413,"x_min":107,"x_max":307,"o":"m 207 286 q 136 316 165 286 q 107 386 107 346 q 136 457 107 428 q 207 486 165 486 q 278 457 249 486 q 307 386 307 428 q 278 316 307 346 q 207 286 249 286 z "},"•":{"ha":733,"x_min":190,"x_max":543,"o":"m 367 208 q 278 232 319 208 q 214 297 238 256 q 190 385 190 338 q 214 473 190 432 q 278 538 238 514 q 367 563 319 563 q 455 538 414 563 q 519 473 496 514 q 543 385 543 432 q 519 297 543 338 q 455 232 496 256 q 367 208 414 208 z "},":":{"ha":414,"x_min":107,"x_max":307,"o":"m 207 529 q 136 558 165 529 q 107 628 107 588 q 136 699 107 669 q 207 728 165 728 q 278 699 249 728 q 307 628 307 669 q 278 558 307 588 q 207 529 249 529 m 207 -11 q 136 18 165 -11 q 107 89 107 47 q 136 159 107 129 q 207 189 165 189 q 278 159 249 189 q 307 89 307 129 q 278 18 307 47 q 207 -11 249 -11 z "},",":{"ha":414,"x_min":60,"x_max":292,"o":"m 60 -162 q 143 18 143 -104 q 117 161 143 86 l 275 183 q 292 60 292 117 q 244 -113 292 -40 q 111 -231 196 -186 l 60 -162 z "},"…":{"ha":1167,"x_min":107,"x_max":1060,"o":"m 207 -11 q 136 18 165 -11 q 107 89 107 47 q 136 159 107 129 q 207 189 165 189 q 278 159 249 189 q 307 89 307 129 q 278 18 307 47 q 207 -11 249 -11 m 583 -11 q 513 18 542 -11 q 483 89 483 47 q 513 159 483 129 q 583 189 542 189 q 654 159 625 189 q 683 89 683 129 q 654 18 683 47 q 583 -11 625 -11 m 960 -11 q 889 18 918 -11 q 860 89 860 47 q 889 159 860 129 q 960 189 918 189 q 1031 159 1001 189 q 1060 89 1060 129 q 1031 18 1060 47 q 960 -11 1001 -11 z "},"!":{"ha":413,"x_min":107,"x_max":307,"o":"m 115 944 l 282 944 l 268 281 l 143 281 l 115 944 m 207 -11 q 136 18 165 -11 q 107 89 107 47 q 136 159 107 129 q 207 189 165 189 q 278 159 249 189 q 307 89 307 129 q 278 18 307 47 q 207 -11 249 -11 z "},"¡":{"ha":413,"x_min":106,"x_max":306,"o":"m 106 0 m 297 -179 l 131 -179 l 144 485 l 269 485 l 297 -179 m 206 776 q 276 747 247 776 q 306 676 306 718 q 276 606 306 636 q 206 576 247 576 q 135 606 164 576 q 106 676 106 636 q 135 747 106 718 q 206 776 164 776 z "},"#":{"ha":983,"x_min":32,"x_max":951,"o":"m 769 582 l 701 363 l 849 363 l 813 247 l 667 247 l 590 0 l 451 0 l 528 247 l 317 247 l 240 0 l 101 0 l 178 247 l 32 247 l 67 363 l 213 363 l 281 582 l 135 582 l 171 697 l 315 697 l 392 944 l 531 944 l 454 697 l 665 697 l 742 944 l 881 944 l 804 697 l 951 697 l 915 582 l 769 582 m 631 582 l 419 582 l 351 363 l 563 363 l 631 582 z "},".":{"ha":414,"x_min":107,"x_max":307,"o":"m 207 -11 q 136 18 165 -11 q 107 89 107 47 q 136 159 107 129 q 207 189 165 189 q 278 159 249 189 q 307 89 307 129 q 278 18 307 47 q 207 -11 249 -11 z "},"?":{"ha":669,"x_min":99,"x_max":579,"o":"m 167 521 q 363 581 304 546 q 421 689 421 617 q 352 790 421 750 q 99 829 283 829 l 99 946 q 466 874 353 946 q 579 688 579 801 q 504 521 579 586 q 293 418 429 456 l 286 281 l 178 281 l 167 521 m 232 -11 q 161 18 190 -11 q 132 89 132 47 q 161 159 132 129 q 232 189 190 189 q 303 159 274 189 q 332 89 332 129 q 303 18 332 47 q 232 -11 274 -11 z "},"¿":{"ha":669,"x_min":93,"x_max":574,"o":"m 93 0 m 506 244 q 310 184 368 219 q 251 76 251 149 q 320 -24 251 15 q 574 -64 389 -64 l 574 -181 q 206 -108 319 -181 q 93 78 93 -36 q 168 244 93 179 q 379 347 243 310 l 386 485 l 494 485 l 506 244 m 440 776 q 511 747 482 776 q 540 676 540 718 q 511 606 540 636 q 440 576 482 576 q 369 606 399 576 q 340 676 340 636 q 369 747 340 718 q 440 776 399 776 z "},"\"":{"ha":719,"x_min":129,"x_max":592,"o":"m 129 615 m 129 1049 l 296 1049 l 275 615 l 158 615 l 129 1049 m 425 1049 l 592 1049 l 571 615 l 454 615 l 425 1049 z "},"'":{"ha":425,"x_min":129,"x_max":296,"o":"m 129 1049 l 296 1049 l 275 615 l 158 615 l 129 1049 z "},";":{"ha":414,"x_min":60,"x_max":307,"o":"m 207 529 q 136 558 165 529 q 107 628 107 588 q 136 699 107 669 q 207 728 165 728 q 278 699 249 728 q 307 628 307 669 q 278 558 307 588 q 207 529 249 529 m 60 -162 q 142 15 142 -104 q 117 154 142 83 l 275 176 q 292 54 292 110 q 244 -115 292 -44 q 111 -231 196 -186 l 60 -162 z "},"/":{"ha":535,"x_min":-10,"x_max":546,"o":"m 389 983 l 546 983 l 146 -328 l -10 -328 l 389 983 z "},"_":{"ha":694,"x_min":0,"x_max":694,"o":"m 0 -243 l 694 -243 l 694 -356 l 0 -356 l 0 -243 z "},"{":{"ha":481,"x_min":19,"x_max":426,"o":"m 426 -181 q 219 -135 300 -181 q 139 22 139 -89 q 151 126 139 61 q 165 242 165 199 q 130 317 165 292 q 19 350 94 342 l 19 450 q 128 483 93 457 q 164 557 164 508 q 150 674 164 599 q 138 778 138 739 q 219 935 138 889 q 426 979 301 981 l 426 875 q 288 785 288 876 q 301 656 288 728 q 314 556 314 599 q 286 458 314 499 q 207 401 258 418 l 207 399 q 287 342 260 382 q 314 243 314 303 q 301 143 314 200 q 288 15 288 74 q 323 -52 288 -29 q 426 -75 358 -75 l 426 -181 z "},"}":{"ha":481,"x_min":54,"x_max":461,"o":"m 54 -75 q 159 -52 125 -76 q 193 15 193 -28 q 179 144 193 72 q 167 244 167 201 q 194 342 167 301 q 274 399 222 382 l 274 401 q 194 458 221 418 q 167 557 167 497 q 179 656 167 599 q 193 785 193 728 q 54 875 193 875 l 54 981 q 262 935 181 981 q 343 778 343 889 q 331 675 343 738 q 317 557 317 600 q 352 483 317 508 q 461 450 388 458 l 461 350 q 352 317 388 342 q 317 243 317 292 q 331 125 317 200 q 343 22 343 63 q 261 -135 343 -89 q 54 -179 179 -181 l 54 -75 z "},"[":{"ha":481,"x_min":101,"x_max":379,"o":"m 101 965 l 379 965 l 379 863 l 254 849 l 254 -60 l 379 -74 l 379 -176 l 101 -176 l 101 965 z "},"]":{"ha":481,"x_min":101,"x_max":379,"o":"m 101 -71 l 226 -60 l 226 849 l 101 860 l 101 965 l 379 965 l 379 -176 l 101 -176 l 101 -71 z "},"(":{"ha":449,"x_min":78,"x_max":403,"o":"m 314 -175 q 144 76 211 -75 q 78 408 78 226 q 144 741 78 590 q 314 992 211 892 l 403 918 q 281 697 329 836 q 232 408 232 558 q 281 118 232 256 q 403 -103 329 -19 l 314 -175 z "},")":{"ha":449,"x_min":46,"x_max":371,"o":"m 46 -101 q 169 118 121 -21 q 217 408 217 257 q 168 699 217 561 q 46 919 119 836 l 135 992 q 304 741 238 892 q 371 408 371 590 q 304 76 371 226 q 135 -175 238 -75 l 46 -101 z "},"—":{"ha":1389,"x_min":174,"x_max":1215,"o":"m 174 443 l 1215 443 l 1215 331 l 174 331 l 174 443 z "},"–":{"ha":694,"x_min":0,"x_max":694,"o":"m 0 443 l 694 443 l 694 331 l 0 331 l 0 443 z "},"-":{"ha":381,"x_min":28,"x_max":353,"o":"m 28 443 l 353 443 l 353 331 l 28 331 l 28 443 z "},"­":{"ha":833,"x_min":28,"x_max":353,"o":"m 28 331 m 28 443 l 353 443 l 353 331 l 28 331 l 28 443 z "},"«":{"ha":804,"x_min":63,"x_max":746,"o":"m 63 67 m 63 360 l 306 653 l 411 572 l 232 360 l 411 146 l 306 67 l 63 360 m 397 360 l 640 653 l 746 572 l 567 360 l 746 146 l 640 67 l 397 360 z "},"»":{"ha":804,"x_min":60,"x_max":743,"o":"m 60 67 m 60 147 l 239 360 l 60 574 l 165 653 l 408 360 l 165 67 l 60 147 m 394 147 l 574 360 l 394 574 l 500 653 l 743 360 l 500 67 l 394 147 z "},"‹":{"ha":471,"x_min":63,"x_max":411,"o":"m 63 360 l 306 653 l 411 572 l 232 360 l 411 146 l 306 67 l 63 360 z "},"›":{"ha":471,"x_min":60,"x_max":408,"o":"m 60 147 l 239 360 l 60 574 l 165 653 l 408 360 l 165 67 l 60 147 z "},"„":{"ha":719,"x_min":60,"x_max":597,"o":"m 60 0 m 60 -162 q 143 18 143 -104 q 117 161 143 86 l 275 183 q 292 60 292 117 q 244 -113 292 -40 q 111 -231 196 -186 l 60 -162 m 365 -162 q 449 18 449 -104 q 422 161 449 86 l 581 183 q 597 60 597 117 q 549 -113 597 -40 q 417 -231 501 -186 l 365 -162 z "},"“":{"ha":719,"x_min":121,"x_max":658,"o":"m 121 622 m 138 622 q 121 746 121 689 q 169 919 121 846 q 301 1036 217 992 l 353 968 q 271 788 271 910 q 296 644 271 715 l 138 622 m 443 622 q 426 746 426 689 q 474 919 426 846 q 607 1036 522 992 l 658 968 q 576 788 576 910 q 601 644 576 715 l 443 622 z "},"”":{"ha":719,"x_min":60,"x_max":597,"o":"m 60 622 m 60 690 q 142 872 142 751 q 117 1015 142 944 l 275 1036 q 292 913 292 969 q 244 741 292 814 q 111 622 196 668 l 60 690 m 365 690 q 447 872 447 751 q 422 1015 447 944 l 581 1036 q 597 913 597 969 q 549 741 597 814 q 417 622 501 668 l 365 690 z "},"‘":{"ha":414,"x_min":121,"x_max":353,"o":"m 138 622 q 121 746 121 689 q 169 919 121 846 q 301 1036 217 992 l 353 968 q 271 788 271 910 q 296 644 271 715 l 138 622 z "},"’":{"ha":414,"x_min":60,"x_max":292,"o":"m 60 690 q 142 872 142 751 q 117 1015 142 944 l 275 1036 q 292 913 292 969 q 244 741 292 814 q 111 622 196 668 l 60 690 z "},"‚":{"ha":414,"x_min":60,"x_max":292,"o":"m 60 0 m 60 -162 q 143 18 143 -104 q 117 161 143 86 l 275 183 q 292 60 292 117 q 244 -113 292 -40 q 111 -231 196 -186 l 60 -162 z "},"ॽ":{"ha":806,"x_min":140,"x_max":682,"o":"m 682 639 q 615 458 682 531 q 417 357 549 385 l 417 0 l 275 0 l 275 460 l 276 460 q 480 520 418 472 q 542 653 542 568 q 507 769 542 725 q 407 813 472 813 q 306 790 354 813 q 200 725 258 767 l 140 832 q 269 905 208 879 q 403 931 331 931 q 544 897 481 931 q 645 796 608 863 q 682 639 682 729 z "},"।":{"ha":546,"x_min":258,"x_max":400,"o":"m 258 908 l 400 908 l 400 0 l 258 0 l 258 908 z "},"॥":{"ha":914,"x_min":258,"x_max":768,"o":"m 258 908 l 400 908 l 400 0 l 258 0 l 258 908 m 626 908 l 768 908 l 768 0 l 626 0 l 626 908 z "},"॰":{"ha":703,"x_min":107,"x_max":593,"o":"m 350 135 q 172 203 238 135 q 107 378 107 272 q 172 556 107 486 q 350 626 236 626 q 528 556 464 626 q 593 378 593 486 q 528 203 593 272 q 350 135 463 135 m 349 251 q 422 287 396 251 q 447 378 447 322 q 422 473 447 436 q 349 510 396 510 q 276 473 301 510 q 250 378 250 436 q 276 287 250 322 q 349 251 301 251 z "},"ॱ":{"ha":463,"x_min":119,"x_max":324,"o":"m 119 747 m 119 849 q 149 921 119 890 q 221 951 179 951 q 294 921 264 951 q 324 849 324 890 q 294 777 324 807 q 221 747 264 747 q 149 777 179 747 q 119 849 119 807 z "}," ":{"ha":1128,"x_min":0,"x_max":0,"o":""}," ":{"ha":1128,"x_min":0,"x_max":0,"o":""}," ":{"ha":1494,"x_min":0,"x_max":0,"o":""}," ":{"ha":760,"x_min":0,"x_max":0,"o":""}," ":{"ha":854,"x_min":0,"x_max":0,"o":""}," ":{"ha":576,"x_min":0,"x_max":0,"o":""}," ":{"ha":465,"x_min":0,"x_max":0,"o":""}," ":{"ha":651,"x_min":0,"x_max":0,"o":""}," ":{"ha":515,"x_min":0,"x_max":0,"o":""}," ":{"ha":347,"x_min":0,"x_max":0,"o":""}," ":{"ha":539,"x_min":0,"x_max":0,"o":""}," ":{"ha":638,"x_min":0,"x_max":0,"o":""},"‍":{"ha":392,"x_min":0,"x_max":0,"o":""},"‌":{"ha":392,"x_min":0,"x_max":0,"o":""},"":{"ha":392,"x_min":0,"x_max":0,"o":""},"¢":{"ha":801,"x_min":56,"x_max":761,"o":"m 761 219 q 653 129 717 167 q 517 79 590 92 l 517 -171 l 378 -171 l 378 79 q 138 209 219 101 q 56 469 56 317 q 137 722 56 615 q 378 854 218 829 l 378 1111 l 517 1111 l 517 858 q 640 821 581 849 q 739 751 699 793 l 693 646 q 589 718 649 690 q 469 746 529 746 q 281 671 349 746 q 213 471 213 596 q 276 265 213 342 q 453 189 339 189 q 589 223 528 189 q 710 317 650 257 l 761 219 z "},"¤":{"ha":801,"x_min":100,"x_max":701,"o":"m 653 385 q 621 254 653 314 l 701 174 l 608 81 l 529 160 q 400 128 474 128 q 272 160 325 128 l 193 81 l 100 174 l 179 253 q 149 382 149 314 q 179 510 149 453 l 100 589 l 193 682 l 269 606 q 400 640 326 640 q 532 606 475 640 l 608 682 l 701 589 l 622 510 q 653 385 653 454 m 269 383 q 306 278 269 319 q 401 236 343 236 q 497 278 460 236 q 535 383 535 319 q 497 490 535 447 q 401 532 460 532 q 306 490 343 532 q 269 383 269 447 z "},"$":{"ha":801,"x_min":67,"x_max":733,"o":"m 733 275 q 671 113 733 178 q 496 25 608 47 l 496 -171 l 357 -171 l 357 15 q 67 97 186 21 l 111 210 q 383 133 239 133 q 522 169 467 133 q 578 268 578 204 q 551 338 578 310 q 483 385 524 367 q 374 425 443 403 q 232 478 286 453 q 140 553 178 504 q 101 676 101 601 q 171 842 101 779 q 357 922 240 906 l 357 1111 l 496 1111 l 496 924 q 717 846 619 910 l 672 735 q 435 808 556 808 q 306 776 356 808 q 256 685 256 744 q 282 617 256 644 q 347 573 308 590 q 456 532 386 556 q 600 476 544 503 q 694 401 656 450 q 733 275 733 351 z "},"€":{"ha":801,"x_min":64,"x_max":743,"o":"m 544 99 q 628 116 592 99 q 696 165 664 133 l 743 65 q 525 -19 658 -19 q 299 67 385 -19 q 186 311 214 154 l 64 311 l 64 425 l 174 425 q 172 475 172 442 q 174 526 172 510 l 64 526 l 64 640 l 186 640 q 301 878 215 793 q 525 963 386 963 q 743 879 653 963 l 694 776 q 544 844 629 844 q 344 640 383 844 l 625 640 l 625 526 l 332 526 q 331 475 331 510 q 332 425 331 442 l 625 425 l 625 311 l 343 311 q 544 99 382 99 z "},"ƒ":{"ha":801,"x_min":153,"x_max":700,"o":"m 451 614 l 689 614 l 689 501 l 443 501 l 383 -240 l 232 -240 l 292 501 l 153 501 l 153 614 l 300 614 l 304 661 q 389 912 318 833 q 594 990 460 990 q 700 976 644 990 l 665 868 q 608 875 635 875 q 499 825 532 875 q 456 658 465 775 l 451 614 z "},"₹":{"ha":899,"x_min":189,"x_max":801,"o":"m 535 793 q 589 692 575 746 l 801 692 l 801 576 l 592 576 q 529 455 578 507 q 406 375 481 403 l 718 49 l 626 -42 l 254 349 l 257 424 q 443 576 418 464 l 189 576 l 189 692 l 439 692 q 371 793 422 746 l 189 793 l 189 908 l 801 908 l 801 793 l 535 793 z "},"£":{"ha":801,"x_min":81,"x_max":721,"o":"m 721 115 l 721 0 l 89 0 l 89 86 q 253 308 253 206 q 226 418 253 361 l 81 418 l 81 532 l 171 532 q 140 694 140 611 q 178 833 140 772 q 286 928 215 894 q 453 963 357 963 q 711 872 600 961 l 664 772 q 572 824 618 806 q 471 843 526 842 q 341 799 386 843 q 296 689 296 756 q 306 607 296 643 q 335 532 317 571 l 625 532 l 625 418 l 389 418 q 407 308 407 368 q 382 213 407 258 q 308 115 357 167 l 721 115 z "},"¥":{"ha":801,"x_min":56,"x_max":747,"o":"m 519 596 l 701 596 l 701 482 l 478 482 l 478 404 l 701 404 l 701 290 l 478 290 l 478 0 l 324 0 l 324 290 l 97 290 l 97 404 l 324 404 l 324 482 l 97 482 l 97 596 l 282 596 l 56 944 l 222 944 l 403 642 l 583 944 l 747 944 l 519 596 z "},"≈":{"ha":803,"x_min":31,"x_max":772,"o":"m 31 469 q 138 578 82 536 q 271 619 193 619 q 346 606 313 619 q 419 567 379 592 q 481 534 457 544 q 535 524 506 524 q 696 624 625 524 l 772 551 q 665 444 718 483 q 535 404 611 404 q 468 417 497 404 q 393 454 439 429 q 328 489 356 478 q 271 500 301 500 q 181 472 221 500 q 107 396 142 443 l 31 469 m 31 186 q 138 294 82 253 q 271 336 193 336 q 346 322 313 336 q 419 283 379 308 q 481 251 457 261 q 535 240 506 240 q 696 340 625 240 l 772 268 q 665 160 718 200 q 535 121 611 121 q 468 133 497 121 q 393 171 439 146 q 328 206 356 194 q 271 217 301 217 q 181 188 221 217 q 107 113 142 160 l 31 186 z "},"~":{"ha":801,"x_min":31,"x_max":772,"o":"m 31 344 q 138 453 82 411 q 271 494 193 494 q 346 481 313 494 q 419 442 379 467 q 481 409 457 419 q 535 399 506 399 q 696 499 625 399 l 772 426 q 665 319 718 358 q 535 279 611 279 q 468 292 497 279 q 393 329 439 304 q 328 364 356 353 q 271 375 301 375 q 181 347 221 375 q 107 271 142 318 l 31 344 z "},"÷":{"ha":801,"x_min":46,"x_max":757,"o":"m 400 571 q 329 600 358 571 q 300 669 300 629 q 329 741 300 711 q 400 771 358 771 q 471 741 442 771 q 500 669 500 711 q 471 600 500 629 q 400 571 442 571 m 46 451 l 757 451 l 757 339 l 46 339 l 46 451 m 400 21 q 329 50 358 21 q 300 121 300 79 q 329 191 300 161 q 400 221 358 221 q 471 191 442 221 q 500 121 500 161 q 471 50 500 79 q 400 21 442 21 z "},"=":{"ha":801,"x_min":46,"x_max":757,"o":"m 46 601 l 757 601 l 757 489 l 46 489 l 46 601 m 46 301 l 757 301 l 757 189 l 46 189 l 46 301 z "},">":{"ha":801,"x_min":46,"x_max":757,"o":"m 757 444 l 757 338 l 46 36 l 46 158 l 622 392 l 46 625 l 46 747 l 757 444 z "},"≥":{"ha":801,"x_min":46,"x_max":757,"o":"m 757 518 l 757 413 l 46 185 l 46 303 l 618 467 l 46 629 l 46 747 l 757 518 m 46 108 l 757 108 l 757 0 l 46 0 l 46 108 z "},"∆":{"ha":925,"x_min":22,"x_max":904,"o":"m 904 0 l 22 0 l 388 957 l 536 957 l 904 0 m 700 117 l 461 785 l 222 117 l 700 117 z "},"∞":{"ha":811,"x_min":35,"x_max":778,"o":"m 578 582 q 722 529 667 582 q 778 372 778 476 q 720 215 778 269 q 576 161 663 161 q 401 257 463 161 q 328 184 367 207 q 233 161 289 161 q 90 214 144 161 q 35 371 35 267 q 92 528 35 475 q 235 582 150 582 q 401 482 342 582 q 477 558 436 535 q 578 582 518 582 m 233 272 q 296 299 271 272 q 344 382 321 326 l 350 394 q 298 451 328 431 q 235 471 268 471 q 173 446 199 471 q 147 371 147 421 q 172 297 147 321 q 233 272 197 272 m 576 272 q 639 297 613 272 q 665 372 665 322 q 640 447 665 422 q 578 471 615 471 q 512 445 538 471 q 460 364 486 419 l 453 350 q 508 292 476 313 q 576 272 539 272 z "},"∫":{"ha":801,"x_min":99,"x_max":701,"o":"m 204 -296 q 99 -285 158 -296 l 114 -172 q 185 -179 153 -179 q 290 -132 257 -179 q 324 11 324 -85 l 324 811 q 391 1037 324 958 q 596 1115 458 1115 q 701 1104 642 1115 l 686 993 q 615 1000 647 1000 q 510 952 543 1000 q 476 808 476 904 l 476 8 q 410 -217 476 -139 q 204 -296 343 -296 z "},"<":{"ha":801,"x_min":46,"x_max":757,"o":"m 757 625 l 181 392 l 757 158 l 757 36 l 46 339 l 46 444 l 757 747 l 757 625 z "},"≤":{"ha":801,"x_min":46,"x_max":757,"o":"m 757 629 l 185 467 l 757 303 l 757 185 l 46 413 l 46 518 l 757 747 l 757 629 m 46 108 l 757 108 l 757 0 l 46 0 l 46 108 z "},"¬":{"ha":801,"x_min":46,"x_max":757,"o":"m 757 451 l 757 36 l 638 36 l 638 339 l 46 339 l 46 451 l 757 451 z "},"−":{"ha":801,"x_min":46,"x_max":757,"o":"m 46 451 l 757 451 l 757 339 l 46 339 l 46 451 z "},"×":{"ha":801,"x_min":108,"x_max":693,"o":"m 614 101 l 400 315 l 188 103 l 108 182 l 321 394 l 111 604 l 190 683 l 400 474 l 613 686 l 692 606 l 479 394 l 693 181 l 614 101 z "},"≠":{"ha":801,"x_min":46,"x_max":757,"o":"m 522 489 l 414 301 l 757 301 l 757 189 l 350 189 l 242 0 l 110 0 l 218 189 l 46 189 l 46 301 l 282 301 l 390 489 l 46 489 l 46 601 l 454 601 l 563 790 l 694 790 l 586 601 l 757 601 l 757 489 l 522 489 z "},"∂":{"ha":801,"x_min":58,"x_max":742,"o":"m 172 963 q 590 756 438 913 q 742 361 742 599 q 699 153 742 239 q 578 23 656 67 q 400 -21 501 -21 q 216 20 293 -21 q 99 130 139 61 q 58 281 58 199 q 95 428 58 360 q 203 539 132 497 q 369 581 274 581 q 561 522 471 581 q 419 729 522 653 q 143 850 315 806 l 172 963 m 400 96 q 534 160 485 96 q 583 347 583 225 l 583 364 q 383 464 504 464 q 261 411 306 464 q 217 274 217 358 q 264 146 217 196 q 400 96 311 96 z "},"%":{"ha":1313,"x_min":19,"x_max":1294,"o":"m 19 0 m 989 915 l 433 -46 l 325 19 l 881 981 l 989 915 m 267 363 q 83 444 146 363 q 19 658 19 526 q 83 872 19 790 q 267 954 146 954 q 451 872 388 954 q 515 658 515 790 q 451 444 515 526 q 267 363 388 363 m 267 461 q 351 510 325 461 q 378 658 378 558 q 351 808 378 758 q 267 857 324 857 q 183 808 210 857 q 156 658 156 758 q 183 510 156 558 q 267 461 210 461 m 1046 -15 q 862 67 925 -15 q 799 281 799 149 q 862 494 799 413 q 1046 576 925 576 q 1231 494 1167 576 q 1294 281 1294 413 q 1231 67 1294 149 q 1046 -15 1167 -15 m 1046 83 q 1131 132 1104 83 q 1157 281 1157 181 q 1130 430 1157 381 q 1046 479 1103 479 q 962 430 989 479 q 935 281 935 381 q 962 132 935 181 q 1046 83 989 83 z "},"‰":{"ha":1874,"x_min":19,"x_max":1856,"o":"m 19 0 m 989 915 l 433 -46 l 325 19 l 881 981 l 989 915 m 267 363 q 83 444 146 363 q 19 658 19 526 q 83 872 19 790 q 267 954 146 954 q 451 872 388 954 q 515 658 515 790 q 451 444 515 526 q 267 363 388 363 m 267 461 q 351 510 325 461 q 378 658 378 558 q 351 808 378 758 q 267 857 324 857 q 183 808 210 857 q 156 658 156 758 q 183 510 156 558 q 267 461 210 461 m 1046 -15 q 862 67 925 -15 q 799 281 799 149 q 862 494 799 413 q 1046 576 925 576 q 1231 494 1167 576 q 1294 281 1294 413 q 1231 67 1294 149 q 1046 -15 1167 -15 m 1046 83 q 1131 132 1104 83 q 1157 281 1157 181 q 1130 430 1157 381 q 1046 479 1103 479 q 962 430 989 479 q 935 281 935 381 q 962 132 935 181 q 1046 83 989 83 m 1607 -15 q 1423 67 1486 -15 q 1360 281 1360 149 q 1423 494 1360 413 q 1607 576 1486 576 q 1792 494 1728 576 q 1856 281 1856 413 q 1792 67 1856 149 q 1607 -15 1728 -15 m 1607 83 q 1692 132 1665 83 q 1718 281 1718 181 q 1691 430 1718 381 q 1607 479 1664 479 q 1523 430 1550 479 q 1496 281 1496 381 q 1523 132 1496 181 q 1607 83 1550 83 z "},"+":{"ha":801,"x_min":46,"x_max":757,"o":"m 757 339 l 461 339 l 461 36 l 342 36 l 342 339 l 46 339 l 46 451 l 342 451 l 342 747 l 461 747 l 461 451 l 757 451 l 757 339 z "},"±":{"ha":801,"x_min":46,"x_max":757,"o":"m 757 518 l 757 408 l 461 408 l 461 186 l 342 186 l 342 408 l 46 408 l 46 518 l 342 518 l 342 747 l 461 747 l 461 518 l 757 518 m 46 108 l 757 108 l 757 0 l 46 0 l 46 108 z "},"∏":{"ha":1090,"x_min":147,"x_max":943,"o":"m 943 -326 l 785 -326 l 785 828 l 306 828 l 306 -326 l 147 -326 l 147 944 l 943 944 l 943 -326 z "},"√":{"ha":801,"x_min":43,"x_max":761,"o":"m 761 944 l 478 0 l 335 0 l 167 457 l 43 457 l 43 572 l 271 572 l 400 154 l 610 944 l 761 944 z "},"∑":{"ha":940,"x_min":92,"x_max":876,"o":"m 92 -244 l 493 311 l 101 851 l 101 944 l 868 944 l 868 828 l 294 828 l 671 311 l 289 -215 l 876 -215 l 876 -332 l 92 -332 l 92 -244 z "},"◌":{"ha":1069,"x_min":129,"x_max":940,"o":"m 536 742 q 496 758 513 742 q 479 799 479 775 q 496 838 479 821 q 536 856 513 856 q 576 838 558 856 q 593 799 593 821 q 576 758 593 775 q 536 742 558 742 m 358 697 q 319 714 336 697 q 303 754 303 731 q 319 794 303 778 q 358 811 336 811 q 399 794 382 811 q 415 754 415 778 q 399 715 415 732 q 358 697 382 697 m 708 697 q 669 715 686 697 q 651 754 651 732 q 669 794 651 778 q 708 811 686 811 q 749 794 732 811 q 765 754 765 778 q 749 714 765 731 q 708 697 732 697 m 229 568 q 189 585 206 568 q 172 625 172 601 q 189 665 172 649 q 229 682 206 682 q 269 665 253 682 q 286 625 286 649 q 269 585 286 601 q 229 568 253 568 m 840 568 q 800 585 817 568 q 783 625 783 601 q 801 665 783 649 q 840 682 818 682 q 881 665 864 682 q 897 625 897 649 q 881 585 897 601 q 840 568 864 568 m 186 392 q 146 408 163 392 q 129 449 129 425 q 146 489 129 472 q 186 506 163 506 q 226 489 210 506 q 243 449 243 472 q 226 409 243 426 q 186 392 210 392 m 883 392 q 844 409 861 392 q 828 449 828 426 q 844 489 828 472 q 883 506 861 506 q 924 489 907 506 q 940 449 940 472 q 924 408 940 425 q 883 392 907 392 m 229 217 q 189 233 206 217 q 172 274 172 250 q 189 313 172 297 q 229 329 206 329 q 269 313 253 329 q 286 274 286 296 q 269 234 286 251 q 229 217 253 217 m 840 217 q 801 234 818 217 q 783 274 783 251 q 800 313 783 296 q 840 329 817 329 q 881 313 864 329 q 897 274 897 297 q 881 233 897 250 q 840 217 864 217 m 358 85 q 319 101 336 85 q 303 142 303 118 q 319 181 303 165 q 358 197 336 197 q 399 181 382 197 q 415 142 415 164 q 399 102 415 119 q 358 85 382 85 m 708 85 q 669 102 686 85 q 651 142 651 119 q 668 181 651 164 q 708 197 685 197 q 749 181 732 197 q 765 142 765 165 q 749 101 765 118 q 708 85 732 85 m 536 42 q 496 58 513 42 q 479 99 479 75 q 496 139 479 122 q 536 156 513 156 q 576 139 558 156 q 593 99 593 122 q 576 59 593 76 q 536 42 558 42 z "},"◊":{"ha":801,"x_min":83,"x_max":719,"o":"m 719 472 l 474 0 l 329 0 l 83 472 l 331 944 l 475 944 l 719 472 m 579 472 l 400 817 l 221 472 l 400 128 l 579 472 z "},"|":{"ha":510,"x_min":175,"x_max":333,"o":"m 175 1121 l 333 1121 l 333 -328 l 175 -328 l 175 1121 z "},"¦":{"ha":510,"x_min":175,"x_max":333,"o":"m 175 1121 l 333 1121 l 333 554 l 175 554 l 175 1121 m 175 239 l 333 239 l 333 -328 l 175 -328 l 175 239 z "},"@":{"ha":1219,"x_min":71,"x_max":1149,"o":"m 394 222 q 426 315 394 278 q 520 381 457 353 q 696 439 583 408 l 696 461 q 679 533 696 506 q 617 560 663 560 q 531 540 571 560 q 439 469 490 521 l 399 560 q 504 636 444 607 q 632 665 564 665 q 774 613 732 665 q 817 454 817 561 l 817 235 q 861 186 817 186 q 933 216 899 186 q 992 306 968 246 q 1015 451 1015 365 q 967 627 1015 550 q 835 748 919 704 q 644 792 751 792 q 417 740 517 792 q 262 590 318 689 q 206 356 206 492 q 261 132 206 226 q 410 -12 317 38 q 615 -62 503 -62 q 767 -41 697 -62 q 904 24 836 -19 l 951 -69 q 792 -147 874 -122 q 614 -172 711 -172 q 349 -111 474 -172 q 148 70 225 -50 q 71 357 71 190 q 148 649 71 525 q 356 837 225 772 q 643 901 486 901 q 909 842 794 901 q 1086 681 1024 783 q 1149 453 1149 579 q 1105 252 1149 336 q 991 126 1061 168 q 846 83 921 83 q 760 103 794 83 q 708 158 725 124 q 536 83 617 83 q 434 122 474 83 q 394 222 394 161 m 515 233 q 568 188 515 188 q 628 203 599 188 q 696 249 658 218 l 696 347 q 553 290 592 315 q 515 233 515 265 z "},"&":{"ha":1008,"x_min":42,"x_max":976,"o":"m 976 4 q 876 -11 935 -11 q 766 12 814 -11 q 656 94 718 35 q 368 -19 522 -19 q 192 15 265 -19 q 80 107 118 49 q 42 238 42 165 q 94 403 42 332 q 263 531 147 475 q 186 635 208 593 q 164 733 164 678 q 231 897 164 832 q 424 963 297 963 q 561 934 504 963 q 647 859 618 906 q 676 758 676 813 q 628 610 676 672 q 471 496 579 549 l 660 286 q 792 604 738 407 l 936 585 q 859 371 907 472 q 747 190 811 269 q 820 129 786 150 q 890 108 854 108 q 950 115 919 108 l 976 4 m 422 844 q 344 815 371 844 q 317 740 317 785 q 333 664 317 697 q 393 582 350 631 q 494 659 464 621 q 524 751 524 697 q 497 817 524 790 q 422 844 471 844 m 200 251 q 247 143 200 188 q 381 99 294 99 q 575 182 488 99 l 342 442 q 231 349 263 394 q 200 251 200 304 z "},"¶":{"ha":829,"x_min":42,"x_max":690,"o":"m 690 -32 q 622 -258 690 -179 q 415 -336 554 -336 q 310 -325 369 -336 l 325 -211 q 396 -218 364 -218 q 501 -172 468 -218 q 535 -29 535 -125 l 535 278 l 414 278 q 138 369 235 278 q 42 613 42 460 q 84 783 42 707 q 210 901 126 858 q 414 944 294 944 l 690 944 l 690 -32 z "},"©":{"ha":1138,"x_min":74,"x_max":1064,"o":"m 568 -19 q 315 47 428 -19 q 138 226 201 113 q 74 475 74 339 q 138 720 74 608 q 315 897 201 832 q 568 963 428 963 q 822 897 708 963 q 999 720 935 832 q 1064 475 1064 608 q 999 226 1064 339 q 822 47 935 113 q 568 -19 708 -19 m 568 76 q 765 130 678 76 q 900 274 851 183 q 949 475 949 365 q 900 673 949 583 q 764 815 851 763 q 568 867 676 867 q 373 815 460 867 q 238 673 286 763 q 189 475 189 583 q 238 274 189 365 q 373 130 286 183 q 568 76 460 76 m 581 218 q 444 253 501 218 q 357 346 386 288 q 328 472 328 404 q 358 597 328 539 q 448 690 389 656 q 588 725 507 725 q 678 710 635 725 q 753 669 722 694 l 714 592 q 663 619 693 608 q 599 631 632 631 q 485 585 528 631 q 442 472 442 540 q 483 357 442 403 q 592 311 524 311 q 663 325 631 311 q 717 361 694 339 l 757 285 q 679 237 725 256 q 581 218 633 218 z "},"®":{"ha":585,"x_min":47,"x_max":539,"o":"m 294 992 q 418 960 363 992 q 506 871 474 928 q 539 744 539 814 q 506 620 539 676 q 418 531 474 564 q 294 499 363 499 q 170 531 226 499 q 81 620 114 564 q 47 744 47 676 q 80 870 47 814 q 169 959 113 926 q 294 992 226 992 m 292 560 q 384 584 342 560 q 451 651 426 608 q 475 744 475 693 q 451 840 475 797 q 384 908 426 883 q 292 933 342 933 q 200 908 242 933 q 134 840 158 883 q 110 744 110 797 q 134 651 110 693 q 200 584 158 608 q 292 560 242 560 m 388 779 q 353 718 388 736 l 408 640 l 338 640 l 294 706 l 265 706 l 265 640 l 206 640 l 206 853 l 301 853 q 365 832 342 853 q 388 779 388 811 m 265 753 l 297 753 q 326 781 326 753 q 297 806 326 806 l 265 806 l 265 753 z "},"§":{"ha":836,"x_min":138,"x_max":721,"o":"m 614 194 q 699 36 699 138 q 617 -140 699 -78 q 392 -201 535 -201 q 138 -136 246 -201 l 176 -26 q 392 -87 286 -87 q 503 -59 460 -87 q 547 28 547 -31 q 507 98 547 72 q 383 153 467 124 q 263 203 310 179 q 182 268 215 226 q 149 372 149 310 q 265 568 149 494 q 197 634 221 596 q 172 728 172 672 q 250 894 172 836 q 457 951 328 951 q 694 889 592 951 l 656 781 q 460 838 560 838 q 360 814 397 838 q 322 742 322 790 q 361 671 322 696 q 483 617 400 646 q 606 566 560 590 q 687 498 653 542 q 721 385 721 454 q 614 194 721 268 m 300 386 q 324 331 300 353 q 376 296 347 308 q 479 257 406 283 q 547 310 524 282 q 571 376 571 339 q 547 433 571 410 q 490 472 524 457 q 393 510 457 486 q 300 386 300 463 z "},"™":{"ha":1125,"x_min":56,"x_max":958,"o":"m 414 881 l 292 881 l 292 513 l 179 513 l 179 881 l 56 881 l 56 957 l 414 957 l 414 881 m 958 957 l 958 513 l 847 513 l 847 631 l 853 806 l 756 657 l 685 657 l 589 804 l 594 631 l 594 513 l 482 513 l 482 957 l 594 957 l 721 767 l 846 957 l 958 957 z "},"°":{"ha":657,"x_min":83,"x_max":575,"o":"m 329 499 q 197 532 253 499 q 113 622 142 565 q 83 743 83 678 q 113 865 83 808 q 198 956 142 922 q 329 990 254 990 q 460 956 404 990 q 546 866 517 922 q 575 746 575 810 q 546 622 575 679 q 461 532 517 565 q 329 499 406 499 m 328 596 q 424 638 386 596 q 461 744 461 681 q 424 850 461 807 q 328 893 386 893 q 233 851 269 893 q 196 744 196 808 q 233 638 196 681 q 328 596 269 596 z "},"^":{"ha":801,"x_min":154,"x_max":649,"o":"m 508 217 l 401 444 l 293 217 l 154 217 l 333 561 l 469 561 l 649 217 l 508 217 z "},"†":{"ha":547,"x_min":33,"x_max":514,"o":"m 514 678 l 514 565 l 33 565 l 33 678 l 197 678 l 197 944 l 350 944 l 350 678 l 514 678 m 197 464 l 350 464 l 340 -210 l 207 -210 l 197 464 z "},"‡":{"ha":547,"x_min":33,"x_max":514,"o":"m 514 678 l 514 565 l 33 565 l 33 678 l 197 678 l 197 944 l 350 944 l 350 678 l 514 678 m 368 367 q 339 297 368 326 q 268 267 310 267 q 197 297 226 267 q 168 367 168 326 q 197 437 168 407 q 268 467 226 467 q 339 437 310 467 q 368 367 368 407 m 33 169 l 514 169 l 514 57 l 350 57 l 350 -210 l 197 -210 l 197 57 l 33 57 l 33 169 z "},"ऽ":{"ha":775,"x_min":54,"x_max":675,"o":"m 381 11 q 197 64 278 11 q 54 222 117 117 l 146 296 q 368 126 251 128 q 456 159 424 128 q 489 244 489 190 q 456 346 489 296 q 358 461 422 396 l 271 551 q 183 659 213 611 q 154 760 154 707 q 197 869 154 829 q 324 908 239 908 l 675 908 l 675 793 l 356 793 q 296 750 296 793 q 314 700 296 728 q 374 631 332 672 l 460 542 q 586 385 542 457 q 631 243 631 314 q 560 75 631 139 q 381 11 490 11 z "},"ॐ":{"ha":1542,"x_min":0,"x_max":1479,"o":"m 950 974 q 878 1003 908 974 q 849 1075 849 1033 q 878 1147 849 1117 q 950 1178 908 1178 q 1023 1147 993 1178 q 1053 1075 1053 1117 q 1023 1003 1053 1033 q 950 974 993 974 m 953 731 q 765 785 849 731 q 636 924 682 839 l 728 989 q 953 847 815 847 q 1178 989 1090 847 l 1268 924 q 1139 784 1221 838 q 953 731 1057 731 m 1231 683 q 1361 649 1304 683 q 1449 554 1418 614 q 1479 424 1479 494 q 1449 293 1479 351 q 1365 201 1419 235 q 1236 168 1310 168 q 1006 296 1101 168 q 914 192 963 229 q 801 154 865 154 q 650 214 726 154 q 560 81 632 132 q 381 29 488 29 q 0 313 140 29 l 81 392 q 215 212 139 278 q 376 146 290 146 q 476 183 439 146 q 514 278 514 219 q 433 433 514 365 q 289 411 364 415 l 256 528 q 439 571 385 533 q 493 682 493 608 q 458 775 493 738 q 363 813 424 813 q 171 729 279 813 l 110 836 q 360 931 236 931 q 495 900 432 931 q 597 809 558 869 q 635 665 635 749 q 542 485 635 550 q 618 396 588 443 q 704 304 667 336 q 789 272 742 272 q 867 313 832 272 q 951 439 901 353 q 1031 565 996 517 q 1116 649 1065 614 q 1231 683 1167 683 m 1225 286 q 1308 326 1278 286 q 1339 429 1339 367 q 1310 527 1339 489 q 1232 565 1281 565 q 1145 523 1182 565 q 1063 396 1108 481 q 1225 286 1132 286 z "},"̦":{"ha":696,"x_min":-460,"x_max":-242,"o":"m -460 -275 q -381 -244 -403 -262 q -360 -199 -360 -226 q -429 -147 -360 -157 l -396 -68 q -278 -110 -315 -76 q -242 -193 -242 -144 q -290 -291 -242 -250 q -429 -347 -337 -332 l -460 -275 z "},"´":{"ha":694,"x_min":201,"x_max":500,"o":"m 336 1114 l 500 1114 l 321 819 l 201 819 l 336 1114 z "},"˘":{"ha":694,"x_min":128,"x_max":567,"o":"m 347 839 q 188 904 246 839 q 128 1092 129 969 l 232 1094 q 265 978 235 1017 q 347 940 296 940 q 430 978 400 940 q 464 1094 460 1017 l 567 1092 q 508 904 565 969 q 347 839 450 839 z "},"ˇ":{"ha":694,"x_min":119,"x_max":575,"o":"m 575 1111 l 422 819 l 272 819 l 119 1111 l 239 1111 l 347 922 l 454 1111 l 575 1111 z "},"¸":{"ha":694,"x_min":225,"x_max":476,"o":"m 358 -81 q 442 -108 408 -81 q 476 -178 476 -136 q 426 -275 476 -232 q 268 -333 376 -318 l 239 -262 q 333 -228 308 -246 q 358 -186 358 -210 q 347 -162 358 -171 q 315 -153 336 -153 q 268 -164 297 -153 l 225 -117 l 306 33 l 410 33 l 349 -81 l 358 -81 z "},"ˆ":{"ha":694,"x_min":119,"x_max":575,"o":"m 454 819 l 347 1008 l 239 819 l 119 819 l 272 1111 l 422 1111 l 575 819 l 454 819 z "},"¨":{"ha":694,"x_min":108,"x_max":586,"o":"m 196 951 q 135 978 161 951 q 108 1039 108 1004 q 135 1101 108 1075 q 196 1128 161 1128 q 258 1101 232 1128 q 285 1039 285 1075 q 258 977 285 1003 q 196 951 232 951 m 497 951 q 436 978 463 951 q 410 1039 410 1004 q 436 1101 410 1075 q 497 1128 463 1128 q 560 1101 533 1128 q 586 1039 586 1075 q 560 977 586 1003 q 497 951 533 951 z "},"˙":{"ha":694,"x_min":260,"x_max":436,"o":"m 347 951 q 286 978 313 951 q 260 1039 260 1004 q 286 1101 260 1075 q 347 1128 313 1128 q 410 1101 383 1128 q 436 1039 436 1075 q 410 977 436 1003 q 347 951 383 951 z "},"`":{"ha":694,"x_min":194,"x_max":493,"o":"m 194 1113 l 358 1113 l 493 819 l 374 819 l 194 1113 z "},"˝":{"ha":694,"x_min":93,"x_max":621,"o":"m 228 1113 l 372 1113 l 193 819 l 93 819 l 228 1113 m 476 1113 l 621 1113 l 442 819 l 342 819 l 476 1113 z "},"¯":{"ha":694,"x_min":114,"x_max":581,"o":"m 114 1086 l 581 1086 l 581 975 l 114 975 l 114 1086 z "},"˛":{"ha":694,"x_min":201,"x_max":522,"o":"m 358 -354 q 244 -316 286 -354 q 201 -211 201 -278 q 240 -92 201 -153 q 347 21 278 -31 l 476 21 q 325 -185 325 -101 q 341 -227 325 -212 q 383 -242 357 -242 q 475 -197 429 -242 l 522 -279 q 452 -332 497 -310 q 358 -354 407 -354 z "},"˚":{"ha":694,"x_min":171,"x_max":524,"o":"m 347 829 q 218 876 265 829 q 171 986 171 924 q 218 1095 171 1049 q 347 1142 265 1142 q 477 1095 431 1142 q 524 986 524 1049 q 477 876 524 924 q 347 829 431 829 m 347 903 q 404 926 383 903 q 425 986 425 950 q 404 1044 425 1021 q 347 1068 383 1068 q 290 1045 311 1068 q 268 986 268 1022 q 290 926 268 950 q 347 903 311 903 z "},"˜":{"ha":694,"x_min":103,"x_max":592,"o":"m 103 875 q 149 1028 110 974 q 250 1083 188 1083 q 306 1069 282 1083 q 360 1029 331 1056 q 403 997 388 1007 q 438 988 418 988 q 478 1011 464 988 q 501 1090 493 1035 l 592 1085 q 545 933 585 990 q 444 876 506 876 q 384 892 410 876 q 328 933 358 907 q 290 963 306 953 q 257 972 274 972 q 217 949 231 972 q 193 869 203 925 l 103 875 z "},"ु":{"ha":0,"x_min":-587,"x_max":26,"o":"m -237 -406 q -428 -356 -343 -406 q -587 -219 -514 -306 l -512 -136 q -381 -249 -446 -208 q -239 -289 -317 -289 q -148 -262 -182 -289 q -114 -194 -114 -236 q -143 -133 -114 -157 q -215 -108 -172 -108 q -353 -151 -283 -108 l -399 -47 q -214 8 -319 8 q -43 -46 -112 8 q 26 -194 26 -100 q -46 -347 26 -289 q -237 -406 -118 -406 z "},"ू":{"ha":0,"x_min":-483,"x_max":132,"o":"m -219 8 q -29 -42 -114 8 q 132 -176 56 -92 l 57 -260 q -74 -148 -10 -187 q -217 -108 -139 -108 q -308 -135 -275 -108 q -342 -201 -342 -161 q -312 -263 -342 -239 q -240 -287 -283 -287 q -104 -244 -168 -287 l -57 -350 q -242 -406 -139 -406 q -414 -351 -344 -406 q -483 -201 -483 -297 q -411 -49 -483 -107 q -219 8 -339 8 z "},"ृ":{"ha":0,"x_min":-404,"x_max":-10,"o":"m -186 -356 q -344 -302 -283 -356 q -404 -167 -404 -249 q -354 -42 -404 -99 q -200 64 -304 15 l -131 -29 q -279 -162 -279 -87 q -255 -218 -279 -197 q -186 -239 -231 -239 q -119 -229 -153 -239 q -62 -201 -85 -219 l -10 -303 q -88 -341 -43 -326 q -186 -356 -133 -356 z "},"ॄ":{"ha":0,"x_min":-404,"x_max":121,"o":"m 121 -546 q -89 -631 31 -631 q -243 -579 -183 -631 q -303 -446 -303 -528 q -274 -342 -303 -393 q -369 -274 -335 -321 q -404 -167 -404 -226 q -354 -42 -404 -99 q -200 64 -304 15 l -131 -29 q -279 -162 -279 -87 q -255 -218 -279 -197 q -186 -239 -231 -239 q -119 -229 -153 -239 q -62 -201 -85 -219 l -10 -303 q -137 -353 -62 -340 q -176 -443 -176 -392 q -153 -495 -176 -476 q -87 -514 -131 -514 q -8 -497 -49 -514 q 64 -447 32 -479 l 121 -546 z "},"ॢ":{"ha":0,"x_min":-685,"x_max":53,"o":"m 53 -544 q -25 -597 17 -578 q -122 -617 -67 -617 q -239 -581 -189 -617 q -289 -487 -289 -546 q -267 -412 -289 -446 q -206 -335 -246 -378 q -165 -285 -178 -304 q -151 -247 -151 -265 q -167 -211 -151 -224 q -206 -199 -182 -199 q -281 -242 -251 -199 q -318 -358 -311 -286 l -442 -339 q -412 -221 -433 -271 q -482 -186 -443 -186 q -527 -206 -510 -186 q -544 -261 -544 -226 q -417 -462 -544 -365 l -497 -544 q -637 -401 -590 -469 q -685 -243 -685 -333 q -633 -117 -685 -165 q -503 -69 -581 -69 q -356 -136 -419 -69 q -286 -94 -325 -110 l -286 18 l -146 18 l -146 -90 q -49 -149 -85 -106 q -14 -247 -14 -192 q -36 -319 -14 -287 q -97 -389 -58 -351 q -137 -435 -125 -418 q -150 -468 -150 -451 q -107 -500 -150 -500 q -1 -444 -61 -500 l 53 -544 z "},"ॣ":{"ha":0,"x_min":-685,"x_max":156,"o":"m 156 -717 q -6 -775 90 -775 q -127 -737 -81 -775 q -174 -636 -174 -699 q -171 -611 -174 -628 q -256 -567 -222 -599 q -289 -487 -289 -535 q -267 -412 -289 -446 q -206 -335 -246 -378 q -165 -285 -178 -304 q -151 -247 -151 -265 q -167 -211 -151 -224 q -206 -199 -182 -199 q -281 -242 -251 -199 q -318 -358 -311 -286 l -442 -339 q -412 -221 -433 -271 q -482 -186 -443 -186 q -527 -206 -510 -186 q -544 -261 -544 -226 q -417 -462 -544 -365 l -497 -544 q -637 -401 -590 -469 q -685 -243 -685 -333 q -633 -117 -685 -165 q -503 -69 -581 -69 q -356 -136 -419 -69 q -286 -94 -325 -110 l -286 18 l -146 18 l -146 -90 q -49 -149 -85 -106 q -14 -247 -14 -192 q -36 -319 -14 -287 q -97 -389 -58 -351 q -137 -435 -125 -418 q -150 -468 -150 -451 q -107 -500 -150 -500 q -1 -444 -61 -500 l 53 -544 q -32 -600 11 -583 q -36 -621 -36 -611 q -24 -649 -36 -639 q 11 -658 -11 -658 q 101 -617 57 -658 l 156 -717 z "},"ॅ":{"ha":0,"x_min":-519,"x_max":113,"o":"m -203 1015 q -390 1069 -307 1015 q -519 1208 -474 1124 l -428 1274 q -203 1132 -340 1132 q 22 1274 -65 1132 l 113 1208 q -17 1069 65 1122 q -203 1015 -99 1015 z "},"ँ":{"ha":0,"x_min":-519,"x_max":113,"o":"m 0 1015 m -203 1015 q -390 1069 -307 1015 q -519 1208 -474 1124 l -428 1274 q -203 1132 -340 1132 q 22 1274 -65 1132 l 113 1208 q -17 1069 65 1122 q -203 1015 -99 1015 m -307 1360 q -277 1432 -307 1401 q -206 1463 -247 1463 q -133 1432 -162 1463 q -103 1360 -103 1401 q -133 1288 -103 1318 q -206 1258 -162 1258 q -277 1288 -247 1258 q -307 1360 -307 1318 z "},"ॆ":{"ha":0,"x_min":-892,"x_max":-118,"o":"m -274 868 q -258 944 -258 896 q -289 1035 -258 999 q -393 1072 -319 1072 q -546 1064 -443 1072 q -687 1056 -643 1056 q -838 1097 -785 1056 q -892 1214 -892 1138 q -879 1288 -892 1250 q -846 1354 -867 1326 l -719 1324 q -751 1236 -751 1281 q -733 1188 -751 1204 q -674 1172 -715 1172 q -532 1181 -629 1172 q -393 1189 -437 1189 q -188 1122 -258 1189 q -118 943 -118 1054 q -133 864 -118 899 l -274 868 z "},"े":{"ha":0,"x_min":-696,"x_max":-147,"o":"m -343 1007 q -445 1183 -399 1129 q -561 1238 -492 1238 q -671 1219 -622 1238 l -696 1329 q -562 1358 -637 1358 q -428 1324 -486 1358 q -323 1219 -371 1289 q -219 1029 -275 1149 l -147 875 l -283 875 l -343 1007 z "},"ै":{"ha":0,"x_min":-689,"x_max":-115,"o":"m -207 879 l -200 867 l -317 867 l -383 976 q -460 1064 -419 1036 q -550 1092 -500 1092 q -664 1068 -611 1092 l -689 1179 q -551 1211 -626 1211 q -411 1164 -476 1211 q -296 1038 -346 1117 q -387 1231 -354 1169 q -459 1326 -421 1293 q -551 1358 -497 1358 q -647 1340 -603 1358 l -672 1450 q -539 1479 -611 1479 q -399 1435 -458 1479 q -288 1297 -340 1392 q -172 1029 -236 1201 l -115 879 l -207 879 z "},"ं":{"ha":0,"x_min":-300,"x_max":-96,"o":"m -300 1107 q -270 1179 -300 1149 q -199 1210 -240 1210 q -126 1179 -156 1210 q -96 1107 -96 1149 q -126 1035 -96 1065 q -199 1006 -156 1006 q -270 1035 -240 1006 q -300 1107 -300 1065 z "},"्":{"ha":0,"x_min":-504,"x_max":96,"o":"m 35 -390 q -307 -197 -126 -232 l -307 -285 q -376 -299 -343 -299 q -468 -266 -432 -299 q -504 -189 -504 -233 q -466 -115 -504 -140 q -362 -90 -428 -90 q -117 -160 -239 -90 q 96 -325 6 -231 l 35 -390 z "},"़":{"ha":0,"x_min":-101,"x_max":103,"o":"m -101 -179 q -72 -106 -101 -136 q 0 -76 -42 -76 q 73 -106 43 -76 q 103 -179 103 -136 q 73 -251 103 -221 q 0 -281 43 -281 q -72 -251 -42 -281 q -101 -179 -101 -221 z "},"ऺ":{"ha":0,"x_min":-286,"x_max":-143,"o":"m -286 1275 l -143 1275 l -143 882 l -286 882 l -286 1275 z "},"ॖ":{"ha":0,"x_min":-649,"x_max":21,"o":"m -312 -315 q -512 -260 -422 -315 q -649 -114 -601 -204 l -549 -51 q -452 -158 -511 -117 q -312 -200 -393 -200 q -174 -158 -233 -200 q -76 -51 -115 -117 l 21 -114 q -115 -260 -26 -204 q -312 -315 -204 -315 z "},"ॗ":{"ha":0,"x_min":-649,"x_max":21,"o":"m -312 -315 q -512 -260 -422 -315 q -649 -114 -601 -204 l -549 -51 q -452 -158 -511 -117 q -312 -200 -393 -200 q -174 -158 -233 -200 q -76 -51 -115 -117 l 21 -114 q -115 -260 -26 -204 q -312 -315 -204 -315 m -312 -594 q -512 -539 -422 -594 q -649 -393 -601 -483 l -549 -331 q -452 -437 -511 -396 q -312 -479 -393 -479 q -174 -437 -233 -479 q -76 -331 -115 -396 l 21 -393 q -115 -539 -26 -483 q -312 -594 -204 -594 z "},"॑":{"ha":0,"x_min":-285,"x_max":-147,"o":"m -285 1394 l -147 1394 l -147 1038 l -285 1038 l -285 1394 z "},"॒":{"ha":0,"x_min":-581,"x_max":132,"o":"m -581 -254 l 132 -254 l 132 -371 l -581 -371 l -581 -254 z "},"॓":{"ha":0,"x_min":-569,"x_max":-135,"o":"m -569 1394 l -408 1394 l -135 1051 l -275 1051 l -569 1394 z "},"॔":{"ha":0,"x_min":-287,"x_max":147,"o":"m -14 1394 l 147 1394 l -147 1051 l -287 1051 l -14 1394 z "},"ः":{"ha":504,"x_min":151,"x_max":351,"o":"m 251 529 q 181 558 210 529 q 151 628 151 588 q 181 699 151 669 q 251 728 210 728 q 322 699 293 728 q 351 628 351 669 q 322 558 351 588 q 251 529 293 529 m 251 75 q 181 104 210 75 q 151 175 151 133 q 181 245 151 215 q 251 275 210 275 q 322 245 293 275 q 351 175 351 215 q 322 104 351 133 q 251 75 293 75 z "}}}
